<svg width="113" height="113" viewBox="0 0 113 113" fill="none" xmlns="http://www.w3.org/2000/svg">
<path d="M83.9016 27.4047H90.3024C91.4363 27.4047 92.5237 27.8551 93.3255 28.6569C94.1273 29.4587 94.5778 30.5462 94.5778 31.6801C94.5778 32.814 94.1273 33.9015 93.3255 34.7033C92.5237 35.5051 91.4363 35.9555 90.3024 35.9555H80.4971C79.9356 35.9558 79.3794 35.8455 78.8606 35.6307C78.3417 35.416 77.8703 35.1011 77.4732 34.704C77.0761 34.3069 76.7612 33.8355 76.5465 33.3166C76.3317 32.7977 76.2214 32.2416 76.2217 31.6801C76.2217 30.5462 76.6721 29.4587 77.4739 28.6569C78.2757 27.8551 79.3632 27.4047 80.4971 27.4047" stroke="#263238" stroke-miterlimit="10"/>
<path d="M81.959 27.3998H83.0773" stroke="#263238" stroke-miterlimit="10"/>
<path d="M82.31 30.8933V31.158H82.0007V30.8685C82.0007 30.6038 81.8968 30.4454 81.6568 30.4454C81.4168 30.4454 81.3203 30.6211 81.3203 30.8685V32.4149C81.3203 32.6796 81.4291 32.838 81.6617 32.838C81.8943 32.838 82.0056 32.6796 82.0056 32.4149V32.0339H82.31V32.3976C82.31 32.8429 82.0996 33.1398 81.6493 33.1398C81.199 33.1398 80.9912 32.8479 80.9912 32.3976V30.8933C80.9912 30.4504 81.2015 30.151 81.6493 30.151C82.0972 30.151 82.31 30.4504 82.31 30.8933Z" fill="#263238"/>
<path d="M82.9459 32.5264L82.8321 33.1152H82.5303L83.0919 30.1882H83.5645L84.1237 33.1152H83.7946L83.6808 32.5264H82.9459ZM82.988 32.2468H83.6387L83.2997 30.5544L82.988 32.2468Z" fill="#263238"/>
<path d="M84.6704 33.1152H84.376V30.1882H84.7842L85.4621 32.3037V30.1882H85.7492V33.1152H85.4102L84.6679 30.7474L84.6704 33.1152Z" fill="#263238"/>
<path d="M87.3846 30.8933V31.158H87.0754V30.8685C87.0754 30.6038 86.9714 30.4454 86.7314 30.4454C86.4914 30.4454 86.39 30.6038 86.39 30.8685V32.4149C86.39 32.6796 86.4989 32.838 86.7314 32.838C86.964 32.838 87.0754 32.6796 87.0754 32.4149V32.0339H87.3846V32.3976C87.3846 32.8429 87.1768 33.1398 86.724 33.1398C86.2712 33.1398 86.0684 32.8479 86.0684 32.3976V30.8933C86.0684 30.4504 86.2762 30.151 86.724 30.151C87.1719 30.151 87.3846 30.4504 87.3846 30.8933Z" fill="#263238"/>
<path d="M88.7239 31.4847V31.7767H88.0014V32.8183H88.8797V33.1152H87.6748V30.1882H88.8797V30.4851H88.0014V31.4748L88.7239 31.4847Z" fill="#263238"/>
<path d="M89.1885 33.1152V30.1882H89.5151V32.8183H90.3514V33.1152H89.1885Z" fill="#263238"/>
<path d="M59.3669 1.2326C59.051 1.14774 58.7293 1.08573 58.4045 1.04703M57.6102 1.00002C55.9235 0.995816 54.2958 1.62031 53.0447 2.75162C51.7936 3.88292 51.009 5.43984 50.8441 7.11847C50.6791 8.7971 51.1456 10.477 52.1525 11.8302C53.1594 13.1834 54.6344 14.1128 56.2896 14.4371C57.9449 14.7613 59.6616 14.4571 61.1046 13.5838C62.5477 12.7105 63.6135 11.3308 64.0941 9.71396C64.5746 8.09715 64.4354 6.35928 63.7036 4.83956C62.9719 3.31984 61.7 2.12736 60.1364 1.49486M55.6828 7.14099L59.889 12.0647C58.9124 12.5965 57.783 12.7772 56.6893 12.5765C55.5955 12.3757 54.6038 11.8058 53.8798 10.9618C53.1557 10.1179 52.7432 9.05104 52.7111 7.93953C52.679 6.82801 53.0293 5.73914 53.7035 4.85483L55.136 6.52739L55.663 7.14099M59.5599 8.74922L55.1657 3.57814C55.9059 3.14027 56.7502 2.90954 57.6102 2.91011C58.5282 2.90973 59.4274 3.1695 60.2038 3.65929C60.9801 4.14909 61.6017 4.84886 61.9966 5.67751C62.3915 6.50615 62.5435 7.42974 62.435 8.34124C62.3265 9.25273 61.9618 10.1148 61.3834 10.8276L60.797 10.1422L59.5599 8.74922Z" stroke="#263238" stroke-miterlimit="10"/>
<path d="M28.9688 25.6084L29.3498 25.2274" stroke="#263238" stroke-miterlimit="10"/>
<path d="M28.1722 26.4052L24.5327 22.7656L21.5166 25.7817L25.1562 29.4212L21.5166 33.0608L24.5327 36.0768L28.1722 32.4373L31.8118 36.0768L34.8278 33.0608L31.1883 29.4212L34.8278 25.7817L31.8118 22.7656L29.82 24.7574" stroke="#263238" stroke-miterlimit="10"/>
<path d="M5.9162 40.7284C5.98548 40.2335 6.20073 39.6372 6.69063 39.6298C7.18052 39.6224 7.41804 40.236 7.39082 40.7234C7.36361 41.2108 7.22258 41.7378 7.47495 42.1535C8.18752 37.3634 9.22916 32.3458 12.4481 28.726C12.7994 28.3326 13.3363 27.9268 13.804 28.1693C14.3532 28.4538 14.1998 29.2679 13.9772 29.8419C12.2252 34.3943 11.1248 39.1713 10.7087 44.0314C12.0027 40.4488 14.0811 37.1037 17.0303 34.6765C17.493 34.2979 18.0695 33.9342 18.6509 34.0678C19.3387 34.241 19.6406 35.0575 19.6777 35.7676C19.7321 37.2768 19.0146 38.6946 18.3515 40.0504C15.7643 45.3514 13.7353 50.907 12.2972 56.6276C12.0003 57.8127 11.6935 59.0671 10.8448 59.948C10.4564 60.3513 9.83534 60.663 9.36029 60.3859C9.13217 60.2373 8.94771 60.0306 8.82586 59.7871C7.22203 56.9473 6.29095 53.7774 6.10424 50.5212C5.9162 47.2405 5.45105 44.0166 5.9162 40.7284Z" fill="#92E3A9"/>
<path opacity="0.2" d="M5.9162 40.7284C5.98548 40.2335 6.20073 39.6372 6.69063 39.6298C7.18052 39.6224 7.41804 40.236 7.39082 40.7234C7.36361 41.2108 7.22258 41.7378 7.47495 42.1535C8.18752 37.3634 9.22916 32.3458 12.4481 28.726C12.7994 28.3326 13.3363 27.9268 13.804 28.1693C14.3532 28.4538 14.1998 29.2679 13.9772 29.8419C12.2252 34.3943 11.1248 39.1713 10.7087 44.0314C12.0027 40.4488 14.0811 37.1037 17.0303 34.6765C17.493 34.2979 18.0695 33.9342 18.6509 34.0678C19.3387 34.241 19.6406 35.0575 19.6777 35.7676C19.7321 37.2768 19.0146 38.6946 18.3515 40.0504C15.7643 45.3514 13.7353 50.907 12.2972 56.6276C12.0003 57.8127 11.6935 59.0671 10.8448 59.948C10.4564 60.3513 9.83534 60.663 9.36029 60.3859C9.13217 60.2373 8.94771 60.0306 8.82586 59.7871C7.22203 56.9473 6.29095 53.7774 6.10424 50.5212C5.9162 47.2405 5.45105 44.0166 5.9162 40.7284Z" fill="white"/>
<path d="M0.537488 51.9586C0.450891 51.4217 0.480582 50.7092 0.995216 50.5409C1.50985 50.3727 1.9651 50.9442 2.09624 51.4688C2.22737 51.9933 2.24964 52.597 2.65293 52.9533C1.83644 47.6511 1.29212 42.0049 3.509 37.1184C3.75642 36.5839 4.18446 35.9802 4.76095 36.0842C5.43393 36.2054 5.53785 37.1134 5.50321 37.7963C5.14205 43.1866 5.54438 48.6009 6.69825 53.8786C6.89124 49.6725 7.98978 45.4317 10.3155 41.9134C10.6817 41.3592 11.1667 40.7728 11.8297 40.7381C12.6165 40.6936 13.2128 41.4557 13.4726 42.1979C14.0268 43.7765 13.7324 45.5084 13.4726 47.1612C12.4734 53.6204 12.1509 60.1663 12.5102 66.6925C12.5844 68.0434 12.6734 69.471 12.0648 70.6809C11.7852 71.2352 11.231 71.7696 10.6248 71.6335C10.3397 71.5436 10.0836 71.3797 9.88255 71.1585C7.2483 68.6824 5.21689 65.6353 3.94446 62.2513C2.6752 58.8443 1.12387 55.5883 0.537488 51.9586Z" fill="#92E3A9"/>
<path opacity="0.2" d="M0.537488 51.9586C0.450891 51.4217 0.480582 50.7092 0.995216 50.5409C1.50985 50.3727 1.9651 50.9442 2.09624 51.4688C2.22737 51.9933 2.24964 52.597 2.65293 52.9533C1.83644 47.6511 1.29212 42.0049 3.509 37.1184C3.75642 36.5839 4.18446 35.9802 4.76095 36.0842C5.43393 36.2054 5.53785 37.1134 5.50321 37.7963C5.14205 43.1866 5.54438 48.6009 6.69825 53.8786C6.89124 49.6725 7.98978 45.4317 10.3155 41.9134C10.6817 41.3592 11.1667 40.7728 11.8297 40.7381C12.6165 40.6936 13.2128 41.4557 13.4726 42.1979C14.0268 43.7765 13.7324 45.5084 13.4726 47.1612C12.4734 53.6204 12.1509 60.1663 12.5102 66.6925C12.5844 68.0434 12.6734 69.471 12.0648 70.6809C11.7852 71.2352 11.231 71.7696 10.6248 71.6335C10.3397 71.5436 10.0836 71.3797 9.88255 71.1585C7.2483 68.6824 5.21689 65.6353 3.94446 62.2513C2.6752 58.8443 1.12387 55.5883 0.537488 51.9586Z" fill="black"/>
<path d="M14.91 81.5452C14.8902 81.57 14.8333 81.5799 14.7467 81.5724C14.6834 81.5682 14.6206 81.5591 14.5587 81.5452C13.3728 80.4741 12.2478 79.3375 11.1888 78.1407C10.8002 77.2558 10.341 76.4035 9.81564 75.5923C8.89029 74.1474 7.81648 72.8088 6.76247 71.4579C6.51505 71.1412 6.26763 70.8229 6.02021 70.5029C5.77279 70.1589 5.50311 69.8126 5.25321 69.4637C4.4108 68.3243 3.68314 67.1043 3.08086 65.8217C2.77901 65.1512 2.52169 64.4089 2.68004 63.6914C2.73613 63.4609 2.84238 63.2456 2.99121 63.0608C3.14004 62.8761 3.32778 62.7264 3.54106 62.6225C3.62867 62.5802 3.72205 62.551 3.81817 62.5359C3.89391 62.5211 3.97125 62.5161 4.04827 62.5211C4.13219 62.5227 4.21547 62.536 4.29569 62.5607C4.76084 62.7042 5.05775 63.1471 5.31754 63.5504C5.97733 64.5912 6.63134 65.6328 7.27958 66.6753C6.35176 64.2456 5.42146 61.7961 4.99342 59.2106C4.56538 56.6251 4.67177 53.9034 5.753 51.5282C5.84637 51.3144 5.97149 51.1158 6.12413 50.9393C6.19694 50.8539 6.28713 50.7851 6.38867 50.7373C6.49021 50.6895 6.60078 50.6639 6.71299 50.6622C6.81547 50.6622 6.91646 50.6868 7.00742 50.734C7.3835 50.927 7.57896 51.4639 7.67793 51.9167C8.30143 54.7768 8.9241 57.6354 9.54595 60.4922L9.8577 61.9248L9.96904 62.4196L9.9542 61.6774C9.9542 61.279 9.9542 60.8782 9.9542 60.4774C9.98883 58.1393 10.2833 55.7962 11.6243 53.9307C11.903 53.5031 12.2943 53.1606 12.755 52.941C12.9402 52.8629 13.1407 52.8282 13.3414 52.8395C13.376 52.8395 13.4107 52.8395 13.4428 52.8395C13.7005 52.8947 13.9409 53.0118 14.1431 53.1808C14.3453 53.3498 14.5032 53.5656 14.6032 53.8094C14.7985 54.2974 14.9073 54.8156 14.9249 55.3409C15.1475 57.9735 13.8808 60.0172 14.3607 66.846C14.3805 67.1454 14.4053 67.4522 14.4325 67.7689C14.9199 73.3408 17.7826 78.304 14.91 81.5452Z" fill="#92E3A9"/>
<path d="M19.2846 65.2402C19.2203 67.9989 17.6121 69.9412 17.4562 77.5419C17.4018 80.2314 17.9115 82.8466 18.0945 85.16C16.9366 83.9971 15.8158 82.8021 14.7469 81.5724C14.6837 81.5682 14.6208 81.5591 14.5589 81.5452C13.3731 80.474 12.248 79.3374 11.189 78.1407C10.8004 77.2557 10.3412 76.4035 9.81586 75.5923C8.89051 74.1473 7.81671 72.8088 6.7627 71.4579C6.89096 71.3569 7.03579 71.2791 7.19073 71.2278C7.27068 71.1996 7.35377 71.1813 7.43815 71.1733C7.52928 71.161 7.62166 71.161 7.71279 71.1733C7.79815 71.1831 7.88156 71.2056 7.96021 71.2401C8.40557 71.4307 8.65299 71.9032 8.86824 72.3412C9.40267 73.4496 9.94204 74.5531 10.4814 75.6615C10.0435 73.984 9.60555 72.2941 9.31607 70.5869C9.16141 69.7251 9.05485 68.8553 8.9969 67.9816C8.84406 65.9177 9.13773 63.8452 9.85792 61.905C9.88761 61.8283 9.91978 61.7516 9.95442 61.6773C10.1336 61.2467 10.3428 60.8292 10.5804 60.4279C10.6966 60.2243 10.8434 60.0399 11.0158 59.8811C11.0964 59.8043 11.1923 59.7455 11.2972 59.7084C11.4021 59.6713 11.5136 59.6568 11.6245 59.6658C11.7264 59.6767 11.8241 59.7124 11.909 59.7697C12.1492 59.962 12.3104 60.2359 12.3618 60.5392C12.4014 60.6961 12.4295 60.8557 12.4459 61.0167C12.7577 63.9264 13.0686 66.8352 13.3787 69.7432C13.448 70.4014 13.5197 71.0595 13.589 71.7226C13.6459 71.0892 13.7053 70.4434 13.7845 69.8002C13.8951 68.8124 14.0854 67.8352 14.3535 66.8781C14.6874 65.6209 15.3025 64.456 16.1523 63.4711C16.4782 63.0787 16.9064 62.7841 17.3894 62.62C17.5819 62.5625 17.7848 62.549 17.9832 62.5804L18.0822 62.6002C18.333 62.682 18.56 62.824 18.7433 63.0138C18.9266 63.2036 19.0606 63.4353 19.1337 63.6889C19.2735 64.1933 19.3246 64.7183 19.2846 65.2402Z" fill="#92E3A9"/>
<path opacity="0.2" d="M19.2846 65.2402C19.2203 67.9989 17.6121 69.9412 17.4562 77.5419C17.4018 80.2314 17.9115 82.8466 18.0945 85.16C16.9366 83.9971 12.2406 79.3333 11.189 78.1407C10.8004 77.2557 10.3412 76.4035 9.81586 75.5923C8.89051 74.1473 7.81671 72.8088 6.7627 71.4579C6.89096 71.3569 7.03579 71.2791 7.19073 71.2278C7.27068 71.1996 7.35377 71.1813 7.43815 71.1733C7.52928 71.161 7.62166 71.161 7.71279 71.1733C7.79815 71.1831 7.88156 71.2056 7.96021 71.2401C8.40557 71.4307 8.65299 71.9032 8.86824 72.3412C9.40267 73.4496 9.94204 74.5531 10.4814 75.6615C10.0435 73.984 9.60555 72.2941 9.31607 70.5869C9.16141 69.7251 9.05485 68.8553 8.9969 67.9816C8.84406 65.9177 9.13773 63.8452 9.85792 61.905C9.88761 61.8283 9.91978 61.7516 9.95442 61.6773C10.1336 61.2467 10.3428 60.8292 10.5804 60.4279C10.6966 60.2243 10.8434 60.0399 11.0158 59.8811C11.0964 59.8043 11.1923 59.7455 11.2972 59.7084C11.4021 59.6713 11.5136 59.6568 11.6245 59.6658C11.7264 59.6767 11.8241 59.7124 11.909 59.7697C12.1492 59.962 12.3104 60.2359 12.3618 60.5392C12.4014 60.6961 12.4295 60.8557 12.4459 61.0167C12.7577 63.9264 13.0686 66.8352 13.3787 69.7432C13.448 70.4014 13.5197 71.0595 13.589 71.7226C13.6459 71.0892 13.7053 70.4434 13.7845 69.8002C13.8951 68.8124 14.0854 67.8352 14.3535 66.8781C14.6874 65.6209 15.3025 64.456 16.1523 63.4711C16.4782 63.0787 16.9064 62.7841 17.3894 62.62C17.5819 62.5625 17.7848 62.549 17.9832 62.5804L18.0822 62.6002C18.333 62.682 18.56 62.824 18.7433 63.0138C18.9266 63.2036 19.0606 63.4353 19.1337 63.6889C19.2735 64.1933 19.3246 64.7183 19.2846 65.2402Z" fill="white"/>
<path d="M98.13 45.741C98.2042 47.3641 97.2541 49.6379 95.5914 49.3558C95.324 49.303 95.0645 49.2156 94.8195 49.096C95.0669 47.9035 94.4508 46.5229 95.1238 45.5208C95.49 44.9666 96.3881 43.9522 97.0339 43.9052C97.8974 43.8408 98.0805 44.8454 98.13 45.741Z" fill="#92E3A9"/>
<path d="M95.9182 50.6993C95.2724 51.8622 94.4337 52.7628 92.6424 52.5797C92.2416 52.5351 91.86 52.3848 91.5364 52.1443C91.3753 52.0304 91.2408 51.8829 91.1421 51.7121C91.0435 51.5412 90.983 51.351 90.9648 51.1546C90.966 50.9001 91.0432 50.6518 91.1864 50.4415C91.3297 50.2312 91.5326 50.0686 91.769 49.9744C92.2474 49.7871 92.76 49.7028 93.2733 49.727C93.8236 49.7345 94.3691 49.8306 94.8889 50.0115C95.269 50.1798 95.6172 50.4125 95.9182 50.6993Z" fill="#92E3A9"/>
<path d="M94.7451 49.158C95.7348 50.3159 96.7245 51.454 97.6399 52.6342" stroke="#92E3A9" stroke-miterlimit="10"/>
<path d="M103.654 52.7431C103.644 53.6592 103.338 54.5475 102.784 55.2767C102.249 55.9521 101.514 56.3257 100.72 56.0709C100.466 55.9774 100.223 55.8572 99.9951 55.7121C100.193 55.1455 100.171 54.4899 100.173 53.854C100.176 53.2181 100.198 52.6169 100.539 52.1072C100.918 51.5579 101.796 50.5064 102.492 50.5386C103.414 50.588 103.674 51.7757 103.654 52.7431Z" fill="#92E3A9"/>
<path d="M100.827 57.4366C100.448 57.9501 99.9538 58.3678 99.3845 58.6564C98.7241 58.9321 97.9919 58.9851 97.2987 58.8073C96.939 58.7327 96.6063 58.5616 96.3363 58.3125C96.2036 58.2039 96.1 58.0641 96.0348 57.9056C95.9696 57.7471 95.9448 57.5749 95.9627 57.4044C96.0165 57.1627 96.1317 56.9389 96.2973 56.7547C96.4628 56.5705 96.6731 56.4321 96.9078 56.3529C97.3842 56.1882 97.8917 56.1332 98.3923 56.1921C98.9293 56.2347 99.4524 56.3835 99.9313 56.63C100.274 56.8457 100.577 57.1185 100.827 57.4366Z" fill="#92E3A9"/>
<path d="M97.6494 52.6416C98.5253 53.7303 99.3195 54.8684 100.091 56.0313C100.863 57.1941 101.546 58.404 102.172 59.6485" stroke="#92E3A9" stroke-miterlimit="10"/>
<path d="M108.042 60.8683C107.671 62.5854 106.021 64.3866 104.531 63.5899C104.294 63.4538 104.076 63.2874 103.883 63.095C104.035 62.824 104.149 62.5335 104.222 62.2315C104.296 61.9297 104.345 61.6155 104.405 61.3062C104.526 60.6876 104.677 60.0889 105.115 59.6584C105.595 59.1932 106.649 58.3347 107.342 58.4955C108.225 58.738 108.24 59.9429 108.042 60.8683Z" fill="#92E3A9"/>
<path d="M104.397 64.9607C103.39 65.8564 102.309 66.3908 100.686 65.6906C99.9907 65.4036 99.3944 64.7133 99.6072 64.0156C99.6986 63.7841 99.8503 63.5813 100.047 63.4281C100.243 63.275 100.476 63.1771 100.723 63.1447C101.226 63.0728 101.738 63.1142 102.222 63.2659C102.738 63.4201 103.222 63.6665 103.65 63.9933C103.959 64.2648 104.213 64.5932 104.397 64.9607Z" fill="#92E3A9"/>
<path d="M102.163 59.6411C103.424 62.1313 104.5 64.7115 105.38 67.3606" stroke="#92E3A9" stroke-miterlimit="10"/>
<path d="M111.04 69.5898C110.716 70.4688 110.098 71.209 109.291 71.6855C108.536 72.111 107.715 72.1679 107.076 71.631C106.874 71.4527 106.693 71.2518 106.537 71.0323C106.943 70.577 107.156 69.9609 107.363 69.3473C107.571 68.7337 107.784 68.182 108.276 67.8158C108.811 67.4224 109.991 66.7321 110.637 66.9746C111.067 67.1404 111.238 67.4917 111.278 67.9643C111.32 68.517 111.239 69.0724 111.04 69.5898Z" fill="#92E3A9"/>
<path d="M106.636 72.93C105.453 73.5709 104.268 73.7911 102.86 72.8434C102.264 72.4426 101.821 71.7548 102.177 71.208C102.329 71.0184 102.521 70.8643 102.739 70.7566C102.957 70.6489 103.196 70.5901 103.439 70.5845C103.934 70.5691 104.426 70.6744 104.872 70.8913C105.353 71.1141 105.781 71.4362 106.129 71.8364C106.367 72.1649 106.539 72.5362 106.636 72.93Z" fill="#92E3A9"/>
<path d="M105.372 67.3606L106.015 69.3548C106.215 70.0105 106.376 70.6772 106.498 71.3515C106.752 72.7112 106.912 74.0868 106.978 75.4686" stroke="#92E3A9" stroke-miterlimit="10"/>
<path d="M111.753 79.175C111.188 79.9177 110.393 80.4526 109.492 80.6966C108.643 80.902 107.846 80.7288 107.374 80.0385C107.232 79.8098 107.114 79.5669 107.022 79.3136C108.067 78.6653 108.507 77.161 109.64 76.7354C110.271 76.5128 111.605 76.1614 112.147 76.6142C112.874 77.2179 112.347 78.3882 111.753 79.175Z" fill="#92E3A9"/>
<path d="M106.592 81.1617C105.972 81.3145 105.325 81.3204 104.702 81.179C104.027 80.9846 103.428 80.5872 102.987 80.0409C102.52 79.5065 102.29 78.7271 102.787 78.2397C102.979 78.0834 103.206 77.977 103.449 77.93C103.692 77.8829 103.943 77.8967 104.18 77.97C104.658 78.1174 105.097 78.3712 105.464 78.7123C105.86 79.0645 106.18 79.4939 106.404 79.9741C106.543 80.354 106.607 80.7574 106.592 81.1617Z" fill="#92E3A9"/>
<path d="M106.978 75.4686C107.141 78.2273 106.868 80.9944 106.169 83.6681" stroke="#92E3A9" stroke-miterlimit="10"/>
<path d="M109.278 88.9209C108.86 89.1842 108.4 89.3742 107.918 89.4825C107.461 89.5859 106.989 89.6002 106.527 89.5246C105.671 89.3737 105.025 88.859 104.884 88.0401C104.851 87.7742 104.841 87.506 104.855 87.2384C105.463 87.1494 106.01 86.7881 106.562 86.4417C107.113 86.0953 107.643 85.7613 108.254 85.744C108.922 85.744 110.308 85.8158 110.657 86.4591C111.146 87.3201 110.172 88.3568 109.278 88.9209Z" fill="#92E3A9"/>
<path d="M103.711 88.713C103.091 88.5732 102.513 88.2883 102.024 87.8817C101.52 87.4227 101.144 86.8415 100.93 86.1943C100.683 85.5609 100.733 84.8928 101.344 84.685C101.581 84.6318 101.828 84.6306 102.066 84.6814C102.304 84.7322 102.529 84.8339 102.724 84.9794C103.118 85.276 103.437 85.6596 103.657 86.1002C103.896 86.5593 104.027 87.0672 104.038 87.5848C104.015 87.9805 103.903 88.3661 103.711 88.713Z" fill="#92E3A9"/>
<path d="M106.168 83.6681C105.803 84.9858 105.288 86.2575 104.634 87.4586C103.97 88.6451 103.137 89.7286 102.16 90.675" stroke="#92E3A9" stroke-miterlimit="10"/>
<path d="M102.712 96.5364C101.818 96.5909 100.927 96.3965 100.137 95.9748C99.3945 95.5492 98.8997 94.891 99.0308 94.0696C99.0808 93.8038 99.1639 93.5453 99.2782 93.3001C100.481 93.5476 101.861 92.8845 102.878 93.5476C103.246 93.7871 103.596 94.0516 103.927 94.3393C104.286 94.6634 104.543 95.0593 104.536 95.4181C104.63 96.2618 103.623 96.4671 102.712 96.5364Z" fill="#92E3A9"/>
<path d="M97.6844 94.379C96.5215 93.7208 95.6605 92.8647 95.7867 91.1279C95.8387 90.3856 96.3384 89.5567 97.1376 89.4998C97.3925 89.4953 97.643 89.5668 97.8571 89.7052C98.0713 89.8435 98.2394 90.0425 98.3401 90.2767C98.5383 90.746 98.6353 91.2519 98.6246 91.7613C98.6335 92.3042 98.5498 92.8447 98.3772 93.3596C98.2098 93.7385 97.975 94.0838 97.6844 94.379Z" fill="#92E3A9"/>
<path d="M102.168 90.6849C101.936 90.9324 101.673 91.1377 101.411 91.3653L100.595 92.0457L98.984 93.4288C98.452 93.8866 97.9176 94.3418 97.3733 94.7748C97.1036 94.9925 96.829 95.2053 96.5494 95.4107C96.2698 95.616 95.9902 95.8189 95.6982 96.0441" stroke="#92E3A9" stroke-miterlimit="10"/>
<path d="M96.64 101.646C96.2434 101.663 95.846 101.646 95.4524 101.594C95.0223 101.538 94.5992 101.437 94.1906 101.292C93.4063 101.01 92.7283 100.5 92.7061 99.6687C92.7103 99.3945 92.7528 99.1222 92.8322 98.8597C94.0693 98.9116 95.3436 98.1966 96.3802 98.8597C96.9468 99.2011 97.9662 100.082 98.0899 100.686C98.1339 100.843 98.1162 101.011 98.0404 101.156C97.9712 101.285 97.8592 101.385 97.7237 101.44C97.3752 101.564 97.0097 101.633 96.64 101.646Z" fill="#92E3A9"/>
<path d="M91.4644 100.297C90.8038 100.141 90.1976 99.9632 89.7201 99.5549C89.2426 99.1467 88.9111 98.5405 88.8913 97.5088C88.869 96.6428 89.4356 95.4923 90.3213 95.2647C90.5776 95.1984 90.8489 95.2231 91.0889 95.3346C91.3289 95.446 91.5229 95.6373 91.6376 95.8758C91.8615 96.3535 91.9893 96.8705 92.0137 97.3974C92.0557 97.9643 92.03 98.534 91.937 99.0947C91.8338 99.5148 91.6748 99.9192 91.4644 100.297Z" fill="#92E3A9"/>
<path d="M95.6974 96.0441C93.3803 97.8058 91.4881 100.065 90.1602 102.655" stroke="#92E3A9" stroke-miterlimit="10"/>
<path d="M93.4262 107.321C92.6906 107.709 91.8877 107.951 91.0608 108.036C90.2072 108.108 89.4031 107.938 89.0246 107.193C88.9044 106.946 88.8258 106.681 88.792 106.408C89.9227 105.928 90.7862 104.748 92.0085 104.897C92.6666 104.961 93.9655 105.312 94.3391 105.815C94.8266 106.47 94.1066 106.935 93.4262 107.321Z" fill="#92E3A9"/>
<path d="M88.1569 108.311C86.848 108.578 85.5763 108.729 84.6286 106.881C84.4325 106.443 84.3475 105.964 84.3812 105.486C84.4149 105.016 84.6211 104.575 84.9602 104.249C85.1675 104.083 85.4249 103.993 85.6901 103.993C85.9553 103.993 86.2126 104.083 86.42 104.249C86.8256 104.586 87.1617 105 87.4096 105.466C87.6918 105.96 87.9136 106.487 88.0703 107.034C88.1206 107.245 88.1472 107.461 88.1494 107.678C88.1618 107.878 88.1569 108.091 88.1569 108.311Z" fill="#92E3A9"/>
<path d="M90.161 102.655C88.8201 105.234 88.0816 108.083 88.001 110.988" stroke="#92E3A9" stroke-miterlimit="10"/>
<path d="M96.6603 60.0643C96.6656 60.5223 96.5816 60.977 96.4129 61.4028C96.2641 61.8026 96.0332 62.1667 95.735 62.4717C95.1758 63.0358 94.4583 63.2486 93.7704 62.9269C93.549 62.8202 93.3406 62.6882 93.1494 62.5335C93.3546 61.9934 93.439 61.4149 93.3968 60.8387C93.3968 60.2498 93.382 59.656 93.6443 59.1661C93.9461 58.6391 94.6216 57.5653 95.3267 57.6321C95.8018 57.6742 96.1407 58.0428 96.3684 58.5129C96.5718 59.0043 96.6713 59.5325 96.6603 60.0643Z" fill="#92E3A9"/>
<path d="M93.6914 64.1615C93.2582 64.5837 92.7174 64.8789 92.128 65.0151C91.5386 65.1512 90.9232 65.1229 90.3487 64.9334C89.7698 64.7652 89.265 64.4386 89.4531 63.9067C89.6329 63.5042 89.9647 63.1893 90.376 63.0308C90.792 62.869 91.2415 62.8121 91.6848 62.865C92.1567 62.9113 92.6105 63.07 93.0085 63.3277C93.2942 63.5525 93.5273 63.8371 93.6914 64.1615Z" fill="#92E3A9"/>
<path d="M93.0557 62.5854C93.6811 63.7704 94.1375 65.0371 94.4115 66.3487" stroke="#92E3A9" stroke-miterlimit="10"/>
<path d="M99.1174 69.3399C98.6725 70.0824 97.9805 70.6448 97.1627 70.9284C96.4032 71.1758 95.6782 71.0496 95.1982 70.4484C95.0558 70.2479 94.9332 70.0341 94.832 69.81C95.7401 69.1519 96.0048 67.7243 96.9722 67.1948C97.5165 66.9177 98.6794 66.4154 99.2237 66.8014C99.9611 67.3234 99.6023 68.5383 99.1174 69.3399Z" fill="#92E3A9"/>
<path d="M94.5547 71.5198C94.0007 71.6947 93.4134 71.737 92.8401 71.6435C92.2167 71.5008 91.651 71.173 91.217 70.7033C90.9919 70.4901 90.8272 70.2213 90.7395 69.9239C90.6985 69.7961 90.693 69.6596 90.7235 69.5289C90.754 69.3982 90.8194 69.2782 90.9127 69.1817C91.0796 69.035 91.2778 68.9283 91.4921 68.8696C91.7065 68.8108 91.9314 68.8017 92.1498 68.8427C92.5939 68.927 93.0123 69.1133 93.372 69.387C93.7602 69.6699 94.0812 70.0348 94.3122 70.4559C94.4635 70.7907 94.546 71.1525 94.5547 71.5198Z" fill="#92E3A9"/>
<path d="M94.4114 66.3486C94.6595 67.5787 94.7699 68.8326 94.7405 70.0872C94.7057 71.3488 94.5642 72.6052 94.3174 73.843" stroke="#92E3A9" stroke-miterlimit="10"/>
<path d="M97.7263 78.1431C97.0691 78.6643 96.2633 78.9632 95.4253 78.9967C94.636 79.0091 93.9407 78.7122 93.6735 78.0071C93.5885 77.7752 93.5344 77.5331 93.5127 77.2871C94.5692 76.9184 95.2817 75.6863 96.3877 75.5551C96.9914 75.4933 98.2434 75.471 98.6269 75.9931C99.1341 76.6883 98.4215 77.5939 97.7263 78.1431Z" fill="#92E3A9"/>
<path d="M92.7588 78.8681C91.5365 78.8904 90.4652 78.6009 89.765 77.1782C89.4705 76.5745 89.4359 75.7704 89.9951 75.4265C90.1962 75.3229 90.4205 75.2727 90.6466 75.2804C90.8727 75.2882 91.0931 75.3539 91.2866 75.471C91.6787 75.7079 92.0106 76.0322 92.2565 76.4187C92.5327 76.8223 92.7269 77.2762 92.828 77.7547C92.8735 78.127 92.85 78.5044 92.7588 78.8681Z" fill="#92E3A9"/>
<path d="M94.3172 73.843C93.7874 76.3341 93.0031 78.7642 91.9766 81.0949" stroke="#92E3A9" stroke-miterlimit="10"/>
<path d="M94.7135 85.739C94.0042 86.1034 93.2113 86.2741 92.4149 86.2338C91.638 86.1843 90.9502 85.88 90.7201 85.1501C90.6531 84.9084 90.6198 84.6586 90.6211 84.4078C91.7048 84.1283 92.5832 83.0569 93.6916 83.1435C94.2953 83.1955 95.5176 83.4305 95.8145 83.9773C96.2079 84.7122 95.4236 85.3579 94.7135 85.739Z" fill="#92E3A9"/>
<path d="M89.7624 85.9938C88.5475 85.9938 87.4143 85.8256 86.8477 84.1505C86.6003 83.4454 86.7315 82.4631 87.3649 82.1143C87.574 82.0144 87.8078 81.9781 88.0373 82.0098C88.2669 82.0414 88.4821 82.1397 88.6564 82.2924C89.0079 82.5998 89.2875 82.9808 89.4754 83.4083C89.6907 83.8636 89.8311 84.3507 89.891 84.8507C89.9072 85.2361 89.8638 85.6217 89.7624 85.9938Z" fill="#92E3A9"/>
<path d="M91.9769 81.095C90.9872 83.4504 89.7921 85.7786 89.082 88.332" stroke="#92E3A9" stroke-miterlimit="10"/>
<path d="M92.8992 91.7934C92.3198 92.2431 91.6759 92.6026 90.9891 92.8598C90.2765 93.1072 89.5046 93.2013 88.9949 92.6347C88.8308 92.4422 88.6996 92.224 88.6064 91.9889C89.0617 91.6475 89.3957 91.1724 89.7866 90.7741C90.1776 90.3757 90.5932 90.0541 91.1375 90.0046C91.7363 89.9403 92.9635 90.0194 93.3891 90.3881C93.9532 90.8631 93.4138 91.3604 92.8992 91.7934Z" fill="#92E3A9"/>
<path d="M88.5301 93.8395C88.0006 94.1538 87.4909 94.4408 86.9218 94.4754C86.3528 94.51 85.7218 94.2775 85.0761 93.4857C84.5194 92.8202 84.2447 91.541 84.7544 90.8383C84.8952 90.6378 85.1034 90.4947 85.3411 90.4352C85.5787 90.3757 85.8298 90.4037 86.0484 90.5142C86.4789 90.7411 86.8606 91.0505 87.1717 91.4247C87.5291 91.8184 87.845 92.2479 88.1144 92.7063C88.2904 93.0692 88.4297 93.4489 88.5301 93.8395Z" fill="#92E3A9"/>
<path d="M89.0821 88.3394C88.7135 89.6218 88.5229 90.9489 88.5155 92.2832C88.5155 93.6243 87.7089 96.5339 88.8619 106.079" stroke="#92E3A9" stroke-miterlimit="10"/>
<path d="M18.292 85.9121L31.0787 68.5927C33.2733 63.1495 32.9912 60.0468 33.5677 54.6085C34.0626 49.8333 35.3689 45.8845 35.5001 44.2342C35.5471 43.6528 36.0196 36.6582 36.0295 36.0693C36.0469 35.2999 37.0192 33.4788 37.2023 32.7292C38.6868 26.4051 39.8547 25.4575 41.5149 26.415C41.7623 26.556 44.4097 27.8005 42.4303 34.9881C41.9775 36.6359 42.5095 47.0647 42.5095 47.0647L69.5698 36.1485V63.1371L57.6343 76.9036C55.7655 78.921 53.4881 80.5169 50.9539 81.5848C49.8034 82.0796 48.4327 82.2033 48.3412 82.2899C47.6608 82.9381 40.1318 93.8321 36.126 99.6563C29.5026 95.089 23.4235 90.5092 18.292 85.9121Z" fill="white"/>
<path d="M42.5096 47.0622L42.1904 47.1909C42.1904 47.1909 41.5546 36.6335 42.0073 34.9857C43.1009 31.0096 42.9104 28.8546 42.4774 27.6967C42.376 29.4286 41.9455 34.3201 40.2507 36.3564C42.856 40.0182 41.4432 47.0796 40.5624 48.48C40.5624 48.48 41.6906 57.2337 43.9248 63.3252C43.0861 62.9936 42.2127 62.9441 41.7154 63.6641C40.7059 65.1214 42.0346 68.5532 42.4923 70.0179C42.9871 71.5964 43.482 73.1758 43.9768 74.756C46.9244 74.397 49.8924 74.2317 52.8617 74.2611L52.78 74.2958C48.5318 75.9436 43.7393 76.5918 39.4045 75.1989C38.7166 74.5482 38.0313 73.8232 37.9917 73.8084C36.8412 73.4298 37.2494 75.2929 36.9624 76.1638C36.574 77.4009 35.8862 78.5242 35.2058 79.6277L28.3027 90.8581C34.3126 84.581 36.913 80.2438 40.649 76.3395L41.7228 77.2871H41.6981C40.7826 77.4454 40.3694 79.3333 40.0403 80.0656C38.9731 82.4508 37.8416 84.8045 36.6457 87.127L40.2036 82.4804C41.2255 81.1419 42.4304 79.7069 44.0164 79.3085L44.7586 79.9617C45.0209 80.1943 45.2881 80.4269 45.5603 80.652C44.3752 81.8891 39.5158 90.341 33.8821 97.8923L36.1559 99.644C40.1616 93.8197 47.6906 82.9258 48.371 82.2776C48.5308 82.2186 48.6968 82.1779 48.8658 82.1563L48.8807 82.1266H49.0044C49.6809 82.0067 50.3439 81.8202 50.9837 81.5699C53.5179 80.5021 55.7953 78.9062 57.6641 76.8887L64.5102 68.9713C64.9407 68.1771 65.0817 67.3829 63.8174 68.0187C63.5972 68.1301 63.3844 68.2662 63.1692 68.3824C63.0991 68.3062 63.022 68.2366 62.9391 68.1746C62.4047 67.7936 61.702 67.7664 61.0438 67.801C58.921 67.9173 56.8575 68.5433 54.747 68.7907C52.6365 69.0381 50.3405 68.8773 48.6407 67.5981C47.6634 66.8559 46.9706 65.8241 46.1442 64.9161C47.2976 58.3497 47.7743 51.6823 47.5669 45.0185L42.5096 47.0598V47.0622Z" fill="#92E3A9"/>
<path opacity="0.5" d="M42.5096 47.0622L42.1904 47.1909C42.1904 47.1909 41.5546 36.6335 42.0073 34.9857C43.1009 31.0096 42.9104 28.8546 42.4774 27.6967C42.376 29.4286 41.9455 34.3201 40.2507 36.3564C42.856 40.0182 41.4432 47.0796 40.5624 48.48C40.5624 48.48 41.6906 57.2337 43.9248 63.3252C43.0861 62.9936 42.2127 62.9441 41.7154 63.6641C40.7059 65.1214 42.0346 68.5532 42.4923 70.0179C42.9871 71.5964 43.482 73.1758 43.9768 74.756C46.9244 74.397 49.8924 74.2317 52.8617 74.2611L52.78 74.2958C48.5318 75.9436 43.7393 76.5918 39.4045 75.1989C38.7166 74.5482 38.0313 73.8232 37.9917 73.8084C36.8412 73.4298 37.2494 75.2929 36.9624 76.1638C36.574 77.4009 35.8862 78.5242 35.2058 79.6277L28.3027 90.8581C34.3126 84.581 36.913 80.2438 40.649 76.3395L41.7228 77.2871H41.6981C40.7826 77.4454 40.3694 79.3333 40.0403 80.0656C38.9731 82.4508 37.8416 84.8045 36.6457 87.127L40.2036 82.4804C41.2255 81.1419 42.4304 79.7069 44.0164 79.3085L44.7586 79.9617C45.0209 80.1943 45.2881 80.4269 45.5603 80.652C44.3752 81.8891 39.5158 90.341 33.8821 97.8923L36.1559 99.644C40.1616 93.8197 47.6906 82.9258 48.371 82.2776C48.5308 82.2186 48.6968 82.1779 48.8658 82.1563L48.8807 82.1266H49.0044C49.6809 82.0067 50.3439 81.8202 50.9837 81.5699C53.5179 80.5021 55.7953 78.9062 57.6641 76.8887L64.5102 68.9713C64.9407 68.1771 65.0817 67.3829 63.8174 68.0187C63.5972 68.1301 63.3844 68.2662 63.1692 68.3824C63.0991 68.3062 63.022 68.2366 62.9391 68.1746C62.4047 67.7936 61.702 67.7664 61.0438 67.801C58.921 67.9173 56.8575 68.5433 54.747 68.7907C52.6365 69.0381 50.3405 68.8773 48.6407 67.5981C47.6634 66.8559 46.9706 65.8241 46.1442 64.9161C47.2976 58.3497 47.7743 51.6823 47.5669 45.0185L42.5096 47.0598V47.0622Z" fill="white"/>
<path d="M18.292 85.9121L31.0787 68.5927C33.2733 63.1495 32.9912 60.0468 33.5677 54.6085C34.0626 49.8333 35.3689 45.8845 35.5001 44.2342C35.5471 43.6528 36.0196 36.6582 36.0295 36.0693C36.0469 35.2999 37.0192 33.4788 37.2023 32.7292C38.6868 26.4051 39.8547 25.4575 41.5149 26.415C41.7623 26.556 44.4097 27.8005 42.4303 34.9881C41.9775 36.6359 42.5095 47.0647 42.5095 47.0647L69.5698 36.1485V63.1371L57.6343 76.9036C55.7655 78.921 53.4881 80.5169 50.9539 81.5848C49.8034 82.0796 48.4327 82.2033 48.3412 82.2899C47.6608 82.9381 40.1318 93.8321 36.126 99.6563" stroke="#263238" stroke-miterlimit="10"/>
<path d="M71.9298 35.6067C72.1957 35.483 72.4683 35.374 72.7463 35.2801C73.7359 34.9461 75.1289 34.7853 75.9924 35.389C76.9598 36.0521 77.5165 38.3853 75.2848 40.0059C73.9459 40.9953 72.4805 41.8008 70.9277 42.4009C70.5862 42.5402 70.2181 42.6022 69.8498 42.5825C69.4815 42.5628 69.1222 42.4619 68.7974 42.2871C68.4065 42.0694 68.075 41.7477 68.0552 41.2801C67.9587 38.5585 69.4605 36.7572 71.9298 35.6067Z" fill="white"/>
<mask id="mask0_216_673" style="mask-type:luminance" maskUnits="userSpaceOnUse" x="68" y="34" width="9" height="9">
<path d="M71.9298 35.6067C72.1957 35.483 72.4683 35.374 72.7463 35.2801C73.7359 34.9461 75.1289 34.7853 75.9924 35.389C76.9598 36.0521 77.5165 38.3853 75.2848 40.0059C73.9459 40.9953 72.4805 41.8008 70.9277 42.4009C70.5862 42.5402 70.2181 42.6022 69.8498 42.5825C69.4815 42.5628 69.1222 42.4619 68.7974 42.2871C68.4065 42.0694 68.075 41.7477 68.0552 41.2801C67.9587 38.5585 69.4605 36.7572 71.9298 35.6067Z" fill="white"/>
</mask>
<g mask="url(#mask0_216_673)">
<path d="M75.7452 36.7398C74.8075 34.4339 71.7741 35.0574 71.1457 37.1951C70.8389 38.2417 70.9898 39.3625 71.1457 40.4413C71.2273 41.0103 71.3931 41.6784 71.9151 41.8862C71.9565 41.9 71.9987 41.9116 72.0413 41.9208C72.9159 41.5144 73.7601 41.0455 74.5675 40.518C74.8847 40.218 75.1624 39.8787 75.3939 39.5085C75.8986 38.6846 76.1064 37.633 75.7452 36.7398Z" fill="#92E3A9"/>
<path opacity="0.5" d="M75.7452 36.7398C74.8075 34.4339 71.7741 35.0574 71.1457 37.1951C70.8389 38.2417 70.9898 39.3625 71.1457 40.4413C71.2273 41.0103 71.3931 41.6784 71.9151 41.8862C71.9565 41.9 71.9987 41.9116 72.0413 41.9208C72.9159 41.5144 73.7601 41.0455 74.5675 40.518C74.8847 40.218 75.1624 39.8787 75.3939 39.5085C75.8986 38.6846 76.1064 37.633 75.7452 36.7398Z" fill="white"/>
</g>
<path d="M71.9298 35.6067C72.1957 35.483 72.4683 35.374 72.7463 35.2801C73.7359 34.9461 75.1289 34.7853 75.9924 35.389C76.9598 36.0521 77.5165 38.3853 75.2848 40.0059C73.9459 40.9953 72.4805 41.8008 70.9277 42.4009C70.5862 42.5402 70.2181 42.6022 69.8498 42.5825C69.4815 42.5628 69.1222 42.4619 68.7974 42.2871C68.4065 42.0694 68.075 41.7477 68.0552 41.2801C67.9587 38.5585 69.4605 36.7572 71.9298 35.6067Z" stroke="#263238" stroke-miterlimit="10"/>
<path d="M71.5786 48.2128L67.6396 50.1922V44.1551L72.4446 41.9283C72.4446 41.9283 69.9976 45.2388 71.5786 48.2128Z" stroke="#263238" stroke-miterlimit="10"/>
<path d="M70.2351 50.5088L67.6396 51.9488V58.6959L71.8978 57.1248L72.4446 50.9245C72.4446 50.9245 71.7815 50.6399 70.2351 50.5088Z" stroke="#263238" stroke-miterlimit="10"/>
<path d="M72.0879 19.9945V68.4245C72.0873 69.3892 71.7045 70.3143 71.0233 70.9974C70.3421 71.6804 69.418 72.0657 68.4533 72.069H46.1855C45.2191 72.0684 44.2925 71.6842 43.6092 71.0008C42.9259 70.3175 42.5417 69.3909 42.541 68.4245V19.9945C42.541 19.0279 42.925 18.1009 43.6085 17.4174C44.2919 16.7339 45.2189 16.35 46.1855 16.35H68.4533C68.718 16.3498 68.9818 16.3789 69.2401 16.4366C70.0485 16.6177 70.7711 17.0688 71.2887 17.7155C71.8064 18.3623 72.0883 19.1661 72.0879 19.9945Z" fill="#263238"/>
<path d="M66.9471 17.8123H47.6953C45.6825 17.8123 44.0508 19.444 44.0508 21.4568V66.9252C44.0508 68.938 45.6825 70.5697 47.6953 70.5697H66.9471C68.9599 70.5697 70.5916 68.938 70.5916 66.9252V21.4568C70.5916 19.444 68.9599 17.8123 66.9471 17.8123Z" fill="#92E3A9"/>
<path d="M50.5527 17.8123H64.6978V18.2254C64.6978 18.9309 64.4175 19.6074 63.9187 20.1062C63.4199 20.605 62.7434 20.8852 62.038 20.8852H53.2125C52.5071 20.8852 51.8306 20.605 51.3318 20.1062C50.833 19.6074 50.5527 18.9309 50.5527 18.2254V17.8123Z" fill="#263238"/>
<path d="M52.9881 19.9178C53.3666 19.9178 53.6734 19.611 53.6734 19.2325C53.6734 18.854 53.3666 18.5471 52.9881 18.5471C52.6096 18.5471 52.3027 18.854 52.3027 19.2325C52.3027 19.611 52.6096 19.9178 52.9881 19.9178Z" fill="white" stroke="#263238" stroke-miterlimit="10"/>
<path d="M59.5441 18.6831H55.7066C55.38 18.6831 55.1152 18.9479 55.1152 19.2744V19.46C55.1152 19.7866 55.38 20.0513 55.7066 20.0513H59.5441C59.8706 20.0513 60.1354 19.7866 60.1354 19.46V19.2744C60.1354 18.9479 59.8706 18.6831 59.5441 18.6831Z" fill="white" stroke="#263238" stroke-miterlimit="10"/>
<path d="M60.7152 40.2434C62.2579 38.3699 61.9898 35.6007 60.1164 34.058C58.2429 32.5153 55.4736 32.7834 53.931 34.6568C52.3883 36.5302 52.6564 39.2995 54.5298 40.8422C56.4032 42.3849 59.1725 42.1168 60.7152 40.2434Z" stroke="#263238" stroke-miterlimit="10"/>
<path d="M56.563 39.9168L54.3486 37.5267L54.893 37.0219L56.5952 38.8578L60.0492 35.5325L60.5638 36.0669L56.563 39.9168Z" fill="#263238"/>
<path d="M55.9438 31.4797L55.5059 30.1486H55.7533L56.0774 31.1679L56.404 30.1486H56.6217L56.1813 31.4797V32.2219H55.9512L55.9438 31.4797Z" fill="#263238"/>
<path d="M57.5205 31.069V31.2769H57.0133V32.0191H57.6368V32.2294H56.7832V30.1536H57.6368V30.3639H57.0133V31.074L57.5205 31.069Z" fill="#263238"/>
<path d="M58.7494 30.6459V30.7028H58.5292V30.6335C58.5292 30.448 58.46 30.3366 58.2818 30.3366C58.1037 30.3366 58.0344 30.448 58.0344 30.631C58.0344 31.0987 58.7321 31.1432 58.7321 31.7271C58.7321 32.0413 58.5812 32.2467 58.2645 32.2467C57.9478 32.2467 57.7969 32.0413 57.7969 31.7271V31.6108H58.0146V31.742C58.0146 31.9275 58.0913 32.0389 58.262 32.0389C58.4327 32.0389 58.5094 31.9275 58.5094 31.742C58.5094 31.2793 57.8142 31.2348 57.8142 30.6484C57.8142 30.3292 57.9626 30.1288 58.2744 30.1288C58.5861 30.1288 58.7494 30.3317 58.7494 30.6459Z" fill="#263238"/>
<path d="M57.5526 62.1104C61.3938 62.1104 64.5076 58.9966 64.5076 55.1554C64.5076 51.3143 61.3938 48.2004 57.5526 48.2004C53.7115 48.2004 50.5977 51.3143 50.5977 55.1554C50.5977 58.9966 53.7115 62.1104 57.5526 62.1104Z" fill="#263238"/>
<path d="M60.1182 50.4396L62.2238 52.5451L59.6828 55.0861L62.2238 57.6271L60.1182 59.7327L57.5772 57.1917L55.0362 59.7327L52.9307 57.6271L55.4717 55.0861L52.9307 52.5451L55.0362 50.4396L57.5772 52.9781L60.1182 50.4396Z" fill="#92E3A9"/>
<path d="M54.2143 45.0729V45.3377H53.905V45.0581C53.905 44.7934 53.7987 44.6325 53.5587 44.6325C53.3187 44.6325 53.2147 44.7934 53.2147 45.0581V46.6119C53.2147 46.8766 53.3236 47.0375 53.5587 47.0375C53.7937 47.0375 53.905 46.8766 53.905 46.6119V46.2309H54.2143V46.5946C54.2143 47.0399 54.004 47.3368 53.5512 47.3368C53.0985 47.3368 52.8906 47.0424 52.8906 46.5946V45.0729C52.8906 44.6276 53.1009 44.3307 53.5512 44.3307C54.0015 44.3307 54.2143 44.6276 54.2143 45.0729Z" fill="#263238"/>
<path d="M54.8454 46.7035L54.7315 47.2949H54.4297L54.9913 44.353H55.4664L56.0305 47.2949H55.7014L55.5876 46.7035H54.8454ZM54.8874 46.4215H55.5431L55.2115 44.7242L54.8874 46.4215Z" fill="#263238"/>
<path d="M56.5776 47.3047H56.2832V44.3629H56.6989L57.3793 46.4907V44.3629H57.6688V47.3047H57.3199L56.5776 44.927V47.3047Z" fill="#263238"/>
<path d="M59.2993 45.0729V45.3377H58.9875V45.0581C58.9875 44.7934 58.8836 44.6325 58.6436 44.6325C58.4036 44.6325 58.2997 44.7934 58.2997 45.0581V46.6119C58.2997 46.8766 58.4086 47.0375 58.6436 47.0375C58.8787 47.0375 58.9875 46.8766 58.9875 46.6119V46.2309H59.2993V46.5946C59.2993 47.0399 59.089 47.3368 58.6362 47.3368C58.1834 47.3368 57.9756 47.0424 57.9756 46.5946V45.0729C57.9756 44.6276 58.1859 44.3307 58.6362 44.3307C59.0865 44.3307 59.2993 44.6276 59.2993 45.0729Z" fill="#263238"/>
<path d="M60.6501 45.6668V45.9613H59.9301V47.0078H60.8134V47.3047H59.6035V44.3629H60.8134V44.6623H59.9301V45.6668H60.6501Z" fill="#263238"/>
<path d="M61.1152 47.3047V44.3629H61.4443V47.0078H62.2831V47.3047H61.1152Z" fill="#263238"/>
<path d="M53.5586 24.5174C53.8852 24.5174 54.0238 24.7104 54.0238 25.0122V25.2596C54.0238 25.5887 53.8704 25.7545 53.5289 25.7545H53.3236V26.5734H53.1133V24.4951L53.5586 24.5174ZM53.5413 25.5689C53.712 25.5689 53.7887 25.4897 53.7887 25.2893V25.0147C53.7887 24.8242 53.7195 24.7302 53.5413 24.7302H53.3186V25.5689H53.5413Z" fill="#263238"/>
<path d="M54.6769 24.5173C55.0035 24.5173 55.142 24.6856 55.142 24.9924V25.1631C55.142 25.3907 55.0604 25.5342 54.8946 25.5887C55.0851 25.6456 55.1569 25.8014 55.1569 26.0216V26.3458C55.1501 26.4305 55.1646 26.5155 55.1989 26.5932H54.9639C54.9313 26.515 54.9178 26.4302 54.9243 26.3458V26.0192C54.9243 25.7718 54.8154 25.7099 54.6224 25.7099H54.4591V26.5981H54.2266V24.5198L54.6769 24.5173ZM54.6175 25.507C54.8031 25.507 54.9119 25.4476 54.9119 25.2225V25.0245C54.9119 24.8365 54.8451 24.74 54.6645 24.74H54.4393V25.507H54.6175Z" fill="#263238"/>
<path d="M55.3682 25.0196C55.3682 24.7029 55.5265 24.4976 55.8432 24.4976C56.1599 24.4976 56.3207 24.7029 56.3207 25.0196V26.0934C56.3303 26.1604 56.325 26.2287 56.305 26.2933C56.2851 26.358 56.2511 26.4174 56.2054 26.4673C56.1597 26.5173 56.1036 26.5564 56.0409 26.5821C55.9783 26.6077 55.9108 26.6191 55.8432 26.6155C55.5265 26.6155 55.3682 26.4076 55.3682 26.0934V25.0196ZM55.5958 26.1058C55.5958 26.2963 55.6774 26.4052 55.8432 26.4052C56.009 26.4052 56.0906 26.2963 56.0906 26.1058V25.0072C56.0906 24.8217 56.0139 24.7079 55.8432 24.7079C55.6725 24.7079 55.5958 24.8217 55.5958 25.0072V26.1058Z" fill="#263238"/>
<path d="M57.4562 25.0196V25.2077H57.2385V25.0073C57.2385 24.8217 57.1643 24.7079 56.9911 24.7079C56.8179 24.7079 56.7436 24.8217 56.7436 25.0073V26.1058C56.7436 26.2938 56.8203 26.4052 56.9911 26.4052C57.1618 26.4052 57.2385 26.2938 57.2385 26.1058V25.8361H57.4562V26.0835C57.4562 26.3978 57.3102 26.6056 56.9886 26.6056C56.6669 26.6056 56.5234 26.3978 56.5234 26.0835V25.0097C56.5234 24.6955 56.6719 24.4877 56.9886 24.4877C57.3053 24.4877 57.4562 24.7054 57.4562 25.0196Z" fill="#263238"/>
<path d="M58.4087 25.4377V25.6455H57.899V26.3878H58.5225V26.5981H57.6689V24.5198H58.5225V24.7326H57.899V25.4402L58.4087 25.4377Z" fill="#263238"/>
<path d="M59.4749 25.4377V25.6455H58.9801V26.3878H59.6036V26.5981H58.75V24.5198H59.6036V24.7326H58.9801V25.4402L59.4749 25.4377Z" fill="#263238"/>
<path d="M60.2888 24.5173C60.6129 24.5173 60.7614 24.7153 60.7614 25.0344V26.081C60.7614 26.4002 60.6129 26.5957 60.2888 26.5957H59.7939V24.5173H60.2888ZM60.2888 26.3854C60.4546 26.3854 60.5362 26.2814 60.5362 26.0909V25.0221C60.5362 24.834 60.4546 24.7301 60.2888 24.7301H60.0414V26.3854H60.2888Z" fill="#263238"/>
<path d="M62.3255 25.022C62.3255 25.5169 61.9148 25.6233 61.9148 26.0117C61.9147 26.0501 61.9197 26.0884 61.9296 26.1255H61.7218C61.7114 26.0868 61.7064 26.0468 61.7069 26.0068C61.7069 25.5515 62.0954 25.4847 62.0954 25.0171C62.0954 24.829 62.0261 24.7103 61.848 24.7103C61.6698 24.7103 61.6005 24.8315 61.6005 25.0171V25.2002H61.3828V25.0294C61.3828 24.7152 61.5263 24.5024 61.843 24.5024C62.1597 24.5024 62.3255 24.7053 62.3255 25.022ZM61.9321 26.3086V26.5956H61.7119V26.3086H61.9321Z" fill="#263238"/>
<path opacity="0.2" d="M51.8024 16.3574L42.5068 28.3771V20.0019C42.5068 19.0353 42.8908 18.1083 43.5743 17.4249C44.2578 16.7414 45.1848 16.3574 46.1513 16.3574H51.8024Z" fill="white"/>
<path opacity="0.2" d="M69.1965 16.3649L42.5098 49.8062V36.8661L59.6065 16.2709H68.4122C68.6763 16.2733 68.9393 16.3049 69.1965 16.3649Z" fill="white"/>
<path opacity="0.2" d="M72.0887 53.5001V59.1017L70.5943 60.9351L62.7362 70.5696L61.514 72.069H56.667L57.9115 70.5696L70.5943 55.2989L72.0887 53.5001Z" fill="white"/>
<path d="M70.3907 45.2461C70.3216 45.6638 70.3442 46.0915 70.457 46.4995C70.5698 46.9075 70.7701 47.2861 71.0439 47.609C71.6623 48.3209 72.5106 48.7937 73.4414 48.9451C74.1713 49.0712 75.0298 48.9797 75.5024 48.4898C75.9156 48.0642 75.9304 47.463 75.923 46.9137C75.9106 45.5678 75.5642 43.7245 73.7135 43.3063C72.1919 42.96 70.6134 43.9991 70.3907 45.2461Z" fill="white"/>
<mask id="mask1_216_673" style="mask-type:luminance" maskUnits="userSpaceOnUse" x="70" y="43" width="6" height="6">
<path d="M70.3907 45.2461C70.3216 45.6638 70.3442 46.0915 70.457 46.4995C70.5698 46.9075 70.7701 47.2861 71.0439 47.609C71.6623 48.3209 72.5106 48.7937 73.4414 48.9451C74.1713 49.0712 75.0298 48.9797 75.5024 48.4898C75.9156 48.0642 75.9304 47.463 75.923 46.9137C75.9106 45.5678 75.5642 43.7245 73.7135 43.3063C72.1919 42.96 70.6134 43.9991 70.3907 45.2461Z" fill="white"/>
</mask>
<g mask="url(#mask1_216_673)">
<path d="M70.3883 44.8354C70.2697 45.3037 70.2717 45.7944 70.3941 46.2617C70.5166 46.729 70.7555 47.1576 71.0885 47.5075C71.7673 48.202 72.6577 48.6511 73.6196 48.7842C73.8275 48.3834 73.5058 47.9306 73.2633 47.5471C72.8343 46.8709 72.6259 46.0781 72.6671 45.2783C72.6869 44.9195 72.8254 44.489 73.1792 44.4197C73.4935 44.3579 73.7829 44.6449 73.877 44.9517C73.938 45.2656 73.9703 45.5845 73.9734 45.9043C73.9782 46.0657 74.0267 46.2228 74.1139 46.3588C74.2011 46.4948 74.3236 46.6045 74.4683 46.6762C74.5387 45.9517 74.4543 45.2205 74.2209 44.5311C73.4489 42.7002 70.9277 42.9921 70.3883 44.8354Z" fill="#92E3A9"/>
<path opacity="0.5" d="M70.3883 44.8354C70.2697 45.3037 70.2717 45.7944 70.3941 46.2617C70.5166 46.729 70.7555 47.1576 71.0885 47.5075C71.7673 48.202 72.6577 48.6511 73.6196 48.7842C73.8275 48.3834 73.5058 47.9306 73.2633 47.5471C72.8343 46.8709 72.6259 46.0781 72.6671 45.2783C72.6869 44.9195 72.8254 44.489 73.1792 44.4197C73.4935 44.3579 73.7829 44.6449 73.877 44.9517C73.938 45.2656 73.9703 45.5845 73.9734 45.9043C73.9782 46.0657 74.0267 46.2228 74.1139 46.3588C74.2011 46.4948 74.3236 46.6045 74.4683 46.6762C74.5387 45.9517 74.4543 45.2205 74.2209 44.5311C73.4489 42.7002 70.9277 42.9921 70.3883 44.8354Z" fill="white"/>
</g>
<path d="M70.3907 45.2461C70.3216 45.6638 70.3442 46.0915 70.457 46.4995C70.5698 46.9075 70.7701 47.2861 71.0439 47.609C71.6623 48.3209 72.5106 48.7937 73.4414 48.9451C74.1713 49.0712 75.0298 48.9797 75.5024 48.4898C75.9156 48.0642 75.9304 47.463 75.923 46.9137C75.9106 45.5678 75.5642 43.7245 73.7135 43.3063C72.1919 42.96 70.6134 43.9991 70.3907 45.2461Z" stroke="#263238" stroke-miterlimit="10"/>
<path d="M71.9646 60.7421L69.2306 62.8106C69.2306 62.8106 67.5333 65.5817 70.824 66.2992L73.6495 65.4852C74.3172 65.3038 74.9092 64.9133 75.3389 64.371C75.7685 63.8287 76.0132 63.1631 76.0371 62.4716C76.0544 61.1429 75.2553 59.7376 71.9819 59.4209L71.9646 60.7421Z" fill="white"/>
<mask id="mask2_216_673" style="mask-type:luminance" maskUnits="userSpaceOnUse" x="68" y="59" width="9" height="8">
<path d="M71.9646 60.7421L69.2306 62.8106C69.2306 62.8106 67.5333 65.5817 70.824 66.2992L73.6495 65.4852C74.3172 65.3038 74.9092 64.9133 75.3389 64.371C75.7685 63.8287 76.0132 63.1631 76.0371 62.4716C76.0544 61.1429 75.2553 59.7376 71.9819 59.4209L71.9646 60.7421Z" fill="white"/>
</mask>
<g mask="url(#mask2_216_673)">
<path d="M71.3409 61.905C71.3659 62.1334 71.4457 62.3524 71.5734 62.5434C72.1317 63.5733 72.4846 64.7018 72.6126 65.8662C72.5211 65.0275 72.9862 63.9438 72.9615 63.0432C72.9367 62.1425 72.8526 60.9623 72.38 60.1929C72.1079 60.6481 71.3335 61.3409 71.3409 61.905Z" fill="#92E3A9"/>
<path opacity="0.5" d="M71.3409 61.905C71.3659 62.1334 71.4457 62.3524 71.5734 62.5434C72.1317 63.5733 72.4846 64.7018 72.6126 65.8662C72.5211 65.0275 72.9862 63.9438 72.9615 63.0432C72.9367 62.1425 72.8526 60.9623 72.38 60.1929C72.1079 60.6481 71.3335 61.3409 71.3409 61.905Z" fill="white"/>
</g>
<path d="M71.9646 60.7421L69.2306 62.8106C69.2306 62.8106 67.5333 65.5817 70.824 66.2992L73.6495 65.4852C74.3172 65.3038 74.9092 64.9133 75.3389 64.371C75.7685 63.8287 76.0132 63.1631 76.0371 62.4716C76.0544 61.1429 75.2553 59.7376 71.9819 59.4209L71.9646 60.7421Z" stroke="#263238" stroke-miterlimit="10"/>
<path d="M70.9827 52.6416L68.4541 55.3632C68.4541 55.3632 67.1576 58.6564 70.8219 58.7999L73.6845 57.4019C74.3966 57.0658 75.0187 56.5655 75.5 55.9423C75.9813 55.3191 76.3079 54.5907 76.4532 53.8168C76.7253 52.2333 76.1266 50.6276 72.3584 50.922L70.9827 52.6416Z" fill="white"/>
<mask id="mask3_216_673" style="mask-type:luminance" maskUnits="userSpaceOnUse" x="68" y="50" width="9" height="9">
<path d="M70.9827 52.6416L68.4541 55.3632C68.4541 55.3632 67.1576 58.6564 70.8219 58.7999L73.6845 57.4019C74.3966 57.0658 75.0187 56.5655 75.5 55.9423C75.9813 55.3191 76.3079 54.5907 76.4532 53.8168C76.7253 52.2333 76.1266 50.6276 72.3584 50.922L70.9827 52.6416Z" fill="white"/>
</mask>
<g mask="url(#mask3_216_673)">
<path d="M71.1609 58.4931C71.4084 58.7108 71.8339 58.555 71.9997 58.268C72.1382 57.9653 72.1747 57.6258 72.1036 57.3005C72.0417 56.8057 71.4083 53.4235 70.6389 53.8367C70.1861 54.0841 71.0719 57.8869 71.1609 58.4931Z" fill="#92E3A9"/>
<path opacity="0.5" d="M71.1609 58.4931C71.4084 58.7108 71.8339 58.555 71.9997 58.268C72.1382 57.9653 72.1747 57.6258 72.1036 57.3005C72.0417 56.8057 71.4083 53.4235 70.6389 53.8367C70.1861 54.0841 71.0719 57.8869 71.1609 58.4931Z" fill="white"/>
</g>
<path d="M70.9827 52.6416L68.4541 55.3632C68.4541 55.3632 67.1576 58.6564 70.8219 58.7999L73.6845 57.4019C74.3966 57.0658 75.0187 56.5655 75.5 55.9423C75.9813 55.3191 76.3079 54.5907 76.4532 53.8168C76.7253 52.2333 76.1266 50.6276 72.3584 50.922L70.9827 52.6416Z" stroke="#263238" stroke-miterlimit="10"/>
<path d="M70.8046 54.6506C70.6086 54.6855 70.4226 54.7627 70.2596 54.8769C70.0966 54.9912 69.9606 55.1397 69.861 55.312C69.7614 55.4844 69.7007 55.6764 69.6831 55.8747C69.6655 56.073 69.6915 56.2727 69.7592 56.4599C69.8269 56.647 69.9347 56.8172 70.075 56.9583C70.2154 57.0995 70.3849 57.2082 70.5717 57.277C70.7585 57.3458 70.958 57.3729 71.1564 57.3564C71.3548 57.34 71.5472 57.2804 71.7201 57.1817" stroke="#263238" stroke-miterlimit="10"/>
<path d="M71.6508 62.9021C70.8665 62.7759 70.1143 63.6443 70.3568 64.4089C70.5993 65.1734 71.7226 65.4381 72.2867 64.879" fill="white"/>
<path d="M71.6508 62.9021C70.8665 62.7759 70.1143 63.6443 70.3568 64.4089C70.5993 65.1734 71.7226 65.4381 72.2867 64.879" stroke="#263238" stroke-miterlimit="10"/>
<path d="M39.0703 36.3663C40.2763 36.4577 41.4732 36.097 42.4278 35.3544" stroke="#263238" stroke-miterlimit="10"/>
<path d="M41.9803 47.7526C41.0126 48.5369 39.809 48.9726 38.5635 48.9897" stroke="#263238" stroke-miterlimit="10"/>
<path d="M45.4436 71.8588C44.8937 73.4267 43.8379 74.7672 42.4424 75.669" stroke="#263238" stroke-miterlimit="10"/>
<path d="M74.5092 112.364L73.8214 109.684C68.7691 104.489 59.4908 99.7232 58.6867 92.5184C57.6476 83.2673 56.2249 83.6434 56.2249 81.3424C56.7786 80.2084 57.2539 79.0379 57.6476 77.8389C57.895 77.0793 58.0286 75.9635 58.1671 75.048C58.2346 74.5805 58.4758 74.1555 58.8427 73.8579C59.2095 73.5603 59.6751 73.4119 60.1465 73.4423C60.8046 73.4837 61.4334 73.7293 61.9452 74.1449C62.883 74.9391 63.358 76.1738 63.4743 77.3985C63.5906 78.6232 63.4026 79.8529 63.2021 81.0678C64.1918 82.9432 64.7584 85.2739 65.1815 87.3448C65.617 85.6129 66.2949 80.3057 64.5135 76.7428C61.5172 70.7404 58.2364 64.9805 55.6534 57.3649C55.4403 56.656 55.4063 55.9054 55.5544 55.1802C56.1556 52.9113 58.4739 53.2701 59.5552 54.4948C59.8401 54.8176 60.0737 55.1823 60.2479 55.576C61.485 58.268 64.0162 62.3776 65.805 64.7306L71.9707 72.8955L72.713 72.3165C72.713 72.3165 73.047 62.1723 72.8812 62.0114C72.7155 61.8506 71.7208 55.3633 71.7208 55.3633C71.7208 55.3633 71.1765 54.1558 70.5134 52.6144C70.3181 52.183 70.2171 51.7148 70.2171 51.2412C70.2171 50.7676 70.3181 50.2995 70.5134 49.8681C71.6713 47.5027 74.0862 48.6037 74.581 49.8681C75.0758 51.1324 76.5604 53.6066 76.5604 53.6066L79.3142 61.138C79.2102 62.8403 80.1875 71.2526 80.1875 71.2526L81.1772 70.7998L82.7731 65.8514L81.5681 60.8065C81.5681 60.8065 78.9306 57.8968 79.3711 56.1896C79.8115 54.4824 82.063 54.9822 82.063 54.9822L86.5685 60.3661H87.8922L91.0246 64.3248C91.8679 66.8734 92.298 69.5405 92.2988 72.2249C92.2996 73.9882 92.113 75.7465 91.7421 77.4703L91.0246 80.8154V102.423C91.0246 102.423 93.1672 105.886 93.1672 106.213C93.1672 106.28 93.615 107.517 94.2187 109.165C87.912 111.716 81.3207 112.695 74.5092 112.364Z" fill="white"/>
<path d="M60.5647 78.4277C60.8344 78.7369 60.6959 79.3629 60.2852 79.3728C59.7404 79.1987 59.1546 79.2005 58.611 79.3782C58.0674 79.5559 57.5935 79.9003 57.2567 80.3625C57.1578 80.5035 56.9796 80.6742 56.846 80.5654C56.7594 80.4936 56.7792 80.3575 56.8064 80.2487C56.846 80.1002 56.8856 79.9518 56.9227 79.8033C57.138 79.2887 57.3854 78.6429 57.6477 77.8462C57.7021 77.6879 57.7466 77.5097 57.7912 77.3242C57.8729 77.549 58.0258 77.741 58.2266 77.871C58.5755 78.0887 59.0159 78.0664 59.4266 78.0689C59.8373 78.0714 60.2901 78.1258 60.5647 78.4277ZM62.3437 88.9752C62.4055 88.8638 62.4575 88.75 62.5095 88.6337C62.4548 88.6716 62.4107 88.7229 62.3817 88.7827C62.3527 88.8425 62.3396 88.9088 62.3437 88.9752ZM65.1791 87.3447C64.7585 85.2639 64.1894 82.9431 63.1998 81.0676C63.4002 79.8528 63.5932 78.6231 63.4719 77.3984C63.3507 76.1737 62.8806 74.939 61.9429 74.1448C61.431 73.7292 60.8022 73.4836 60.1441 73.4422C59.9785 73.4302 59.812 73.441 59.6493 73.4743C58.8204 73.8009 58.3132 74.5258 58.8848 75.6368C59.0571 75.9599 59.3416 76.2089 59.6847 76.3369C60.0278 76.4649 60.4059 76.4632 60.7478 76.332C60.9116 76.2549 61.0582 76.1457 61.1791 76.011C61.3 75.8763 61.3927 75.7188 61.4517 75.5477C61.5107 75.3766 61.5349 75.1954 61.5228 75.0148C61.5107 74.8342 61.4626 74.6578 61.3812 74.4962C62.0885 75.615 62.438 76.9229 62.3832 78.2454C62.3284 79.568 61.8719 80.8425 61.0744 81.899C62.935 83.5121 63.5264 86.402 62.507 88.6337C62.6302 88.5497 62.7759 88.5048 62.9251 88.5048C63.0743 88.5048 63.22 88.5497 63.3433 88.6337C63.6995 88.901 63.8183 89.376 63.9915 89.7818C64.1647 90.1875 64.5012 90.6205 64.9465 90.5908C65.3894 89.5047 65.4043 88.3121 65.2261 87.127C65.2113 87.2061 65.1964 87.2804 65.1791 87.3447ZM74.2867 59.9132C74.299 59.9973 74.3065 60.0815 74.3163 60.1606C74.3347 60.0772 74.3242 59.99 74.2867 59.9132ZM59.3326 56.5384C61.5761 59.3304 62.7819 62.8141 62.7445 66.3956C63.462 65.8315 64.4418 66.6133 65.0034 67.3333C68.4499 71.7591 71.6705 76.3563 74.6528 81.1072C74.0763 79.0066 74.0615 76.7798 73.438 74.6941C73.1998 73.9268 72.9045 73.1783 72.5547 72.4549L71.9782 72.9028L65.8125 64.7379C64.0237 62.3775 61.4926 58.2679 60.2555 55.5834C60.0812 55.1896 59.8476 54.825 59.5627 54.5021C59.2757 54.1828 58.9228 53.9296 58.5285 53.7599C58.1598 54.559 58.8303 55.7664 58.0336 56.5161C58.234 56.5161 59.2262 56.4097 59.3326 56.5384ZM80.1654 71.057C80.0194 69.7803 79.2202 62.6893 79.3142 61.1404L76.5605 53.6089C76.5605 53.6089 75.0759 51.1347 74.5811 49.8704C74.5374 49.7633 74.4835 49.6605 74.4203 49.5636C74.329 49.4717 74.2206 49.3985 74.1011 49.3484C72.9283 48.9253 73.7201 50.4469 73.5667 51.2139C75.4933 53.7141 76.5739 56.7627 76.652 59.9182C76.104 60.0104 75.6093 60.3014 75.2624 60.7355C74.9155 61.1696 74.7408 61.7163 74.7716 62.2711C74.878 61.5289 75.9666 61.321 76.5629 61.7763C77.1592 62.2315 77.3646 63.0134 77.4982 63.7556C78.2874 68.1078 77.6887 72.5836 78.0054 76.9951C78.1241 78.6602 79.5369 82.2948 80.4796 89.9005C80.2322 84.3682 80.4796 78.492 80.2322 72.9622C80.2148 72.304 80.1901 71.6756 80.1654 71.057ZM93.1623 106.213C93.1623 105.884 91.0197 102.422 91.0197 102.422V84.5587C90.6732 83.6089 90.2674 82.6817 89.8049 81.7827C89.7975 81.7696 89.7863 81.7591 89.7727 81.7528C89.7592 81.7464 89.7439 81.7445 89.7292 81.7472C89.7145 81.7499 89.7009 81.7572 89.6905 81.768C89.6801 81.7788 89.6734 81.7926 89.6712 81.8074C89.4634 83.5394 88.788 83.1188 87.7241 81.7282C87.7241 81.7282 86.1505 82.7897 86.143 82.7798C85.6111 82.0623 85.3835 81.1913 85.2573 80.3056C85.2746 80.266 85.2944 80.2264 85.3142 80.1844C85.334 80.1423 85.3711 80.0656 85.4008 80.0062C85.4305 79.9468 85.4824 79.833 85.5245 79.7439L85.6111 79.5584L85.7373 79.2837L85.8214 79.0982C85.8659 79.0017 85.908 78.9027 85.9525 78.8037C85.9773 78.7444 86.0045 78.6875 86.0292 78.6281C86.0787 78.5143 86.1282 78.4029 86.1752 78.2891L86.2346 78.1506V78.1283C86.2544 78.0838 86.2717 78.0392 86.289 77.9947C86.3434 77.866 86.3979 77.7473 86.4498 77.6062L86.5315 77.4058C86.5785 77.292 86.623 77.1782 86.6676 77.0669L86.7517 76.8442C86.7938 76.7378 86.8358 76.6289 86.8754 76.5225L86.957 76.2974C86.9966 76.1935 87.0337 76.0895 87.0709 75.9832C87.108 75.8768 87.1253 75.8347 87.15 75.763L87.197 75.6293C87.2658 76.9904 87.8309 78.279 88.7855 79.2516C88.6399 77.6307 88.7232 75.9974 89.0329 74.3997C89.1393 73.8677 89.1591 72.0145 89.5748 71.678C89.9904 71.3416 90.7426 71.3539 90.9677 71.8463C90.9491 71.668 90.8894 71.4964 90.7934 71.345C90.6973 71.1937 90.5675 71.0666 90.414 70.9738C90.2606 70.8811 90.0878 70.8251 89.9091 70.8104C89.7305 70.7956 89.5508 70.8224 89.3842 70.8888C89.9137 70.6414 89.1739 67.9197 89.0478 67.3927C88.9686 67.0612 88.7657 66.1556 88.4911 65.2501C88.771 64.8626 89.1314 64.5402 89.5475 64.3049C89.7757 64.1846 90.0321 64.1277 90.2897 64.1404C90.5474 64.153 90.7969 64.2346 91.0123 64.3767V64.3495L90.8415 64.1317C90.5273 63.7655 90.2255 63.3895 89.9409 62.9961L87.8799 60.3883H86.8902L86.8655 60.4155C86.6502 60.7594 86.9645 61.3755 87.0659 61.6996C87.1278 61.895 87.1896 62.0905 87.249 62.286C86.9743 61.4993 86.6341 60.7371 86.2321 60.0072L82.3699 55.3632C82.235 55.2757 82.0925 55.2003 81.9443 55.138C80.9546 54.7372 79.6186 55.5957 79.8487 56.7611C79.8285 56.4559 79.9208 56.154 80.108 55.9122C80.2952 55.6704 80.5644 55.5055 80.8648 55.4486C81.1653 55.3916 81.4762 55.4467 81.7389 55.6032C82.0015 55.7598 82.1978 56.0071 82.2907 56.2984C82.1547 56.2971 82.0199 56.3229 81.8939 56.3742C81.768 56.4256 81.6536 56.5015 81.5573 56.5975C81.4611 56.6935 81.3849 56.8078 81.3332 56.9336C81.2816 57.0594 81.2555 57.1942 81.2565 57.3301L82.5406 56.8353C82.7163 58.1046 83.56 59.1685 84.3962 60.1384C85.2325 61.1082 85.2993 61.7614 85.6061 63.0035C85.9129 64.2455 86.2296 66.1507 85.0074 66.5366C85.5492 66.4278 86.0713 66.9004 86.2222 67.4323C86.3731 67.9643 86.2568 68.5333 86.1455 69.0752C85.4159 72.618 84.9552 76.2109 84.7674 79.8231C84.3668 80.5603 84.0712 81.3497 83.889 82.1687L84.0598 90.7913C84.8261 90.0156 85.4071 89.0767 85.7595 88.0449C85.814 87.8816 85.9253 87.7433 86.0732 87.6552C86.2211 87.5672 86.3958 87.5352 86.5653 87.5652C86.7348 87.5952 86.8879 87.6852 86.9966 87.8187C87.1053 87.9521 87.1624 88.1202 87.1575 88.2923C87.1575 88.416 87.1575 88.5397 87.1377 88.661L86.4177 100.846L89.164 90.4746C89.6589 93.5277 88.3377 102.131 87.4074 105.072C89.6663 105.446 90.4976 108.244 90.5743 110.54C91.8133 110.155 93.0285 109.697 94.2139 109.17C93.6102 107.517 93.1623 106.28 93.1623 106.213ZM74.5662 107.945C74.1688 107.385 73.6774 106.899 73.1139 106.507C71.7398 105.532 70.098 105.005 68.4129 104.998L69.838 106.149C69.8949 106.176 69.9519 106.201 70.0038 106.23C70.8995 106.725 71.716 107.519 72.4013 108.267C72.4656 108.338 72.5349 108.42 72.6067 108.514C73.0347 108.907 73.4454 109.298 73.8289 109.694L74.3238 111.599C74.4351 111.859 74.5415 112.121 74.6405 112.379C74.9126 112.392 75.1848 112.402 75.457 112.408C75.5262 111.171 75.4941 109.87 75.1823 109.076C75.0274 108.67 74.8203 108.287 74.5662 107.935V107.945Z" fill="#92E3A9"/>
<path opacity="0.5" d="M60.5647 78.4277C60.8344 78.7369 60.6959 79.3629 60.2852 79.3728C59.7404 79.1987 59.1546 79.2005 58.611 79.3782C58.0674 79.5559 57.5935 79.9003 57.2567 80.3625C57.1578 80.5035 56.9796 80.6742 56.846 80.5654C56.7594 80.4936 56.7792 80.3575 56.8064 80.2487C56.846 80.1002 56.8856 79.9518 56.9227 79.8033C57.138 79.2887 57.3854 78.6429 57.6477 77.8462C57.7021 77.6879 57.7466 77.5097 57.7912 77.3242C57.8729 77.549 58.0258 77.741 58.2266 77.871C58.5755 78.0887 59.0159 78.0664 59.4266 78.0689C59.8373 78.0714 60.2901 78.1258 60.5647 78.4277ZM62.3437 88.9752C62.4055 88.8638 62.4575 88.75 62.5095 88.6337C62.4548 88.6716 62.4107 88.7229 62.3817 88.7827C62.3527 88.8425 62.3396 88.9088 62.3437 88.9752ZM65.1791 87.3447C64.7585 85.2639 64.1894 82.9431 63.1998 81.0676C63.4002 79.8528 63.5932 78.6231 63.4719 77.3984C63.3507 76.1737 62.8806 74.939 61.9429 74.1448C61.431 73.7292 60.8022 73.4836 60.1441 73.4422C59.9785 73.4302 59.812 73.441 59.6493 73.4743C58.8204 73.8009 58.3132 74.5258 58.8848 75.6368C59.0571 75.9599 59.3416 76.2089 59.6847 76.3369C60.0278 76.4649 60.4059 76.4632 60.7478 76.332C60.9116 76.2549 61.0582 76.1457 61.1791 76.011C61.3 75.8763 61.3927 75.7188 61.4517 75.5477C61.5107 75.3766 61.5349 75.1954 61.5228 75.0148C61.5107 74.8342 61.4626 74.6578 61.3812 74.4962C62.0885 75.615 62.438 76.9229 62.3832 78.2454C62.3284 79.568 61.8719 80.8425 61.0744 81.899C62.935 83.5121 63.5264 86.402 62.507 88.6337C62.6302 88.5497 62.7759 88.5048 62.9251 88.5048C63.0743 88.5048 63.22 88.5497 63.3433 88.6337C63.6995 88.901 63.8183 89.376 63.9915 89.7818C64.1647 90.1875 64.5012 90.6205 64.9465 90.5908C65.3894 89.5047 65.4043 88.3121 65.2261 87.127C65.2113 87.2061 65.1964 87.2804 65.1791 87.3447ZM74.2867 59.9132C74.299 59.9973 74.3065 60.0815 74.3163 60.1606C74.3347 60.0772 74.3242 59.99 74.2867 59.9132ZM59.3326 56.5384C61.5761 59.3304 62.7819 62.8141 62.7445 66.3956C63.462 65.8315 64.4418 66.6133 65.0034 67.3333C68.4499 71.7591 71.6705 76.3563 74.6528 81.1072C74.0763 79.0066 74.0615 76.7798 73.438 74.6941C73.1998 73.9268 72.9045 73.1783 72.5547 72.4549L71.9782 72.9028L65.8125 64.7379C64.0237 62.3775 61.4926 58.2679 60.2555 55.5834C60.0812 55.1896 59.8476 54.825 59.5627 54.5021C59.2757 54.1828 58.9228 53.9296 58.5285 53.7599C58.1598 54.559 58.8303 55.7664 58.0336 56.5161C58.234 56.5161 59.2262 56.4097 59.3326 56.5384ZM80.1654 71.057C80.0194 69.7803 79.2202 62.6893 79.3142 61.1404L76.5605 53.6089C76.5605 53.6089 75.0759 51.1347 74.5811 49.8704C74.5374 49.7633 74.4835 49.6605 74.4203 49.5636C74.329 49.4717 74.2206 49.3985 74.1011 49.3484C72.9283 48.9253 73.7201 50.4469 73.5667 51.2139C75.4933 53.7141 76.5739 56.7627 76.652 59.9182C76.104 60.0104 75.6093 60.3014 75.2624 60.7355C74.9155 61.1696 74.7408 61.7163 74.7716 62.2711C74.878 61.5289 75.9666 61.321 76.5629 61.7763C77.1592 62.2315 77.3646 63.0134 77.4982 63.7556C78.2874 68.1078 77.6887 72.5836 78.0054 76.9951C78.1241 78.6602 79.5369 82.2948 80.4796 89.9005C80.2322 84.3682 80.4796 78.492 80.2322 72.9622C80.2148 72.304 80.1901 71.6756 80.1654 71.057ZM93.1623 106.213C93.1623 105.884 91.0197 102.422 91.0197 102.422V84.5587C90.6732 83.6089 90.2674 82.6817 89.8049 81.7827C89.7975 81.7696 89.7863 81.7591 89.7727 81.7528C89.7592 81.7464 89.7439 81.7445 89.7292 81.7472C89.7145 81.7499 89.7009 81.7572 89.6905 81.768C89.6801 81.7788 89.6734 81.7926 89.6712 81.8074C89.4634 83.5394 88.788 83.1188 87.7241 81.7282C87.7241 81.7282 86.1505 82.7897 86.143 82.7798C85.6111 82.0623 85.3835 81.1913 85.2573 80.3056C85.2746 80.266 85.2944 80.2264 85.3142 80.1844C85.334 80.1423 85.3711 80.0656 85.4008 80.0062C85.4305 79.9468 85.4824 79.833 85.5245 79.7439L85.6111 79.5584L85.7373 79.2837L85.8214 79.0982C85.8659 79.0017 85.908 78.9027 85.9525 78.8037C85.9773 78.7444 86.0045 78.6875 86.0292 78.6281C86.0787 78.5143 86.1282 78.4029 86.1752 78.2891L86.2346 78.1506V78.1283C86.2544 78.0838 86.2717 78.0392 86.289 77.9947C86.3434 77.866 86.3979 77.7473 86.4498 77.6062L86.5315 77.4058C86.5785 77.292 86.623 77.1782 86.6676 77.0669L86.7517 76.8442C86.7938 76.7378 86.8358 76.6289 86.8754 76.5225L86.957 76.2974C86.9966 76.1935 87.0337 76.0895 87.0709 75.9832C87.108 75.8768 87.1253 75.8347 87.15 75.763L87.197 75.6293C87.2658 76.9904 87.8309 78.279 88.7855 79.2516C88.6399 77.6307 88.7232 75.9974 89.0329 74.3997C89.1393 73.8677 89.1591 72.0145 89.5748 71.678C89.9904 71.3416 90.7426 71.3539 90.9677 71.8463C90.9491 71.668 90.8894 71.4964 90.7934 71.345C90.6973 71.1937 90.5675 71.0666 90.414 70.9738C90.2606 70.8811 90.0878 70.8251 89.9091 70.8104C89.7305 70.7956 89.5508 70.8224 89.3842 70.8888C89.9137 70.6414 89.1739 67.9197 89.0478 67.3927C88.9686 67.0612 88.7657 66.1556 88.4911 65.2501C88.771 64.8626 89.1314 64.5402 89.5475 64.3049C89.7757 64.1846 90.0321 64.1277 90.2897 64.1404C90.5474 64.153 90.7969 64.2346 91.0123 64.3767V64.3495L90.8415 64.1317C90.5273 63.7655 90.2255 63.3895 89.9409 62.9961L87.8799 60.3883H86.8902L86.8655 60.4155C86.6502 60.7594 86.9645 61.3755 87.0659 61.6996C87.1278 61.895 87.1896 62.0905 87.249 62.286C86.9743 61.4993 86.6341 60.7371 86.2321 60.0072L82.3699 55.3632C82.235 55.2757 82.0925 55.2003 81.9443 55.138C80.9546 54.7372 79.6186 55.5957 79.8487 56.7611C79.8285 56.4559 79.9208 56.154 80.108 55.9122C80.2952 55.6704 80.5644 55.5055 80.8648 55.4486C81.1653 55.3916 81.4762 55.4467 81.7389 55.6032C82.0015 55.7598 82.1978 56.0071 82.2907 56.2984C82.1547 56.2971 82.0199 56.3229 81.8939 56.3742C81.768 56.4256 81.6536 56.5015 81.5573 56.5975C81.4611 56.6935 81.3849 56.8078 81.3332 56.9336C81.2816 57.0594 81.2555 57.1942 81.2565 57.3301L82.5406 56.8353C82.7163 58.1046 83.56 59.1685 84.3962 60.1384C85.2325 61.1082 85.2993 61.7614 85.6061 63.0035C85.9129 64.2455 86.2296 66.1507 85.0074 66.5366C85.5492 66.4278 86.0713 66.9004 86.2222 67.4323C86.3731 67.9643 86.2568 68.5333 86.1455 69.0752C85.4159 72.618 84.9552 76.2109 84.7674 79.8231C84.3668 80.5603 84.0712 81.3497 83.889 82.1687L84.0598 90.7913C84.8261 90.0156 85.4071 89.0767 85.7595 88.0449C85.814 87.8816 85.9253 87.7433 86.0732 87.6552C86.2211 87.5672 86.3958 87.5352 86.5653 87.5652C86.7348 87.5952 86.8879 87.6852 86.9966 87.8187C87.1053 87.9521 87.1624 88.1202 87.1575 88.2923C87.1575 88.416 87.1575 88.5397 87.1377 88.661L86.4177 100.846L89.164 90.4746C89.6589 93.5277 88.3377 102.131 87.4074 105.072C89.6663 105.446 90.4976 108.244 90.5743 110.54C91.8133 110.155 93.0285 109.697 94.2139 109.17C93.6102 107.517 93.1623 106.28 93.1623 106.213ZM74.5662 107.945C74.1688 107.385 73.6774 106.899 73.1139 106.507C71.7398 105.532 70.098 105.005 68.4129 104.998L69.838 106.149C69.8949 106.176 69.9519 106.201 70.0038 106.23C70.8995 106.725 71.716 107.519 72.4013 108.267C72.4656 108.338 72.5349 108.42 72.6067 108.514C73.0347 108.907 73.4454 109.298 73.8289 109.694L74.3238 111.599C74.4351 111.859 74.5415 112.121 74.6405 112.379C74.9126 112.392 75.1848 112.402 75.457 112.408C75.5262 111.171 75.4941 109.87 75.1823 109.076C75.0274 108.67 74.8203 108.287 74.5662 107.935V107.945Z" fill="white"/>
<path d="M74.5092 112.364L73.8214 109.684C68.7691 104.489 59.4908 99.7232 58.6867 92.5184C57.6476 83.2673 56.2249 83.6434 56.2249 81.3424C56.7786 80.2084 57.2539 79.0379 57.6476 77.8389C57.895 77.0793 58.0286 75.9635 58.1671 75.048C58.2346 74.5805 58.4758 74.1555 58.8427 73.8579C59.2095 73.5603 59.6751 73.4119 60.1465 73.4423C60.8046 73.4837 61.4334 73.7293 61.9452 74.1449C62.883 74.9391 63.358 76.1738 63.4743 77.3985C63.5906 78.6232 63.4026 79.8529 63.2021 81.0677C64.1918 82.9432 64.7584 85.2739 65.1815 87.3448C65.617 85.6129 66.2949 80.3057 64.5135 76.7428C61.5172 70.7404 58.2364 64.9805 55.6534 57.3649C55.4403 56.656 55.4063 55.9054 55.5544 55.1802C56.1556 52.9113 58.4739 53.2701 59.5552 54.4948C59.8401 54.8176 60.0737 55.1823 60.2479 55.576C61.485 58.268 64.0162 62.3776 65.805 64.7306L71.9707 72.8954L72.713 72.3165C72.713 72.3165 73.047 62.1723 72.8812 62.0114C72.7155 61.8506 71.7208 55.3633 71.7208 55.3633C71.7208 55.3633 71.1765 54.1558 70.5134 52.6144C70.3181 52.183 70.2171 51.7148 70.2171 51.2412C70.2171 50.7676 70.3181 50.2995 70.5134 49.8681C71.6713 47.5027 74.0862 48.6037 74.581 49.8681C75.0758 51.1324 76.5604 53.6066 76.5604 53.6066L79.3142 61.138C79.2102 62.8403 80.1875 71.2526 80.1875 71.2526L81.1772 70.7998L82.7731 65.8514L81.5681 60.8065C81.5681 60.8065 78.9306 57.8968 79.3711 56.1896C79.8115 54.4824 82.063 54.9822 82.063 54.9822L86.5685 60.3661H87.8922L91.0245 64.3248C91.8679 66.8734 92.298 69.5405 92.2988 72.2249C92.2996 73.9882 92.113 75.7465 91.7421 77.4703L91.0245 80.8154V102.423C91.0245 102.423 93.1672 105.886 93.1672 106.213C93.1672 106.28 93.615 107.517 94.2187 109.165" stroke="#263238" stroke-miterlimit="10"/>
<path d="M62.2988 66.7446C62.6996 66.3061 63.1982 65.9684 63.7541 65.759C64.31 65.5496 64.9075 65.4745 65.498 65.5396" stroke="#263238" stroke-miterlimit="10"/>
<path d="M60.2459 56.4148C59.7945 56.3389 59.3326 56.3537 58.887 56.4582C58.4414 56.5627 58.0211 56.7548 57.6505 57.0234C57.6505 57.0234 56.3515 55.7269 56.6286 54.668" stroke="#263238" stroke-miterlimit="10"/>
<path d="M88.6639 79.3357C87.9464 78.2298 87.2536 76.7106 87.4441 75.4092C87.8202 72.8558 88.983 69.9189 88.461 67.3928C88.1311 65.7796 87.7963 64.1664 87.4565 62.5532" stroke="#263238" stroke-miterlimit="10"/>
<path d="M74.7614 51.976C74.5108 52.1563 74.215 52.2629 73.907 52.2841C73.5991 52.3052 73.2914 52.24 73.0186 52.0957C72.7457 51.9515 72.5186 51.7339 72.3627 51.4675C72.2068 51.2012 72.1284 50.8965 72.1363 50.588" stroke="#263238" stroke-miterlimit="10"/>
<path d="M72.8465 67.7095C72.7871 68.5804 72.9034 72.6777 72.8465 73.5486" stroke="#263238" stroke-miterlimit="10"/>
<path d="M77.9805 75.1865C79.1137 76.4236 78.9479 79.41 78.1487 81.0504" stroke="#263238" stroke-miterlimit="10"/>
<path d="M69.2266 78.6528C69.8369 79.843 70.7587 80.8452 71.8938 81.5526" stroke="#263238" stroke-miterlimit="10"/>
<path d="M85.2476 77.0173C85.4327 78.2797 85.1569 79.5665 84.4707 80.642" stroke="#263238" stroke-miterlimit="10"/>
<path d="M90.0692 80.8994C90.1214 81.8885 89.839 82.8664 89.2676 83.6755" stroke="#263238" stroke-miterlimit="10"/>
<path d="M83.4584 56.9318C83.1607 56.7946 82.8289 56.7488 82.5051 56.8003C82.1814 56.8519 81.8802 56.9984 81.6398 57.2213L80.999 56.3751" stroke="#263238" stroke-miterlimit="10"/>
<path d="M78.1242 60.7471C77.6858 60.4882 77.1698 60.3932 76.6679 60.4788C76.166 60.5644 75.7106 60.8251 75.3828 61.2147" stroke="#263238" stroke-miterlimit="10"/>
<path d="M88.333 67.7094C88.0558 67.2478 87.6521 66.8752 87.1698 66.6358C86.6875 66.3964 86.1466 66.3002 85.6113 66.3585" stroke="#263238" stroke-miterlimit="10"/>
<path d="M91.8191 72.6826C91.8007 72.3459 91.6682 72.0254 91.4433 71.774C91.2184 71.5226 90.9147 71.3553 90.582 71.2996" stroke="#263238" stroke-miterlimit="10"/>
<path d="M65.149 87.7604L64.0381 88.2552" stroke="#263238" stroke-miterlimit="10"/>
<path d="M65.4367 88.6536C65.2545 89.5129 65.2503 90.4004 65.4243 91.2614" stroke="#263238" stroke-miterlimit="10"/>
<path d="M58.1397 80.0261C57.5407 80.5005 57.0291 81.0757 56.6279 81.7259" stroke="#263238" stroke-miterlimit="10"/>
<path d="M58.4121 76.6414C59.2261 76.06 60.5251 77.3639 61.2748 76.6983C61.5717 76.4336 61.5964 75.9734 61.5222 75.5824C61.448 75.1915 61.3143 74.7957 61.3713 74.3998" stroke="#263238" stroke-miterlimit="10"/>
<path d="M75.7393 88.8713C75.7615 89.287 75.7764 89.7027 75.7788 90.1084" stroke="#263238" stroke-miterlimit="10"/>
<path d="M74.5713 81.7605C75.0686 83.5574 75.4129 85.3933 75.6006 87.2483" stroke="#263238" stroke-miterlimit="10"/>
<path d="M73.1387 78.2075C73.5568 79.1428 73.9279 80.0904 74.262 81.0504" stroke="#263238" stroke-miterlimit="10"/>
</svg>
