<svg width="113" height="85" viewBox="0 0 113 85" fill="none" xmlns="http://www.w3.org/2000/svg">
<path d="M109.645 8.45819e-06C109.03 0.00132117 108.432 0.2016 107.94 0.570911C107.449 0.940221 107.09 1.45873 106.917 2.04893H105.947C103.986 2.06133 102.067 2.62219 100.408 3.66808C98.7488 4.71397 97.4154 6.20318 96.5585 7.96732L93.298 14.7548C93.2646 14.8226 93.245 14.8963 93.2403 14.9718C93.2357 15.0472 93.2461 15.1228 93.2708 15.1942C93.2956 15.2656 93.3343 15.3314 93.3847 15.3877C93.4351 15.444 93.4962 15.4898 93.5644 15.5223C93.6417 15.5593 93.7262 15.5788 93.8118 15.5794C93.9208 15.5791 94.0275 15.548 94.1196 15.4897C94.2116 15.4313 94.2853 15.348 94.332 15.2495L97.5988 8.4621C98.3566 6.88807 99.5405 5.558 101.016 4.62286C102.492 3.68773 104.2 3.18499 105.947 3.17171H106.822C106.885 3.71796 107.104 4.23446 107.453 4.65887C107.803 5.08327 108.268 5.39745 108.792 5.56345C109.316 5.72946 109.877 5.7402 110.407 5.59439C110.937 5.44858 111.414 5.15245 111.779 4.74174C112.145 4.33103 112.384 3.82331 112.467 3.27984C112.55 2.73638 112.475 2.18041 112.249 1.67905C112.023 1.17769 111.657 0.752371 111.195 0.45443C110.733 0.15649 110.195 -0.00133119 109.645 8.45819e-06Z" fill="#004E11"/>
<path opacity="0.3" d="M109.645 8.45819e-06C109.03 0.00132117 108.432 0.2016 107.94 0.570911C107.449 0.940221 107.09 1.45873 106.917 2.04893H105.947C103.986 2.06133 102.067 2.62219 100.408 3.66808C98.7488 4.71397 97.4154 6.20318 96.5585 7.96732L93.298 14.7548C93.2646 14.8226 93.245 14.8963 93.2403 14.9718C93.2357 15.0472 93.2461 15.1228 93.2708 15.1942C93.2956 15.2656 93.3343 15.3314 93.3847 15.3877C93.4351 15.444 93.4962 15.4898 93.5644 15.5223C93.6417 15.5593 93.7262 15.5788 93.8118 15.5794C93.9208 15.5791 94.0275 15.548 94.1196 15.4897C94.2116 15.4313 94.2853 15.348 94.332 15.2495L97.5988 8.4621C98.3566 6.88807 99.5405 5.558 101.016 4.62286C102.492 3.68773 104.2 3.18499 105.947 3.17171H106.822C106.885 3.71796 107.104 4.23446 107.453 4.65887C107.803 5.08327 108.268 5.39745 108.792 5.56345C109.316 5.72946 109.877 5.7402 110.407 5.59439C110.937 5.44858 111.414 5.15245 111.779 4.74174C112.145 4.33103 112.384 3.82331 112.467 3.27984C112.55 2.73638 112.475 2.18041 112.249 1.67905C112.023 1.17769 111.657 0.752371 111.195 0.45443C110.733 0.15649 110.195 -0.00133119 109.645 8.45819e-06Z" fill="white"/>
<path d="M23.5584 76.2223C23.4935 76.2241 23.4289 76.2133 23.3681 76.1905C23.2248 76.1401 23.1072 76.0353 23.0407 75.8987C22.9742 75.7622 22.9642 75.6049 23.0129 75.4611L26.3685 65.7874C26.3934 65.7165 26.432 65.6512 26.4822 65.5953C26.5324 65.5394 26.5931 65.4939 26.6608 65.4615C26.7286 65.4291 26.8021 65.4104 26.8771 65.4064C26.9522 65.4025 27.0272 65.4134 27.098 65.4385C27.2413 65.4889 27.3589 65.5937 27.4254 65.7303C27.4919 65.8669 27.5019 66.0241 27.4532 66.168L24.0976 75.8353C24.0592 75.948 23.9867 76.0458 23.89 76.1152C23.7933 76.1846 23.6774 76.222 23.5584 76.2223Z" fill="#004E11"/>
<path d="M71.762 76.2223H25.2331C25.0913 76.2073 24.96 76.1404 24.8645 76.0344C24.7691 75.9284 24.7163 75.7908 24.7163 75.6482C24.7163 75.5055 24.7691 75.368 24.8645 75.262C24.96 75.156 25.0913 75.089 25.2331 75.0741H70.9564L67.8671 66.1933C67.8185 66.0495 67.8284 65.8922 67.8949 65.7556C67.9614 65.6191 68.0791 65.5143 68.2223 65.4639C68.2931 65.4379 68.3683 65.4263 68.4436 65.4298C68.5189 65.4334 68.5927 65.4519 68.6607 65.4845C68.7287 65.517 68.7894 65.5628 68.8394 65.6191C68.8895 65.6755 68.9277 65.7413 68.9518 65.8127L72.3075 75.4864C72.3364 75.573 72.3445 75.6652 72.3313 75.7556C72.3181 75.8459 72.2839 75.9319 72.2314 76.0066C72.1756 76.0769 72.104 76.1331 72.0225 76.1705C71.9409 76.208 71.8517 76.2257 71.762 76.2223Z" fill="#004E11"/>
<path d="M69.1548 66.555H10.9223C10.8419 66.5635 10.7605 66.5549 10.6836 66.5299C10.6067 66.5049 10.5358 66.4641 10.4757 66.4099C10.4156 66.3558 10.3675 66.2896 10.3346 66.2157C10.3017 66.1418 10.2847 66.0618 10.2847 65.9809C10.2847 65.9 10.3017 65.82 10.3346 65.7461C10.3675 65.6722 10.4156 65.606 10.4757 65.5519C10.5358 65.4978 10.6067 65.4569 10.6836 65.4319C10.7605 65.4069 10.8419 65.3984 10.9223 65.4068H69.1548C71.6206 65.4051 73.985 64.4249 75.7286 62.6812C77.4722 60.9376 78.4525 58.5733 78.4542 56.1074V49.3897C78.4457 49.3093 78.4543 49.228 78.4793 49.151C78.5042 49.0741 78.5451 49.0032 78.5993 48.9431C78.6534 48.883 78.7196 48.8349 78.7935 48.802C78.8674 48.7691 78.9474 48.7521 79.0283 48.7521C79.1092 48.7521 79.1892 48.7691 79.2631 48.802C79.337 48.8349 79.4031 48.883 79.4573 48.9431C79.5114 49.0032 79.5523 49.0741 79.5773 49.151C79.6023 49.228 79.6108 49.3093 79.6023 49.3897V56.1074C79.599 58.8773 78.4972 61.5327 76.5386 63.4913C74.58 65.4498 71.9246 66.5516 69.1548 66.555Z" fill="#004E11"/>
<path d="M79.0314 48.8442C78.8783 48.8442 78.7315 48.9051 78.6233 49.0133C78.515 49.1216 78.4542 49.2684 78.4542 49.4215V56.1391C78.4525 58.605 77.4722 60.9694 75.7286 62.713C73.985 64.4566 71.6206 65.4369 69.1548 65.4386H10.9223C10.8419 65.4301 10.7605 65.4386 10.6836 65.4636C10.6067 65.4886 10.5358 65.5295 10.4757 65.5836C10.4156 65.6378 10.3675 65.7039 10.3346 65.7778C10.3017 65.8517 10.2847 65.9317 10.2847 66.0127C10.2847 66.0936 10.3017 66.1735 10.3346 66.2475C10.3675 66.3214 10.4156 66.3875 10.4757 66.4417C10.5358 66.4958 10.6067 66.5367 10.6836 66.5617C10.7605 66.5867 10.8419 66.5952 10.9223 66.5867H26.1465L23.0573 75.4675C23.0086 75.6114 23.0186 75.7686 23.0851 75.9052C23.1516 76.0417 23.2692 76.1466 23.4125 76.197C23.4733 76.2198 23.5379 76.2306 23.6028 76.2287C23.7218 76.2284 23.8377 76.191 23.9344 76.1216C24.0311 76.0522 24.1036 75.9544 24.142 75.8417L27.3644 66.5613H68.0129L70.9626 75.0805H25.2331C25.0912 75.0955 24.9599 75.1624 24.8645 75.2684C24.769 75.3744 24.7162 75.512 24.7162 75.6546C24.7162 75.7973 24.769 75.9348 24.8645 76.0408C24.9599 76.1469 25.0912 76.2138 25.2331 76.2287H71.7619C71.8538 76.2293 71.9444 76.2076 72.0261 76.1657C72.1078 76.1237 72.1782 76.0626 72.2313 75.9877C72.2838 75.9129 72.318 75.827 72.3313 75.7366C72.3445 75.6463 72.3363 75.5541 72.3074 75.4675L69.2182 66.5867C71.977 66.57 74.6171 65.4627 76.5625 63.5066C78.508 61.5505 79.6007 58.9043 79.6023 56.1455V49.3898C79.5958 49.2428 79.5328 49.104 79.4264 49.0024C79.32 48.9007 79.1786 48.8441 79.0314 48.8442Z" fill="#004E11"/>
<path opacity="0.6" d="M79.0314 48.8442C78.8783 48.8442 78.7315 48.9051 78.6233 49.0133C78.515 49.1216 78.4542 49.2684 78.4542 49.4215V56.1391C78.4525 58.605 77.4722 60.9694 75.7286 62.713C73.985 64.4566 71.6206 65.4369 69.1548 65.4386H10.9223C10.8419 65.4301 10.7605 65.4386 10.6836 65.4636C10.6067 65.4886 10.5358 65.5295 10.4757 65.5836C10.4156 65.6378 10.3675 65.7039 10.3346 65.7778C10.3017 65.8517 10.2847 65.9317 10.2847 66.0127C10.2847 66.0936 10.3017 66.1735 10.3346 66.2475C10.3675 66.3214 10.4156 66.3875 10.4757 66.4417C10.5358 66.4958 10.6067 66.5367 10.6836 66.5617C10.7605 66.5867 10.8419 66.5952 10.9223 66.5867H26.1465L23.0573 75.4675C23.0086 75.6114 23.0186 75.7686 23.0851 75.9052C23.1516 76.0417 23.2692 76.1466 23.4125 76.197C23.4733 76.2198 23.5379 76.2306 23.6028 76.2287C23.7218 76.2284 23.8377 76.191 23.9344 76.1216C24.0311 76.0522 24.1036 75.9544 24.142 75.8417L27.3644 66.5613H68.0129L70.9626 75.0805H25.2331C25.0912 75.0955 24.9599 75.1624 24.8645 75.2684C24.769 75.3744 24.7162 75.512 24.7162 75.6546C24.7162 75.7973 24.769 75.9348 24.8645 76.0408C24.9599 76.1469 25.0912 76.2138 25.2331 76.2287H71.7619C71.8538 76.2293 71.9444 76.2076 72.0261 76.1657C72.1078 76.1237 72.1782 76.0626 72.2313 75.9877C72.2838 75.9129 72.318 75.827 72.3313 75.7366C72.3445 75.6463 72.3363 75.5541 72.3074 75.4675L69.2182 66.5867C71.977 66.57 74.6171 65.4627 76.5625 63.5066C78.508 61.5505 79.6007 58.9043 79.6023 56.1455V49.3898C79.5958 49.2428 79.5328 49.104 79.4264 49.0024C79.32 48.9007 79.1786 48.8441 79.0314 48.8442Z" fill="white"/>
<path d="M79.0317 49.9606H11.0305C10.9017 49.9613 10.7765 49.9185 10.6752 49.839C10.5738 49.7595 10.5023 49.6482 10.4723 49.5229L0.532167 8.92518C0.515199 8.83972 0.516014 8.75168 0.534567 8.66655C0.553121 8.58142 0.589014 8.50104 0.640004 8.43039C0.694736 8.3637 0.763433 8.30981 0.84125 8.27255C0.919067 8.23528 1.00411 8.21555 1.09038 8.21472H96.3873C96.4821 8.21515 96.5755 8.23842 96.6594 8.28259C96.7433 8.32676 96.8153 8.39052 96.8694 8.46845C96.9198 8.54923 96.9502 8.6409 96.9579 8.73581C96.9656 8.83073 96.9505 8.92611 96.9138 9.01398L79.5582 49.6117C79.5153 49.7157 79.4422 49.8045 79.3484 49.8667C79.2545 49.9289 79.1443 49.9616 79.0317 49.9606ZM11.4809 48.8442H78.6511L95.5182 9.41996H1.82622L11.4809 48.8442Z" fill="#004E11"/>
<path d="M87.8932 29.2494H5.55588C5.41403 29.2344 5.28273 29.1675 5.1873 29.0615C5.09187 28.9555 5.03906 28.8179 5.03906 28.6753C5.03906 28.5326 5.09187 28.3951 5.1873 28.2891C5.28273 28.183 5.41403 28.1161 5.55588 28.1012H87.8932C88.0351 28.1161 88.1664 28.183 88.2618 28.2891C88.3572 28.3951 88.41 28.5326 88.41 28.6753C88.41 28.8179 88.3572 28.9555 88.2618 29.0615C88.1664 29.1675 88.0351 29.2344 87.8932 29.2494Z" fill="#004E11"/>
<path d="M11.0304 49.9607C10.9016 49.9614 10.7764 49.9185 10.675 49.8391C10.5737 49.7596 10.5022 49.6482 10.4721 49.523L0.532048 8.92523C0.505622 8.84927 0.495361 8.76862 0.501926 8.68846C0.508491 8.6083 0.531732 8.53039 0.570165 8.45974C0.608598 8.38909 0.661375 8.32724 0.725105 8.27818C0.788836 8.22911 0.862115 8.19391 0.940246 8.17482C1.01838 8.15573 1.09964 8.15318 1.17881 8.16733C1.25799 8.18148 1.33333 8.21203 1.40001 8.257C1.46669 8.30197 1.52324 8.36037 1.56603 8.42848C1.60882 8.49658 1.6369 8.57288 1.64848 8.65247L11.5886 49.2502C11.6066 49.324 11.6098 49.4005 11.5982 49.4755C11.5865 49.5505 11.5602 49.6224 11.5208 49.6872C11.4813 49.752 11.4294 49.8084 11.3681 49.8532C11.3068 49.8979 11.2373 49.9301 11.1636 49.948L11.0304 49.9607Z" fill="#004E11"/>
<path d="M28.0496 49.9606C27.9046 49.9609 27.7649 49.906 27.6588 49.807C27.5528 49.7081 27.4884 49.5725 27.4787 49.4277L24.529 8.70312C24.5203 8.6261 24.5273 8.54811 24.5497 8.47389C24.572 8.39968 24.6093 8.33079 24.6592 8.27144C24.709 8.21209 24.7704 8.16351 24.8397 8.12867C24.9089 8.09383 24.9845 8.07345 25.0619 8.06878C25.1387 8.05811 25.2169 8.06358 25.2915 8.08482C25.3661 8.10607 25.4355 8.14261 25.4952 8.19215C25.5548 8.24169 25.6035 8.30312 25.6382 8.37253C25.6728 8.44194 25.6926 8.51779 25.6962 8.59527L28.6459 49.3199C28.6538 49.3968 28.6461 49.4744 28.6234 49.5482C28.6006 49.6221 28.5633 49.6906 28.5136 49.7498C28.464 49.8089 28.4029 49.8575 28.3341 49.8926C28.2653 49.9277 28.1901 49.9487 28.1131 49.9542L28.0496 49.9606Z" fill="#004E11"/>
<path d="M45.0308 49.9606H44.9737C44.898 49.9535 44.8244 49.9314 44.7574 49.8955C44.6904 49.8596 44.6312 49.8106 44.5833 49.7515C44.5355 49.6925 44.4999 49.6244 44.4787 49.5514C44.4575 49.4783 44.4511 49.4018 44.4599 49.3263L48.5006 8.4494C48.5081 8.37443 48.5303 8.30165 48.5659 8.23526C48.6015 8.16886 48.6499 8.11014 48.7082 8.06242C48.7665 8.01471 48.8337 7.97896 48.9058 7.95719C48.9779 7.93543 49.0536 7.92809 49.1286 7.93559C49.2036 7.94308 49.2764 7.96527 49.3428 8.00088C49.4091 8.0365 49.4679 8.08485 49.5156 8.14317C49.5633 8.20148 49.5991 8.26863 49.6208 8.34076C49.6426 8.4129 49.6499 8.48861 49.6424 8.56358L45.6017 49.4785C45.5791 49.6135 45.5093 49.7361 45.4048 49.8244C45.3002 49.9127 45.1677 49.961 45.0308 49.9606Z" fill="#004E11"/>
<path d="M62.0314 49.9607H61.8792C61.7323 49.9205 61.6073 49.824 61.5313 49.6922C61.4552 49.5603 61.4344 49.4037 61.4732 49.2565L72.5044 8.24645C72.5179 8.16723 72.5478 8.0917 72.5921 8.0247C72.6365 7.95769 72.6943 7.90068 72.762 7.85732C72.8297 7.81397 72.9056 7.78523 72.985 7.77292C73.0644 7.76061 73.1456 7.76503 73.2232 7.78587C73.3008 7.80672 73.3732 7.84353 73.4357 7.89397C73.4983 7.94441 73.5496 8.00735 73.5865 8.07877C73.6233 8.15019 73.6448 8.22851 73.6497 8.30873C73.6545 8.38894 73.6425 8.46927 73.6145 8.54459L62.5833 49.5674C62.5463 49.6838 62.4724 49.7851 62.3729 49.856C62.2734 49.9269 62.1536 49.9637 62.0314 49.9607Z" fill="#004E11"/>
<path d="M79.0317 49.9606C78.9514 49.9608 78.8717 49.9457 78.797 49.9162C78.6587 49.8525 78.5507 49.7372 78.4962 49.595C78.4417 49.4527 78.4449 49.2948 78.5052 49.155L96.5205 7.9863C96.5463 7.91066 96.5876 7.84122 96.6417 7.78236C96.6958 7.7235 96.7615 7.6765 96.8347 7.64437C96.9079 7.61224 96.987 7.59568 97.0669 7.5957C97.1469 7.59573 97.2259 7.61237 97.2991 7.64454C97.3723 7.67672 97.438 7.72375 97.492 7.78265C97.5461 7.84154 97.5873 7.91103 97.6131 7.98669C97.6389 8.06235 97.6487 8.14254 97.6419 8.22218C97.6351 8.30183 97.6118 8.3792 97.5735 8.44938L79.5582 49.618C79.5129 49.7199 79.4391 49.8064 79.3457 49.8672C79.2522 49.928 79.1432 49.9604 79.0317 49.9606Z" fill="#004E11"/>
<g opacity="0.7">
<path d="M79.0317 49.9606H11.0305C10.9017 49.9613 10.7765 49.9185 10.6752 49.839C10.5738 49.7595 10.5023 49.6482 10.4723 49.5229L0.532167 8.92518C0.515199 8.83972 0.516014 8.75168 0.534567 8.66655C0.553121 8.58142 0.589014 8.50104 0.640004 8.43039C0.694736 8.3637 0.763433 8.30981 0.84125 8.27255C0.919067 8.23528 1.00411 8.21555 1.09038 8.21472H96.3873C96.4821 8.21515 96.5755 8.23842 96.6594 8.28259C96.7433 8.32676 96.8153 8.39052 96.8694 8.46845C96.9198 8.54923 96.9502 8.6409 96.9579 8.73581C96.9656 8.83073 96.9505 8.92611 96.9138 9.01398L79.5582 49.6117C79.5153 49.7157 79.4422 49.8045 79.3484 49.8667C79.2545 49.9289 79.1443 49.9616 79.0317 49.9606ZM11.4809 48.8442H78.6511L95.5182 9.41996H1.82622L11.4809 48.8442Z" fill="#FAFAFA"/>
<path d="M87.8932 29.2494H5.55588C5.41403 29.2344 5.28273 29.1675 5.1873 29.0615C5.09187 28.9555 5.03906 28.8179 5.03906 28.6753C5.03906 28.5326 5.09187 28.3951 5.1873 28.2891C5.28273 28.183 5.41403 28.1161 5.55588 28.1012H87.8932C88.0351 28.1161 88.1664 28.183 88.2618 28.2891C88.3572 28.3951 88.41 28.5326 88.41 28.6753C88.41 28.8179 88.3572 28.9555 88.2618 29.0615C88.1664 29.1675 88.0351 29.2344 87.8932 29.2494Z" fill="#FAFAFA"/>
<path d="M11.0304 49.9607C10.9016 49.9614 10.7764 49.9185 10.675 49.8391C10.5737 49.7596 10.5022 49.6482 10.4721 49.523L0.532048 8.92523C0.505622 8.84927 0.495361 8.76862 0.501926 8.68846C0.508491 8.6083 0.531732 8.53039 0.570165 8.45974C0.608598 8.38909 0.661375 8.32724 0.725105 8.27818C0.788836 8.22911 0.862115 8.19391 0.940246 8.17482C1.01838 8.15573 1.09964 8.15318 1.17881 8.16733C1.25799 8.18148 1.33333 8.21203 1.40001 8.257C1.46669 8.30197 1.52324 8.36037 1.56603 8.42848C1.60882 8.49658 1.6369 8.57288 1.64848 8.65247L11.5886 49.2502C11.6066 49.324 11.6098 49.4005 11.5982 49.4755C11.5865 49.5505 11.5602 49.6224 11.5208 49.6872C11.4813 49.752 11.4294 49.8084 11.3681 49.8532C11.3068 49.8979 11.2373 49.9301 11.1636 49.948L11.0304 49.9607Z" fill="#FAFAFA"/>
<path d="M28.0496 49.9606C27.9046 49.9609 27.7649 49.906 27.6588 49.807C27.5528 49.7081 27.4884 49.5725 27.4787 49.4277L24.529 8.70312C24.5203 8.6261 24.5273 8.54811 24.5497 8.47389C24.572 8.39968 24.6093 8.33079 24.6592 8.27144C24.709 8.21209 24.7704 8.16351 24.8397 8.12867C24.9089 8.09383 24.9845 8.07345 25.0619 8.06878C25.1387 8.05811 25.2169 8.06358 25.2915 8.08482C25.3661 8.10607 25.4355 8.14261 25.4952 8.19215C25.5548 8.24169 25.6035 8.30312 25.6382 8.37253C25.6728 8.44194 25.6926 8.51779 25.6962 8.59527L28.6459 49.3199C28.6538 49.3968 28.6461 49.4744 28.6234 49.5482C28.6006 49.6221 28.5633 49.6906 28.5136 49.7498C28.464 49.8089 28.4029 49.8575 28.3341 49.8926C28.2653 49.9277 28.1901 49.9487 28.1131 49.9542L28.0496 49.9606Z" fill="#FAFAFA"/>
<path d="M45.0308 49.9606H44.9737C44.898 49.9535 44.8244 49.9314 44.7574 49.8955C44.6904 49.8596 44.6312 49.8106 44.5833 49.7515C44.5355 49.6925 44.4999 49.6244 44.4787 49.5514C44.4575 49.4783 44.4511 49.4018 44.4599 49.3263L48.5006 8.4494C48.5081 8.37443 48.5303 8.30165 48.5659 8.23526C48.6015 8.16886 48.6499 8.11014 48.7082 8.06242C48.7665 8.01471 48.8337 7.97896 48.9058 7.95719C48.9779 7.93543 49.0536 7.92809 49.1286 7.93559C49.2036 7.94308 49.2764 7.96527 49.3428 8.00088C49.4091 8.0365 49.4679 8.08485 49.5156 8.14317C49.5633 8.20148 49.5991 8.26863 49.6208 8.34076C49.6426 8.4129 49.6499 8.48861 49.6424 8.56358L45.6017 49.4785C45.5791 49.6135 45.5093 49.7361 45.4048 49.8244C45.3002 49.9127 45.1677 49.961 45.0308 49.9606Z" fill="#FAFAFA"/>
<path d="M62.0314 49.9607H61.8792C61.7323 49.9205 61.6073 49.824 61.5313 49.6922C61.4552 49.5603 61.4344 49.4037 61.4732 49.2565L72.5044 8.24645C72.5179 8.16723 72.5478 8.0917 72.5921 8.0247C72.6365 7.95769 72.6943 7.90068 72.762 7.85732C72.8297 7.81397 72.9056 7.78523 72.985 7.77292C73.0644 7.76061 73.1456 7.76503 73.2232 7.78587C73.3008 7.80672 73.3732 7.84353 73.4357 7.89397C73.4983 7.94441 73.5496 8.00735 73.5865 8.07877C73.6233 8.15019 73.6448 8.22851 73.6497 8.30873C73.6545 8.38894 73.6425 8.46927 73.6145 8.54459L62.5833 49.5674C62.5463 49.6838 62.4724 49.7851 62.3729 49.856C62.2734 49.9269 62.1536 49.9637 62.0314 49.9607Z" fill="#FAFAFA"/>
<path d="M79.0317 49.9606C78.9514 49.9608 78.8717 49.9457 78.797 49.9162C78.6587 49.8525 78.5507 49.7372 78.4962 49.595C78.4417 49.4527 78.4449 49.2948 78.5052 49.155L96.5205 7.9863C96.5463 7.91066 96.5876 7.84122 96.6417 7.78236C96.6958 7.7235 96.7615 7.6765 96.8347 7.64437C96.9079 7.61224 96.987 7.59568 97.0669 7.5957C97.1469 7.59573 97.2259 7.61237 97.2991 7.64454C97.3723 7.67672 97.438 7.72375 97.492 7.78265C97.5461 7.84154 97.5873 7.91103 97.6131 7.98669C97.6389 8.06235 97.6487 8.14254 97.6419 8.22218C97.6351 8.30183 97.6118 8.3792 97.5735 8.44938L79.5582 49.618C79.5129 49.7199 79.4391 49.8064 79.3457 49.8672C79.2522 49.928 79.1432 49.9604 79.0317 49.9606Z" fill="#FAFAFA"/>
</g>
<path d="M27.7684 79.862C30.0945 77.5359 30.0945 73.7644 27.7684 71.4383C25.4422 69.1122 21.6708 69.1122 19.3447 71.4383C17.0185 73.7644 17.0185 77.5359 19.3447 79.862C21.6708 82.1881 25.4422 82.1881 27.7684 79.862Z" fill="#004E11"/>
<g opacity="0.3">
<path d="M27.7684 79.862C30.0945 77.5359 30.0945 73.7644 27.7684 71.4383C25.4422 69.1122 21.6708 69.1122 19.3447 71.4383C17.0185 73.7644 17.0185 77.5359 19.3447 79.862C21.6708 82.1881 25.4422 82.1881 27.7684 79.862Z" fill="white"/>
</g>
<path opacity="0.2" d="M27.2441 75.6513C27.2441 76.3803 27.0279 77.0928 26.623 77.6989C26.218 78.305 25.6424 78.7774 24.9689 79.0563C24.2955 79.3353 23.5545 79.4082 22.8396 79.266C22.1246 79.1238 21.4679 78.7728 20.9525 78.2574C20.4371 77.7419 20.0861 77.0852 19.9439 76.3703C19.8017 75.6554 19.8746 74.9144 20.1536 74.2409C20.4325 73.5675 20.9049 72.9919 21.511 72.5869C22.1171 72.182 22.8296 71.9658 23.5586 71.9658C24.536 71.9658 25.4734 72.3541 26.1646 73.0453C26.8558 73.7364 27.2441 74.6739 27.2441 75.6513Z" fill="black"/>
<path d="M23.5586 77.3388C24.3959 77.3388 25.0746 76.66 25.0746 75.8227C25.0746 74.9854 24.3959 74.3066 23.5586 74.3066C22.7212 74.3066 22.0425 74.9854 22.0425 75.8227C22.0425 76.66 22.7212 77.3388 23.5586 77.3388Z" fill="#263238"/>
<path d="M75.8806 77.0054C76.6362 73.8037 74.6534 70.5956 71.4517 69.84C68.25 69.0843 65.0419 71.0672 64.2862 74.2689C63.5306 77.4706 65.5135 80.6786 68.7151 81.4343C71.9168 82.19 75.1249 80.2071 75.8806 77.0054Z" fill="#004E11"/>
<g opacity="0.7">
<path opacity="0.3" d="M74.2176 79.8657C76.5437 77.5395 76.5437 73.7681 74.2176 71.442C71.8914 69.1158 68.12 69.1158 65.7939 71.442C63.4677 73.7681 63.4677 77.5395 65.7939 79.8657C68.12 82.1918 71.8914 82.1918 74.2176 79.8657Z" fill="white"/>
</g>
<path opacity="0.2" d="M73.7729 75.6513C73.7729 76.3803 73.5567 77.0928 73.1518 77.6989C72.7468 78.305 72.1712 78.7774 71.4978 79.0563C70.8243 79.3353 70.0833 79.4082 69.3684 79.266C68.6534 79.1238 67.9967 78.7728 67.4813 78.2574C66.9659 77.7419 66.6149 77.0852 66.4727 76.3703C66.3305 75.6554 66.4035 74.9144 66.6824 74.2409C66.9614 73.5675 67.4337 72.9919 68.0398 72.5869C68.6459 72.182 69.3584 71.9658 70.0874 71.9658C70.5714 71.9658 71.0506 72.0611 71.4978 72.2464C71.9449 72.4316 72.3512 72.703 72.6934 73.0453C73.0357 73.3875 73.3071 73.7938 73.4923 74.2409C73.6776 74.6881 73.7729 75.1673 73.7729 75.6513Z" fill="black"/>
<path d="M71.6034 75.8227C71.6034 76.1226 71.5145 76.4157 71.3479 76.665C71.1813 76.9143 70.9446 77.1086 70.6675 77.2234C70.3905 77.3381 70.0857 77.3681 69.7916 77.3097C69.4975 77.2512 69.2274 77.1067 69.0153 76.8947C68.8033 76.6827 68.6589 76.4126 68.6004 76.1185C68.5419 75.8244 68.572 75.5196 68.6867 75.2425C68.8014 74.9655 68.9958 74.7287 69.2451 74.5621C69.4944 74.3955 69.7875 74.3066 70.0874 74.3066C70.4889 74.3083 70.8736 74.4686 71.1575 74.7525C71.4415 75.0365 71.6018 75.4211 71.6034 75.8227Z" fill="#263238"/>
</svg>
