<svg width="113" height="85" viewBox="0 0 113 85" fill="none" xmlns="http://www.w3.org/2000/svg">
<path d="M109.645 8.45819e-06C109.03 0.00132117 108.432 0.2016 107.94 0.570911C107.449 0.940221 107.09 1.45873 106.917 2.04893H105.947C103.986 2.06133 102.067 2.62219 100.408 3.66808C98.7488 4.71397 97.4154 6.20318 96.5585 7.96732L93.298 14.7548C93.2646 14.8226 93.245 14.8963 93.2403 14.9718C93.2357 15.0472 93.2461 15.1228 93.2708 15.1942C93.2956 15.2656 93.3343 15.3314 93.3847 15.3877C93.4351 15.444 93.4962 15.4898 93.5644 15.5223C93.6417 15.5593 93.7262 15.5788 93.8118 15.5794C93.9208 15.5791 94.0275 15.548 94.1196 15.4897C94.2116 15.4313 94.2853 15.348 94.332 15.2495L97.5988 8.4621C98.3566 6.88807 99.5405 5.558 101.016 4.62286C102.492 3.68773 104.2 3.18499 105.947 3.17171H106.822C106.885 3.71796 107.104 4.23446 107.453 4.65887C107.803 5.08327 108.268 5.39745 108.792 5.56345C109.316 5.72946 109.877 5.7402 110.407 5.59439C110.937 5.44858 111.414 5.15245 111.779 4.74174C112.145 4.33103 112.384 3.82331 112.467 3.27984C112.55 2.73638 112.475 2.18041 112.249 1.67905C112.023 1.17769 111.657 0.752371 111.195 0.45443C110.733 0.15649 110.195 -0.00133119 109.645 8.45819e-06Z" fill="#004E11"/>
<path opacity="0.3" d="M109.645 8.45819e-06C109.03 0.00132117 108.432 0.2016 107.94 0.570911C107.449 0.940221 107.09 1.45873 106.917 2.04893H105.947C103.986 2.06133 102.067 2.62219 100.408 3.66808C98.7488 4.71397 97.4154 6.20318 96.5585 7.96732L93.298 14.7548C93.2646 14.8226 93.245 14.8963 93.2403 14.9718C93.2357 15.0472 93.2461 15.1228 93.2708 15.1942C93.2956 15.2656 93.3343 15.3314 93.3847 15.3877C93.4351 15.444 93.4962 15.4898 93.5644 15.5223C93.6417 15.5593 93.7262 15.5788 93.8118 15.5794C93.9208 15.5791 94.0275 15.548 94.1196 15.4897C94.2116 15.4313 94.2853 15.348 94.332 15.2495L97.5988 8.4621C98.3566 6.88807 99.5405 5.558 101.016 4.62286C102.492 3.68773 104.2 3.18499 105.947 3.17171H106.822C106.885 3.71796 107.104 4.23446 107.453 4.65887C107.803 5.08327 108.268 5.39745 108.792 5.56345C109.316 5.72946 109.877 5.7402 110.407 5.59439C110.937 5.44858 111.414 5.15245 111.779 4.74174C112.145 4.33103 112.384 3.82331 112.467 3.27984C112.55 2.73638 112.475 2.18041 112.249 1.67905C112.023 1.17769 111.657 0.752371 111.195 0.45443C110.733 0.15649 110.195 -0.00133119 109.645 8.45819e-06Z" fill="white"/>
<path d="M23.5584 76.2219C23.4935 76.2238 23.4289 76.213 23.3681 76.1902C23.2248 76.1398 23.1072 76.0349 23.0407 75.8984C22.9742 75.7618 22.9642 75.6046 23.0129 75.4607L26.3685 65.787C26.3934 65.7161 26.432 65.6509 26.4822 65.5949C26.5324 65.539 26.5931 65.4936 26.6608 65.4612C26.7286 65.4287 26.8021 65.41 26.8771 65.4061C26.9522 65.4021 27.0272 65.413 27.098 65.4381C27.2413 65.4885 27.3589 65.5934 27.4254 65.7299C27.4919 65.8665 27.5019 66.0237 27.4532 66.1676L24.0976 75.8349C24.0592 75.9476 23.9867 76.0455 23.89 76.1148C23.7933 76.1842 23.6774 76.2216 23.5584 76.2219Z" fill="#004E11"/>
<path d="M71.762 76.2227H25.2331C25.0913 76.2078 24.96 76.1409 24.8645 76.0349C24.7691 75.9289 24.7163 75.7913 24.7163 75.6487C24.7163 75.506 24.7691 75.3684 24.8645 75.2624C24.96 75.1564 25.0913 75.0895 25.2331 75.0746H70.9564L67.8671 66.1938C67.8185 66.05 67.8284 65.8927 67.8949 65.7561C67.9614 65.6196 68.0791 65.5148 68.2223 65.4643C68.2931 65.4383 68.3683 65.4268 68.4436 65.4303C68.5189 65.4338 68.5927 65.4524 68.6607 65.4849C68.7287 65.5175 68.7894 65.5633 68.8394 65.6196C68.8895 65.676 68.9277 65.7418 68.9518 65.8132L72.3075 75.4869C72.3364 75.5735 72.3445 75.6657 72.3313 75.756C72.3181 75.8464 72.2839 75.9324 72.2314 76.0071C72.1756 76.0774 72.104 76.1336 72.0225 76.171C71.9409 76.2085 71.8517 76.2262 71.762 76.2227Z" fill="#004E11"/>
<path d="M69.1548 66.5549H10.9223C10.8419 66.5634 10.7605 66.5548 10.6836 66.5298C10.6067 66.5048 10.5358 66.4639 10.4757 66.4098C10.4156 66.3557 10.3675 66.2895 10.3346 66.2156C10.3017 66.1417 10.2847 66.0617 10.2847 65.9808C10.2847 65.8999 10.3017 65.8199 10.3346 65.746C10.3675 65.6721 10.4156 65.6059 10.4757 65.5518C10.5358 65.4977 10.6067 65.4568 10.6836 65.4318C10.7605 65.4068 10.8419 65.3982 10.9223 65.4067H69.1548C71.6206 65.405 73.985 64.4247 75.7286 62.6811C77.4722 60.9375 78.4525 58.5731 78.4542 56.1073V49.3896C78.4457 49.3092 78.4543 49.2278 78.4793 49.1509C78.5042 49.0739 78.5451 49.0031 78.5993 48.943C78.6534 48.8829 78.7196 48.8348 78.7935 48.8019C78.8674 48.769 78.9474 48.752 79.0283 48.752C79.1092 48.752 79.1892 48.769 79.2631 48.8019C79.337 48.8348 79.4031 48.8829 79.4573 48.943C79.5114 49.0031 79.5523 49.0739 79.5773 49.1509C79.6023 49.2278 79.6108 49.3092 79.6023 49.3896V56.1073C79.599 58.8771 78.4972 61.5326 76.5386 63.4911C74.58 65.4497 71.9246 66.5515 69.1548 66.5549Z" fill="#004E11"/>
<path d="M79.0314 48.8438C78.8783 48.8438 78.7315 48.9046 78.6233 49.0128C78.515 49.1211 78.4542 49.2679 78.4542 49.421V56.1387C78.4525 58.6045 77.4722 60.9689 75.7286 62.7125C73.985 64.4561 71.6206 65.4364 69.1548 65.4381H10.9223C10.8419 65.4296 10.7605 65.4381 10.6836 65.4631C10.6067 65.4881 10.5358 65.529 10.4757 65.5832C10.4156 65.6373 10.3675 65.7034 10.3346 65.7773C10.3017 65.8513 10.2847 65.9313 10.2847 66.0122C10.2847 66.0931 10.3017 66.1731 10.3346 66.247C10.3675 66.3209 10.4156 66.387 10.4757 66.4412C10.5358 66.4953 10.6067 66.5362 10.6836 66.5612C10.7605 66.5862 10.8419 66.5947 10.9223 66.5862H26.1465L23.0573 75.467C23.0086 75.6109 23.0186 75.7681 23.0851 75.9047C23.1516 76.0412 23.2692 76.1461 23.4125 76.1965C23.4733 76.2193 23.5379 76.2301 23.6028 76.2282C23.7218 76.228 23.8377 76.1905 23.9344 76.1211C24.0311 76.0517 24.1036 75.9539 24.142 75.8413L27.3644 66.5609H68.0129L70.9626 75.08H25.2331C25.0912 75.095 24.9599 75.1619 24.8645 75.2679C24.769 75.3739 24.7162 75.5115 24.7162 75.6541C24.7162 75.7968 24.769 75.9344 24.8645 76.0404C24.9599 76.1464 25.0912 76.2133 25.2331 76.2282H71.7619C71.8538 76.2288 71.9444 76.2071 72.0261 76.1652C72.1078 76.1232 72.1782 76.0621 72.2313 75.9872C72.2838 75.9125 72.318 75.8265 72.3313 75.7361C72.3445 75.6458 72.3363 75.5536 72.3074 75.467L69.2182 66.5862C71.977 66.5695 74.6171 65.4622 76.5625 63.5061C78.508 61.55 79.6007 58.9038 79.6023 56.145V49.3893C79.5958 49.2423 79.5328 49.1035 79.4264 49.0019C79.32 48.9003 79.1786 48.8436 79.0314 48.8438Z" fill="#004E11"/>
<path opacity="0.6" d="M79.0314 48.8438C78.8783 48.8438 78.7315 48.9046 78.6233 49.0128C78.515 49.1211 78.4542 49.2679 78.4542 49.421V56.1387C78.4525 58.6045 77.4722 60.9689 75.7286 62.7125C73.985 64.4561 71.6206 65.4364 69.1548 65.4381H10.9223C10.8419 65.4296 10.7605 65.4381 10.6836 65.4631C10.6067 65.4881 10.5358 65.529 10.4757 65.5832C10.4156 65.6373 10.3675 65.7034 10.3346 65.7773C10.3017 65.8513 10.2847 65.9313 10.2847 66.0122C10.2847 66.0931 10.3017 66.1731 10.3346 66.247C10.3675 66.3209 10.4156 66.387 10.4757 66.4412C10.5358 66.4953 10.6067 66.5362 10.6836 66.5612C10.7605 66.5862 10.8419 66.5947 10.9223 66.5862H26.1465L23.0573 75.467C23.0086 75.6109 23.0186 75.7681 23.0851 75.9047C23.1516 76.0412 23.2692 76.1461 23.4125 76.1965C23.4733 76.2193 23.5379 76.2301 23.6028 76.2282C23.7218 76.228 23.8377 76.1905 23.9344 76.1211C24.0311 76.0517 24.1036 75.9539 24.142 75.8413L27.3644 66.5609H68.0129L70.9626 75.08H25.2331C25.0912 75.095 24.9599 75.1619 24.8645 75.2679C24.769 75.3739 24.7162 75.5115 24.7162 75.6541C24.7162 75.7968 24.769 75.9344 24.8645 76.0404C24.9599 76.1464 25.0912 76.2133 25.2331 76.2282H71.7619C71.8538 76.2288 71.9444 76.2071 72.0261 76.1652C72.1078 76.1232 72.1782 76.0621 72.2313 75.9872C72.2838 75.9125 72.318 75.8265 72.3313 75.7361C72.3445 75.6458 72.3363 75.5536 72.3074 75.467L69.2182 66.5862C71.977 66.5695 74.6171 65.4622 76.5625 63.5061C78.508 61.55 79.6007 58.9038 79.6023 56.145V49.3893C79.5958 49.2423 79.5328 49.1035 79.4264 49.0019C79.32 48.9003 79.1786 48.8436 79.0314 48.8438Z" fill="white"/>
<path d="M79.0317 49.9608H11.0305C10.9017 49.9614 10.7765 49.9186 10.6752 49.8391C10.5738 49.7597 10.5023 49.6483 10.4723 49.5231L0.532167 8.9253C0.515199 8.83984 0.516014 8.7518 0.534567 8.66667C0.553121 8.58154 0.589014 8.50116 0.640004 8.43052C0.694736 8.36382 0.763433 8.30993 0.84125 8.27267C0.919067 8.2354 1.00411 8.21567 1.09038 8.21484H96.3873C96.4821 8.21527 96.5755 8.23854 96.6594 8.28271C96.7433 8.32688 96.8153 8.39065 96.8694 8.46858C96.9198 8.54935 96.9502 8.64103 96.9579 8.73594C96.9656 8.83085 96.9505 8.92623 96.9138 9.0141L79.5582 49.6119C79.5153 49.7159 79.4422 49.8047 79.3484 49.8668C79.2545 49.929 79.1443 49.9617 79.0317 49.9608ZM11.4809 48.8443H78.6511L95.5182 9.42009H1.82622L11.4809 48.8443Z" fill="#004E11"/>
<path d="M87.8932 29.2497H5.55588C5.41403 29.2348 5.28273 29.1679 5.1873 29.0619C5.09187 28.9559 5.03906 28.8183 5.03906 28.6756C5.03906 28.533 5.09187 28.3954 5.1873 28.2894C5.28273 28.1834 5.41403 28.1165 5.55588 28.1016H87.8932C88.0351 28.1165 88.1664 28.1834 88.2618 28.2894C88.3572 28.3954 88.41 28.533 88.41 28.6756C88.41 28.8183 88.3572 28.9559 88.2618 29.0619C88.1664 29.1679 88.0351 29.2348 87.8932 29.2497Z" fill="#004E11"/>
<path d="M11.0304 49.9606C10.9016 49.9613 10.7764 49.9184 10.675 49.8389C10.5737 49.7595 10.5022 49.6481 10.4721 49.5229L0.532048 8.92511C0.505622 8.84915 0.495361 8.7685 0.501926 8.68834C0.508491 8.60818 0.531732 8.53027 0.570165 8.45962C0.608598 8.38896 0.661375 8.32712 0.725105 8.27805C0.788836 8.22899 0.862115 8.19379 0.940246 8.1747C1.01838 8.15561 1.09964 8.15306 1.17881 8.16721C1.25799 8.18136 1.33333 8.2119 1.40001 8.25688C1.46669 8.30185 1.52324 8.36025 1.56603 8.42835C1.60882 8.49646 1.6369 8.57276 1.64848 8.65235L11.5886 49.2501C11.6066 49.3238 11.6098 49.4004 11.5982 49.4754C11.5865 49.5504 11.5602 49.6223 11.5208 49.6871C11.4813 49.7519 11.4294 49.8083 11.3681 49.8531C11.3068 49.8978 11.2373 49.93 11.1636 49.9479L11.0304 49.9606Z" fill="#004E11"/>
<path d="M28.0496 49.9606C27.9046 49.9609 27.7649 49.906 27.6588 49.807C27.5528 49.7081 27.4884 49.5725 27.4787 49.4277L24.529 8.70312C24.5203 8.6261 24.5273 8.54811 24.5497 8.47389C24.572 8.39968 24.6093 8.33079 24.6592 8.27144C24.709 8.21209 24.7704 8.16351 24.8397 8.12867C24.9089 8.09383 24.9845 8.07345 25.0619 8.06878C25.1387 8.05811 25.2169 8.06358 25.2915 8.08482C25.3661 8.10607 25.4355 8.14261 25.4952 8.19215C25.5548 8.24169 25.6035 8.30312 25.6382 8.37253C25.6728 8.44194 25.6926 8.51779 25.6962 8.59527L28.6459 49.3199C28.6538 49.3968 28.6461 49.4744 28.6234 49.5482C28.6006 49.6221 28.5633 49.6906 28.5136 49.7498C28.464 49.8089 28.4029 49.8575 28.3341 49.8926C28.2653 49.9277 28.1901 49.9487 28.1131 49.9542L28.0496 49.9606Z" fill="#004E11"/>
<path d="M45.0308 49.9605H44.9737C44.898 49.9534 44.8244 49.9312 44.7574 49.8953C44.6904 49.8594 44.6312 49.8105 44.5833 49.7514C44.5355 49.6923 44.4999 49.6243 44.4787 49.5512C44.4575 49.4782 44.4511 49.4017 44.4599 49.3262L48.5006 8.44928C48.5081 8.37431 48.5303 8.30153 48.5659 8.23514C48.6015 8.16874 48.6499 8.11001 48.7082 8.0623C48.7665 8.01459 48.8337 7.97883 48.9058 7.95707C48.9779 7.93531 49.0536 7.92797 49.1286 7.93547C49.2036 7.94296 49.2764 7.96514 49.3428 8.00076C49.4091 8.03638 49.4679 8.08473 49.5156 8.14305C49.5633 8.20136 49.5991 8.2685 49.6208 8.34064C49.6426 8.41277 49.6499 8.48848 49.6424 8.56346L45.6017 49.4784C45.5791 49.6134 45.5093 49.736 45.4048 49.8243C45.3002 49.9126 45.1677 49.9609 45.0308 49.9605Z" fill="#004E11"/>
<path d="M62.0314 49.9602H61.8792C61.7323 49.92 61.6073 49.8235 61.5313 49.6917C61.4552 49.5598 61.4344 49.4032 61.4732 49.256L72.5044 8.24596C72.5179 8.16674 72.5478 8.09122 72.5921 8.02421C72.6365 7.9572 72.6943 7.90019 72.762 7.85684C72.8297 7.81348 72.9056 7.78474 72.985 7.77243C73.0644 7.76013 73.1456 7.76454 73.2232 7.78538C73.3008 7.80623 73.3732 7.84305 73.4357 7.89348C73.4983 7.94392 73.5496 8.00686 73.5865 8.07828C73.6233 8.1497 73.6448 8.22802 73.6497 8.30824C73.6545 8.38845 73.6425 8.46878 73.6145 8.5441L62.5833 49.5669C62.5463 49.6833 62.4724 49.7846 62.3729 49.8555C62.2734 49.9265 62.1536 49.9632 62.0314 49.9602Z" fill="#004E11"/>
<path d="M79.0317 49.9606C78.9514 49.9608 78.8717 49.9457 78.797 49.9162C78.6587 49.8525 78.5507 49.7372 78.4962 49.595C78.4417 49.4527 78.4449 49.2948 78.5052 49.155L96.5205 7.9863C96.5463 7.91066 96.5876 7.84122 96.6417 7.78236C96.6958 7.7235 96.7615 7.6765 96.8347 7.64437C96.9079 7.61224 96.987 7.59568 97.0669 7.5957C97.1469 7.59573 97.2259 7.61237 97.2991 7.64454C97.3723 7.67672 97.438 7.72375 97.492 7.78265C97.5461 7.84154 97.5873 7.91103 97.6131 7.98669C97.6389 8.06235 97.6487 8.14254 97.6419 8.22218C97.6351 8.30183 97.6118 8.3792 97.5735 8.44938L79.5582 49.618C79.5129 49.7199 79.4391 49.8064 79.3457 49.8672C79.2522 49.928 79.1432 49.9604 79.0317 49.9606Z" fill="#004E11"/>
<g opacity="0.7">
<path d="M79.0317 49.9608H11.0305C10.9017 49.9614 10.7765 49.9186 10.6752 49.8391C10.5738 49.7597 10.5023 49.6483 10.4723 49.5231L0.532167 8.9253C0.515199 8.83984 0.516014 8.7518 0.534567 8.66667C0.553121 8.58154 0.589014 8.50116 0.640004 8.43052C0.694736 8.36382 0.763433 8.30993 0.84125 8.27267C0.919067 8.2354 1.00411 8.21567 1.09038 8.21484H96.3873C96.4821 8.21527 96.5755 8.23854 96.6594 8.28271C96.7433 8.32688 96.8153 8.39065 96.8694 8.46858C96.9198 8.54935 96.9502 8.64103 96.9579 8.73594C96.9656 8.83085 96.9505 8.92623 96.9138 9.0141L79.5582 49.6119C79.5153 49.7159 79.4422 49.8047 79.3484 49.8668C79.2545 49.929 79.1443 49.9617 79.0317 49.9608ZM11.4809 48.8443H78.6511L95.5182 9.42009H1.82622L11.4809 48.8443Z" fill="#FAFAFA"/>
<path d="M87.8932 29.2497H5.55588C5.41403 29.2348 5.28273 29.1679 5.1873 29.0619C5.09187 28.9559 5.03906 28.8183 5.03906 28.6756C5.03906 28.533 5.09187 28.3954 5.1873 28.2894C5.28273 28.1834 5.41403 28.1165 5.55588 28.1016H87.8932C88.0351 28.1165 88.1664 28.1834 88.2618 28.2894C88.3572 28.3954 88.41 28.533 88.41 28.6756C88.41 28.8183 88.3572 28.9559 88.2618 29.0619C88.1664 29.1679 88.0351 29.2348 87.8932 29.2497Z" fill="#FAFAFA"/>
<path d="M11.0304 49.9606C10.9016 49.9613 10.7764 49.9184 10.675 49.8389C10.5737 49.7595 10.5022 49.6481 10.4721 49.5229L0.532048 8.92511C0.505622 8.84915 0.495361 8.7685 0.501926 8.68834C0.508491 8.60818 0.531732 8.53027 0.570165 8.45962C0.608598 8.38896 0.661375 8.32712 0.725105 8.27805C0.788836 8.22899 0.862115 8.19379 0.940246 8.1747C1.01838 8.15561 1.09964 8.15306 1.17881 8.16721C1.25799 8.18136 1.33333 8.2119 1.40001 8.25688C1.46669 8.30185 1.52324 8.36025 1.56603 8.42835C1.60882 8.49646 1.6369 8.57276 1.64848 8.65235L11.5886 49.2501C11.6066 49.3238 11.6098 49.4004 11.5982 49.4754C11.5865 49.5504 11.5602 49.6223 11.5208 49.6871C11.4813 49.7519 11.4294 49.8083 11.3681 49.8531C11.3068 49.8978 11.2373 49.93 11.1636 49.9479L11.0304 49.9606Z" fill="#FAFAFA"/>
<path d="M28.0496 49.9606C27.9046 49.9609 27.7649 49.906 27.6588 49.807C27.5528 49.7081 27.4884 49.5725 27.4787 49.4277L24.529 8.70312C24.5203 8.6261 24.5273 8.54811 24.5497 8.47389C24.572 8.39968 24.6093 8.33079 24.6592 8.27144C24.709 8.21209 24.7704 8.16351 24.8397 8.12867C24.9089 8.09383 24.9845 8.07345 25.0619 8.06878C25.1387 8.05811 25.2169 8.06358 25.2915 8.08482C25.3661 8.10607 25.4355 8.14261 25.4952 8.19215C25.5548 8.24169 25.6035 8.30312 25.6382 8.37253C25.6728 8.44194 25.6926 8.51779 25.6962 8.59527L28.6459 49.3199C28.6538 49.3968 28.6461 49.4744 28.6234 49.5482C28.6006 49.6221 28.5633 49.6906 28.5136 49.7498C28.464 49.8089 28.4029 49.8575 28.3341 49.8926C28.2653 49.9277 28.1901 49.9487 28.1131 49.9542L28.0496 49.9606Z" fill="#FAFAFA"/>
<path d="M45.0308 49.9605H44.9737C44.898 49.9534 44.8244 49.9312 44.7574 49.8953C44.6904 49.8594 44.6312 49.8105 44.5833 49.7514C44.5355 49.6923 44.4999 49.6243 44.4787 49.5512C44.4575 49.4782 44.4511 49.4017 44.4599 49.3262L48.5006 8.44928C48.5081 8.37431 48.5303 8.30153 48.5659 8.23514C48.6015 8.16874 48.6499 8.11001 48.7082 8.0623C48.7665 8.01459 48.8337 7.97883 48.9058 7.95707C48.9779 7.93531 49.0536 7.92797 49.1286 7.93547C49.2036 7.94296 49.2764 7.96514 49.3428 8.00076C49.4091 8.03638 49.4679 8.08473 49.5156 8.14305C49.5633 8.20136 49.5991 8.2685 49.6208 8.34064C49.6426 8.41277 49.6499 8.48848 49.6424 8.56346L45.6017 49.4784C45.5791 49.6134 45.5093 49.736 45.4048 49.8243C45.3002 49.9126 45.1677 49.9609 45.0308 49.9605Z" fill="#FAFAFA"/>
<path d="M62.0314 49.9602H61.8792C61.7323 49.92 61.6073 49.8235 61.5313 49.6917C61.4552 49.5598 61.4344 49.4032 61.4732 49.256L72.5044 8.24596C72.5179 8.16674 72.5478 8.09122 72.5921 8.02421C72.6365 7.9572 72.6943 7.90019 72.762 7.85684C72.8297 7.81348 72.9056 7.78474 72.985 7.77243C73.0644 7.76013 73.1456 7.76454 73.2232 7.78538C73.3008 7.80623 73.3732 7.84305 73.4357 7.89348C73.4983 7.94392 73.5496 8.00686 73.5865 8.07828C73.6233 8.1497 73.6448 8.22802 73.6497 8.30824C73.6545 8.38845 73.6425 8.46878 73.6145 8.5441L62.5833 49.5669C62.5463 49.6833 62.4724 49.7846 62.3729 49.8555C62.2734 49.9265 62.1536 49.9632 62.0314 49.9602Z" fill="#FAFAFA"/>
<path d="M79.0317 49.9606C78.9514 49.9608 78.8717 49.9457 78.797 49.9162C78.6587 49.8525 78.5507 49.7372 78.4962 49.595C78.4417 49.4527 78.4449 49.2948 78.5052 49.155L96.5205 7.9863C96.5463 7.91066 96.5876 7.84122 96.6417 7.78236C96.6958 7.7235 96.7615 7.6765 96.8347 7.64437C96.9079 7.61224 96.987 7.59568 97.0669 7.5957C97.1469 7.59573 97.2259 7.61237 97.2991 7.64454C97.3723 7.67672 97.438 7.72375 97.492 7.78265C97.5461 7.84154 97.5873 7.91103 97.6131 7.98669C97.6389 8.06235 97.6487 8.14254 97.6419 8.22218C97.6351 8.30183 97.6118 8.3792 97.5735 8.44938L79.5582 49.618C79.5129 49.7199 79.4391 49.8064 79.3457 49.8672C79.2522 49.928 79.1432 49.9604 79.0317 49.9606Z" fill="#FAFAFA"/>
</g>
<path d="M27.7684 79.8622C30.0945 77.5361 30.0945 73.7647 27.7684 71.4386C25.4422 69.1124 21.6708 69.1124 19.3447 71.4385C17.0185 73.7647 17.0185 77.5361 19.3447 79.8622C21.6708 82.1884 25.4422 82.1884 27.7684 79.8622Z" fill="#004E11"/>
<g opacity="0.3">
<path d="M27.7684 79.8622C30.0945 77.5361 30.0945 73.7647 27.7684 71.4386C25.4422 69.1124 21.6708 69.1124 19.3447 71.4385C17.0185 73.7647 17.0185 77.5361 19.3447 79.8622C21.6708 82.1884 25.4422 82.1884 27.7684 79.8622Z" fill="white"/>
</g>
<path opacity="0.2" d="M27.2441 75.6513C27.2441 76.3803 27.0279 77.0928 26.623 77.6989C26.218 78.305 25.6424 78.7774 24.9689 79.0563C24.2955 79.3353 23.5545 79.4082 22.8396 79.266C22.1246 79.1238 21.4679 78.7728 20.9525 78.2574C20.4371 77.7419 20.0861 77.0852 19.9439 76.3703C19.8017 75.6554 19.8746 74.9144 20.1536 74.2409C20.4325 73.5675 20.9049 72.9919 21.511 72.5869C22.1171 72.182 22.8296 71.9658 23.5586 71.9658C24.536 71.9658 25.4734 72.3541 26.1646 73.0453C26.8558 73.7364 27.2441 74.6739 27.2441 75.6513Z" fill="black"/>
<path d="M23.5586 77.3388C24.3959 77.3388 25.0746 76.66 25.0746 75.8227C25.0746 74.9854 24.3959 74.3066 23.5586 74.3066C22.7212 74.3066 22.0425 74.9854 22.0425 75.8227C22.0425 76.66 22.7212 77.3388 23.5586 77.3388Z" fill="#263238"/>
<path d="M75.8806 77.0057C76.6362 73.8041 74.6534 70.596 71.4517 69.8403C68.25 69.0847 65.0419 71.0675 64.2862 74.2692C63.5306 77.4709 65.5135 80.679 68.7151 81.4347C71.9168 82.1903 75.1249 80.2074 75.8806 77.0057Z" fill="#004E11"/>
<g opacity="0.7">
<path opacity="0.3" d="M74.2176 79.8661C76.5437 77.54 76.5437 73.7686 74.2176 71.4425C71.8914 69.1163 68.12 69.1163 65.7939 71.4424C63.4677 73.7686 63.4677 77.54 65.7939 79.8662C68.12 82.1923 71.8914 82.1923 74.2176 79.8661Z" fill="white"/>
</g>
<path opacity="0.2" d="M73.7729 75.6513C73.7729 76.3803 73.5567 77.0928 73.1518 77.6989C72.7468 78.305 72.1712 78.7774 71.4978 79.0563C70.8243 79.3353 70.0833 79.4082 69.3684 79.266C68.6534 79.1238 67.9967 78.7728 67.4813 78.2574C66.9659 77.7419 66.6149 77.0852 66.4727 76.3703C66.3305 75.6554 66.4035 74.9144 66.6824 74.2409C66.9614 73.5675 67.4337 72.9919 68.0398 72.5869C68.6459 72.182 69.3584 71.9658 70.0874 71.9658C70.5714 71.9658 71.0506 72.0611 71.4978 72.2464C71.9449 72.4316 72.3512 72.703 72.6934 73.0453C73.0357 73.3875 73.3071 73.7938 73.4923 74.2409C73.6776 74.6881 73.7729 75.1673 73.7729 75.6513Z" fill="black"/>
<path d="M71.6034 75.8227C71.6034 76.1226 71.5145 76.4157 71.3479 76.665C71.1813 76.9143 70.9446 77.1086 70.6675 77.2234C70.3905 77.3381 70.0857 77.3681 69.7916 77.3097C69.4975 77.2512 69.2274 77.1067 69.0153 76.8947C68.8033 76.6827 68.6589 76.4126 68.6004 76.1185C68.5419 75.8244 68.572 75.5196 68.6867 75.2425C68.8014 74.9655 68.9958 74.7287 69.2451 74.5621C69.4944 74.3955 69.7875 74.3066 70.0874 74.3066C70.4889 74.3083 70.8736 74.4686 71.1575 74.7525C71.4415 75.0365 71.6018 75.4211 71.6034 75.8227Z" fill="#263238"/>
</svg>
