<svg width="43" height="43" viewBox="0 0 43 43" fill="none" xmlns="http://www.w3.org/2000/svg">
<path d="M16.0294 2.12866L14.1062 5.01353H16.6857L18.6089 2.12866H16.0294ZM20.4257 2.12866L18.5027 5.01353H24.4706L22.5476 2.12866H20.4257H20.4257ZM24.3646 2.12866L26.2879 5.01353H28.8674L26.9441 2.12866H24.3646ZM14.5188 6.52524L18.7277 10.7341L16.6232 6.52524H14.5188ZM18.3134 6.52524L21.4867 12.8719L24.6601 6.52516L18.3134 6.52524ZM26.3503 6.52524L24.2458 10.7341L28.4547 6.52524H26.3503ZM15.0598 9.20418C9.15471 11.7158 5 17.5771 5 24.3847C5 33.4705 12.4009 40.8713 21.4867 40.8713C30.5726 40.8713 37.9734 33.4706 37.9734 24.3847C37.9734 17.5772 33.8187 11.7158 27.9136 9.20418L25.3507 11.7671C30.759 13.4125 34.676 18.4264 34.676 24.3848C34.676 31.6886 28.7904 37.5741 21.4867 37.5741C14.1829 37.5741 8.29739 31.6885 8.29739 24.3848C8.29739 18.4264 12.2144 13.4126 17.6228 11.7672L15.0598 9.20435V9.20418Z" fill="#7EA342"/>
</svg>
