<svg width="24" height="25" viewBox="0 0 24 25" fill="none" xmlns="http://www.w3.org/2000/svg">
<path d="M2 5.07227V19.0723H22V5.07227H2ZM7 17.0723C7 16.2766 6.68393 15.5136 6.12132 14.9509C5.55871 14.3883 4.79565 14.0723 4 14.0723V10.0723C4.79565 10.0723 5.55871 9.7562 6.12132 9.19359C6.68393 8.63098 7 7.86792 7 7.07227H17C17 7.86792 17.3161 8.63098 17.8787 9.19359C18.4413 9.7562 19.2044 10.0723 20 10.0723V14.0723C19.2044 14.0723 18.4413 14.3883 17.8787 14.9509C17.3161 15.5136 17 16.2766 17 17.0723H7ZM12 9.07227C13.1 9.07227 14 10.3723 14 12.0723C14 13.7723 13.1 15.0723 12 15.0723C10.9 15.0723 10 13.7723 10 12.0723C10 10.3723 10.9 9.07227 12 9.07227Z" fill="#004E11"/>
</svg>
