<svg width="113" height="84" viewBox="0 0 113 84" fill="none" xmlns="http://www.w3.org/2000/svg">
<path d="M112.5 73.3379H0.5V73.3939H112.5V73.3379Z" fill="#EBEBEB"/>
<path d="M19.6708 75.4697H12.252V75.5257H19.6708V75.4697Z" fill="#EBEBEB"/>
<path d="M48.3627 74.8633H38.8359V74.9193H48.3627V74.8633Z" fill="#EBEBEB"/>
<path d="M25.7361 76.2559H21.4375V76.3119H25.7361V76.2559Z" fill="#EBEBEB"/>
<path d="M101.279 77.1748H97.8672V77.2308H101.279V77.1748Z" fill="#EBEBEB"/>
<path d="M95.8704 77.1748H88.1895V77.2308H95.8704V77.1748Z" fill="#EBEBEB"/>
<path d="M74.8301 75.5615H69.4922V75.6175H74.8301V75.5615Z" fill="#EBEBEB"/>
<path d="M53.5876 63.3472H10.3376C9.99841 63.3472 9.67308 63.2124 9.43322 62.9726C9.19335 62.7327 9.05859 62.4074 9.05859 62.0682V1.26784C9.06155 0.930562 9.19761 0.608103 9.43715 0.370654C9.6767 0.133204 10.0003 -1.29306e-05 10.3376 9.41371e-10H53.5876C53.9268 9.41374e-10 54.2521 0.134756 54.492 0.374622C54.7318 0.614489 54.8666 0.939817 54.8666 1.27904V62.0682C54.8666 62.4074 54.7318 62.7327 54.492 62.9726C54.2521 63.2124 53.9268 63.3472 53.5876 63.3472ZM10.3376 0.0448002C10.0134 0.0453923 9.7027 0.174438 9.47347 0.403674C9.24423 0.63291 9.11519 0.943651 9.11459 1.26784V62.0682C9.11519 62.3923 9.24423 62.7031 9.47347 62.9323C9.7027 63.1616 10.0134 63.2906 10.3376 63.2912H53.5876C53.9117 63.2906 54.2225 63.1616 54.4517 62.9323C54.681 62.7031 54.81 62.3923 54.8106 62.0682V1.26784C54.81 0.943651 54.681 0.63291 54.4517 0.403674C54.2225 0.174438 53.9117 0.0453923 53.5876 0.0448002H10.3376Z" fill="#EBEBEB"/>
<path d="M102.041 63.3472H58.7869C58.4478 63.3466 58.1228 63.2117 57.8831 62.9719C57.6434 62.7322 57.5084 62.4072 57.5078 62.0682V1.26784C57.5113 0.930745 57.6476 0.608625 57.887 0.371301C58.1264 0.133976 58.4497 0.000570817 58.7869 0H102.041C102.378 0.00116581 102.7 0.134904 102.939 0.372227C103.177 0.60955 103.313 0.931336 103.316 1.26784V62.0682C103.316 62.4066 103.182 62.7313 102.943 62.971C102.704 63.2107 102.38 63.346 102.041 63.3472ZM58.7869 0.0448002C58.4627 0.0453923 58.1519 0.174438 57.9227 0.403674C57.6934 0.63291 57.5644 0.943651 57.5638 1.26784V62.0682C57.5644 62.3923 57.6934 62.7031 57.9227 62.9323C58.1519 63.1616 58.4627 63.2906 58.7869 63.2912H102.041C102.365 63.2906 102.676 63.1616 102.905 62.9323C103.135 62.7031 103.264 62.3923 103.264 62.0682V1.26784C103.264 0.943651 103.135 0.63291 102.905 0.403674C102.676 0.174438 102.365 0.0453923 102.041 0.0448002H58.7869Z" fill="#EBEBEB"/>
<path d="M69.3801 31.667L93.543 31.667V7.43915L69.3801 7.43915V31.667Z" fill="#F0F0F0"/>
<path d="M69.3795 7.44141H68.9629V31.6692H69.3795V7.44141Z" fill="#E0E0E0"/>
<path d="M71.5145 30.1367L91.4102 30.1367V8.96872L71.5145 8.96872V30.1367Z" fill="#FAFAFA"/>
<path d="M79.3473 25.5358H85.6484C87.0148 25.5358 87.9287 24.4292 87.689 23.0718L86.4637 16.0538C86.3276 15.3748 85.9658 14.7618 85.4371 14.3144C84.9084 13.8671 84.244 13.6117 83.5518 13.5898H77.2663C75.8999 13.5898 74.986 14.6964 75.2257 16.0538L76.451 23.0718C76.5861 23.7484 76.9455 24.3598 77.4711 24.8069C77.9967 25.254 78.6577 25.5108 79.3473 25.5358Z" fill="#F0F0F0"/>
<path d="M24.0127 39.0254H18.6367V72.1886H24.0127V39.0254Z" fill="#F0F0F0"/>
<path d="M47.6022 72.1904H19.1855V73.3351H47.6022V72.1904Z" fill="#F0F0F0"/>
<path d="M24.0141 72.1904H48.0762L48.0762 39.0272H24.0141L24.0141 72.1904Z" fill="#F5F5F5"/>
<path d="M24.9807 62.2158H47.1074V56.2933H24.9807V62.2158Z" fill="#F0F0F0"/>
<path d="M24.9807 69.9668H47.1074V64.0442H24.9807V69.9668Z" fill="#F0F0F0"/>
<path d="M44.4899 55.9307H27.6003C27.4543 55.9307 27.3359 56.049 27.3359 56.195V56.4795C27.3359 56.6254 27.4543 56.7438 27.6003 56.7438H44.4899C44.6358 56.7438 44.7542 56.6254 44.7542 56.4795V56.195C44.7542 56.049 44.6358 55.9307 44.4899 55.9307Z" fill="#F5F5F5"/>
<path d="M44.4899 63.6836H27.6003C27.4543 63.6836 27.3359 63.8019 27.3359 63.9479V64.2324C27.3359 64.3784 27.4543 64.4967 27.6003 64.4967H44.4899C44.6358 64.4967 44.7542 64.3784 44.7542 64.2324V63.9479C44.7542 63.8019 44.6358 63.6836 44.4899 63.6836Z" fill="#F5F5F5"/>
<path d="M24.9807 46.7754H47.1074V40.8528H24.9807V46.7754Z" fill="#F0F0F0"/>
<path d="M24.9807 54.4678H47.1074V48.5452H24.9807V54.4678Z" fill="#F0F0F0"/>
<path d="M44.4899 40.4922H27.6003C27.4543 40.4922 27.3359 40.6105 27.3359 40.7565V41.041C27.3359 41.187 27.4543 41.3053 27.6003 41.3053H44.4899C44.6358 41.3053 44.7542 41.187 44.7542 41.041V40.7565C44.7542 40.6105 44.6358 40.4922 44.4899 40.4922Z" fill="#F5F5F5"/>
<path d="M44.4899 48.1797H27.6003C27.4543 48.1797 27.3359 48.298 27.3359 48.444V48.7285C27.3359 48.8745 27.4543 48.9928 27.6003 48.9928H44.4899C44.6358 48.9928 44.7542 48.8745 44.7542 48.7285V48.444C44.7542 48.298 44.6358 48.1797 44.4899 48.1797Z" fill="#F5F5F5"/>
<path d="M47.2043 5.61328H17.0293V32.1035H47.2043V5.61328Z" fill="#E6E6E6"/>
<path d="M50.4382 4.58301H15.0753C15.036 4.58301 14.997 4.59079 14.9607 4.6059C14.9245 4.62101 14.8915 4.64315 14.8638 4.67106C14.8361 4.69896 14.8142 4.73207 14.7994 4.76847C14.7845 4.80487 14.7771 4.84386 14.7774 4.88317C14.7774 4.96218 14.8087 5.03796 14.8646 5.09383C14.9205 5.1497 14.9963 5.18109 15.0753 5.18109H50.4382C50.5174 5.18109 50.5934 5.14977 50.6496 5.09397C50.7058 5.03816 50.7377 4.96239 50.7383 4.88317C50.7383 4.80356 50.7067 4.72721 50.6504 4.67092C50.5941 4.61463 50.5178 4.58301 50.4382 4.58301Z" fill="#E6E6E6"/>
<path d="M48.4852 5.61328H17.627V32.1035H48.4852V5.61328Z" fill="#F0F0F0"/>
<path d="M47.2043 32.1035H17.0293V32.9525H48.0869L47.2043 32.1035Z" fill="#E6E6E6"/>
<path d="M50.6177 32.1035H19.7617L20.642 32.9525H51.5003L50.6177 32.1035Z" fill="#F0F0F0"/>
<path d="M46.6934 30.3115V7.40527L19.4214 7.40527V30.3115H46.6934Z" fill="#FAFAFA"/>
<path d="M25.6133 30.3115L36.1323 7.40527H41.1006L30.5794 30.3115H25.6133Z" fill="white"/>
<path d="M31.6445 30.3115L42.1658 7.40527H44.1012L33.5821 30.3115H31.6445Z" fill="white"/>
<path d="M46.6934 30.3115V7.40527H46.4649V30.3115H46.6934Z" fill="#E6E6E6"/>
<g opacity="0.4">
<path d="M19.4419 4.04785H16.3574V25.908H19.4419V4.04785Z" fill="#F0F0F0"/>
<path d="M20.6438 4.04785H18.2402V25.908H20.6438V4.04785Z" fill="#E6E6E6"/>
<path d="M22.5259 4.04785H19.4414V25.908H22.5259V4.04785Z" fill="#F0F0F0"/>
<path d="M23.7297 4.04785H21.3262V25.908H23.7297V4.04785Z" fill="#E6E6E6"/>
<path d="M25.6099 4.04785H22.5254V25.908H25.6099V4.04785Z" fill="#F0F0F0"/>
</g>
<g opacity="0.4">
<path d="M45.5461 4.04785H43.7676V25.908H45.5461V4.04785Z" fill="#F0F0F0"/>
<path d="M46.2359 4.04785H44.8516V25.908H46.2359V4.04785Z" fill="#E6E6E6"/>
<path d="M47.3215 4.04785H45.543V25.908H47.3215V4.04785Z" fill="#F0F0F0"/>
<path d="M48.0152 4.04785H46.6309V25.908H48.0152V4.04785Z" fill="#E6E6E6"/>
<path d="M49.1008 4.04785H47.3223V25.908H49.1008V4.04785Z" fill="#F0F0F0"/>
</g>
<path d="M80.4351 47.9833C80.4087 48.3074 80.479 48.6319 80.6371 48.916C80.7952 49.2001 81.0339 49.431 81.3231 49.5794C81.6123 49.7278 81.9391 49.7872 82.2621 49.75C82.585 49.7128 82.8897 49.5807 83.1376 49.3703C83.3855 49.16 83.5654 48.8809 83.6548 48.5683C83.7441 48.2557 83.7387 47.9237 83.6393 47.6141C83.54 47.3046 83.3511 47.0315 83.0965 46.8292C82.842 46.627 82.5332 46.5048 82.2092 46.4781C81.7744 46.4427 81.3433 46.5814 81.0107 46.8637C80.6781 47.1459 80.4711 47.5486 80.4351 47.9833Z" fill="#E0E0E0"/>
<path d="M85.0066 50.6021C85.9062 50.4697 86.5282 49.6331 86.3958 48.7335C86.2635 47.8339 85.4269 47.212 84.5273 47.3443C83.6277 47.4767 83.0057 48.3133 83.1381 49.2128C83.2705 50.1124 84.107 50.7344 85.0066 50.6021Z" fill="#E0E0E0"/>
<path d="M86.0054 49.179C85.9791 49.503 86.0493 49.8276 86.2074 50.1117C86.3655 50.3958 86.6042 50.6266 86.8934 50.7751C87.1827 50.9235 87.5094 50.9829 87.8324 50.9457C88.1553 50.9085 88.46 50.7763 88.7079 50.566C88.9558 50.3557 89.1358 50.0766 89.2251 49.764C89.3144 49.4514 89.309 49.1193 89.2096 48.8098C89.1103 48.5003 88.9214 48.2271 88.6668 48.0249C88.4123 47.8227 88.1035 47.7005 87.7795 47.6737C87.5641 47.6556 87.3472 47.6803 87.1413 47.7462C86.9355 47.8121 86.7447 47.9181 86.5798 48.0579C86.415 48.1978 86.2794 48.3688 86.1808 48.5612C86.0823 48.7536 86.0226 48.9635 86.0054 49.179Z" fill="#E0E0E0"/>
<path d="M77.3765 48.8456C77.3502 49.1697 77.4204 49.4942 77.5785 49.7783C77.7366 50.0624 77.9753 50.2933 78.2645 50.4417C78.5538 50.5902 78.8805 50.6495 79.2035 50.6123C79.5264 50.5751 79.8311 50.443 80.079 50.2326C80.3269 50.0223 80.5069 49.7432 80.5962 49.4306C80.6855 49.118 80.6801 48.786 80.5807 48.4764C80.4814 48.1669 80.2925 47.8938 80.0379 47.6916C79.7834 47.4893 79.4746 47.3671 79.1506 47.3404C78.7158 47.3051 78.2847 47.4437 77.9521 47.726C77.6195 48.0082 77.4125 48.4109 77.3765 48.8456Z" fill="#E0E0E0"/>
<path d="M90.2605 50.6001C91.1601 50.4677 91.7821 49.6312 91.6497 48.7316C91.5174 47.832 90.6808 47.21 89.7812 47.3424C88.8816 47.4747 88.2596 48.3113 88.392 49.2109C88.5244 50.1105 89.3609 50.7325 90.2605 50.6001Z" fill="#E0E0E0"/>
<path d="M77.8681 48.8396C78.5592 48.2486 78.6403 47.2092 78.0492 46.5182C77.4582 45.8271 76.4189 45.746 75.7278 46.3371C75.0368 46.9281 74.9557 47.9674 75.5467 48.6585C76.1378 49.3495 77.1771 49.4306 77.8681 48.8396Z" fill="#E0E0E0"/>
<path d="M72.8335 48.4716C72.8072 48.7957 72.8775 49.1202 73.0355 49.4043C73.1936 49.6884 73.4323 49.9192 73.7216 50.0677C74.0108 50.2161 74.3375 50.2755 74.6605 50.2383C74.9835 50.2011 75.2881 50.0689 75.536 49.8586C75.7839 49.6483 75.9639 49.3692 76.0532 49.0566C76.1425 48.744 76.1371 48.412 76.0378 48.1024C75.9384 47.7929 75.7495 47.5197 75.495 47.3175C75.2404 47.1153 74.9316 46.9931 74.6076 46.9663C74.1728 46.931 73.7418 47.0697 73.4092 47.3519C73.0765 47.6342 72.8695 48.0369 72.8335 48.4716Z" fill="#E0E0E0"/>
<path d="M70.9551 48.915C70.9551 48.915 71.2373 55.6507 82.061 55.6507C92.8847 55.6507 93.1669 48.915 93.1669 48.915H70.9551Z" fill="#F0F0F0"/>
<path d="M99.3418 55.6504H97.2832V73.3352H99.3418V55.6504Z" fill="#E6E6E6"/>
<path d="M99.8915 55.6504H98.6797V73.3352H99.8915V55.6504Z" fill="#F0F0F0"/>
<path d="M90.584 55.6504H88.5254V73.3352H90.584V55.6504Z" fill="#E6E6E6"/>
<path d="M90.9697 55.6504H89.7578V73.3352H90.9697V55.6504Z" fill="#F0F0F0"/>
<path d="M71.0445 57.7969L100.268 57.7969V55.6532H71.0445V57.7969Z" fill="#F0F0F0"/>
<path d="M62.1132 55.6504H60.0547V73.3352H62.1132V55.6504Z" fill="#E6E6E6"/>
<path d="M62.499 55.6504H61.2871V73.3352H62.499V55.6504Z" fill="#F0F0F0"/>
<path d="M59.6876 57.7969H70.1641V55.6532H59.6876V57.7969Z" fill="#E6E6E6"/>
<path d="M70.8691 55.6504H68.8105V73.3352H70.8691V55.6504Z" fill="#E6E6E6"/>
<path d="M71.4208 55.6504H70.209V73.3352H71.4208V55.6504Z" fill="#F0F0F0"/>
<path d="M56.4997 83.4532C80.4862 83.4532 99.9311 82.3179 99.9311 80.9175C99.9311 79.5171 80.4862 78.3818 56.4997 78.3818C32.5132 78.3818 13.0684 79.5171 13.0684 80.9175C13.0684 82.3179 32.5132 83.4532 56.4997 83.4532Z" fill="#F5F5F5"/>
<path d="M80.127 78.6928C80.1272 79.1405 79.9687 79.5737 79.6795 79.9154C79.3903 80.257 78.9893 80.485 78.5478 80.5588C73.1131 81.4757 67.5632 81.4757 62.1286 80.5588C61.6889 80.4831 61.2902 80.2542 61.0032 79.9126C60.7162 79.5711 60.5594 79.139 60.5606 78.6928V60.5488H80.1359L80.127 78.6928Z" fill="url(#paint0_linear_409_1856)"/>
<path opacity="0.3" d="M60.5488 60.876V63.4229C61.7271 63.8597 65.5956 64.18 70.3376 64.18C75.0797 64.18 78.9549 63.8597 80.1264 63.4229V60.876H60.5488Z" fill="black"/>
<path d="M80.4943 62.8181C80.4943 63.3937 76.0502 63.8597 70.3382 63.8597C64.6262 63.8597 60.182 63.3937 60.182 62.8181L59.9961 60.5557H80.6915L80.4943 62.8181Z" fill="url(#paint1_linear_409_1856)"/>
<path d="M70.3382 61.5953C76.0499 61.5953 80.6803 61.13 80.6803 60.556C80.6803 59.9819 76.0499 59.5166 70.3382 59.5166C64.6264 59.5166 59.9961 59.9819 59.9961 60.556C59.9961 61.13 64.6264 61.5953 70.3382 61.5953Z" fill="url(#paint2_linear_409_1856)"/>
<path opacity="0.3" d="M70.3382 61.5953C76.0499 61.5953 80.6803 61.13 80.6803 60.556C80.6803 59.9819 76.0499 59.5166 70.3382 59.5166C64.6264 59.5166 59.9961 59.9819 59.9961 60.556C59.9961 61.13 64.6264 61.5953 70.3382 61.5953Z" fill="black"/>
<path opacity="0.2" d="M63.1754 77.4164C62.9742 77.4158 62.7814 77.3356 62.6391 77.1933C62.4968 77.051 62.4166 76.8582 62.416 76.657V66.2545C62.4166 66.0533 62.4968 65.8605 62.6391 65.7182C62.7814 65.5759 62.9742 65.4957 63.1754 65.4951C63.3764 65.4963 63.5689 65.5767 63.711 65.7188C63.8532 65.861 63.9336 66.0534 63.9347 66.2545V76.657C63.9336 76.8581 63.8532 77.0505 63.711 77.1927C63.5689 77.3348 63.3764 77.4152 63.1754 77.4164Z" fill="black"/>
<path opacity="0.2" d="M77.5035 77.4164C77.3023 77.4158 77.1095 77.3356 76.9672 77.1933C76.8249 77.051 76.7447 76.8582 76.7441 76.657V66.2545C76.7447 66.0533 76.8249 65.8605 76.9672 65.7182C77.1095 65.5759 77.3023 65.4957 77.5035 65.4951C77.7045 65.4963 77.897 65.5767 78.0391 65.7188C78.1813 65.861 78.2617 66.0534 78.2629 66.2545V76.657C78.2617 76.8581 78.1813 77.0505 78.0391 77.1927C77.897 77.3348 77.7045 77.4152 77.5035 77.4164Z" fill="black"/>
<path opacity="0.2" d="M72.7262 77.4164C72.5251 77.4152 72.3327 77.3348 72.1905 77.1927C72.0484 77.0505 71.968 76.8581 71.9668 76.657V66.2545C71.968 66.0534 72.0484 65.861 72.1905 65.7188C72.3327 65.5767 72.5251 65.4963 72.7262 65.4951C72.9274 65.4957 73.1202 65.5759 73.2625 65.7182C73.4047 65.8605 73.4849 66.0533 73.4855 66.2545V76.657C73.4849 76.8582 73.4047 77.051 73.2625 77.1933C73.1202 77.3356 72.9274 77.4158 72.7262 77.4164Z" fill="black"/>
<path opacity="0.2" d="M67.9508 77.4164C67.7497 77.4152 67.5573 77.3348 67.4151 77.1927C67.273 77.0505 67.1926 76.8581 67.1914 76.657V66.2545C67.1926 66.0534 67.273 65.861 67.4151 65.7188C67.5573 65.5767 67.7497 65.4963 67.9508 65.4951C68.152 65.4957 68.3448 65.5759 68.4871 65.7182C68.6293 65.8605 68.7095 66.0533 68.7101 66.2545V76.657C68.7095 76.8582 68.6293 77.051 68.4871 77.1933C68.3448 77.3356 68.152 77.4158 67.9508 77.4164Z" fill="black"/>
<path d="M43.7057 18.8519C43.7057 19.0574 43.6447 19.2584 43.5305 19.4293C43.4163 19.6002 43.254 19.7334 43.0641 19.8121C42.8741 19.8908 42.6652 19.9114 42.4635 19.8712C42.2619 19.8311 42.0767 19.7322 41.9314 19.5868C41.786 19.4414 41.687 19.2562 41.6469 19.0546C41.6068 18.853 41.6274 18.644 41.7061 18.4541C41.7847 18.2642 41.918 18.1019 42.0889 17.9877C42.2598 17.8735 42.4607 17.8125 42.6663 17.8125C42.942 17.8125 43.2063 17.922 43.4013 18.1169C43.5962 18.3118 43.7057 18.5762 43.7057 18.8519Z" fill="#263238"/>
<path d="M41.8308 19.0017C41.8207 19.002 41.8107 18.9994 41.802 18.9943C41.7933 18.9891 41.7862 18.9816 41.7816 18.9726C41.7129 18.8464 41.6697 18.7079 41.6545 18.565C41.6394 18.4222 41.6525 18.2777 41.6932 18.1399C41.7338 18.0021 41.8012 17.8736 41.8916 17.7619C41.9819 17.6501 42.0933 17.5573 42.2195 17.4886C42.3457 17.4199 42.4842 17.3767 42.627 17.3616C42.7699 17.3464 42.9144 17.3595 43.0522 17.4002C43.19 17.4409 43.3184 17.5083 43.4302 17.5986C43.5419 17.6889 43.6348 17.8003 43.7035 17.9265C43.7101 17.9397 43.7114 17.9549 43.7073 17.969C43.7031 17.9831 43.6938 17.9952 43.6811 18.0027C43.6746 18.0062 43.6675 18.0085 43.6602 18.0092C43.6528 18.01 43.6454 18.0094 43.6383 18.0073C43.6313 18.0052 43.6247 18.0018 43.6189 17.9971C43.6132 17.9925 43.6084 17.9868 43.6049 17.9803C43.4805 17.7515 43.2702 17.5816 43.0205 17.5079C42.7708 17.4342 42.502 17.4627 42.2732 17.5871C42.0445 17.7116 41.8746 17.9218 41.8009 18.1716C41.7272 18.4213 41.7557 18.6901 41.8801 18.9188C41.8837 18.9253 41.8859 18.9324 41.8867 18.9397C41.8875 18.9471 41.8868 18.9545 41.8847 18.9616C41.8827 18.9686 41.8792 18.9752 41.8746 18.981C41.8699 18.9867 41.8642 18.9915 41.8577 18.995C41.8494 18.9993 41.8402 19.0016 41.8308 19.0017Z" fill="#263238"/>
<path d="M40.8214 23.6007C40.6189 23.5998 40.4206 23.5429 40.2486 23.4362C40.0765 23.3295 39.9373 23.1772 39.8466 22.9962C39.7559 22.8152 39.7171 22.6125 39.7346 22.4108C39.752 22.2091 39.825 22.0162 39.9455 21.8535C40.0314 21.7384 40.1391 21.6414 40.2625 21.568C40.3859 21.4946 40.5225 21.4462 40.6646 21.4256C40.6718 21.4243 40.6792 21.4246 40.6864 21.4263C40.6935 21.428 40.7002 21.4312 40.7061 21.4356C40.712 21.44 40.7169 21.4455 40.7206 21.4519C40.7242 21.4583 40.7265 21.4654 40.7273 21.4727C40.7292 21.4872 40.7254 21.5019 40.7166 21.5136C40.7078 21.5253 40.6948 21.5332 40.6803 21.5354C40.4227 21.5731 40.1907 21.7116 40.0353 21.9204C39.8799 22.1291 39.8137 22.3911 39.8515 22.6487C39.8892 22.9062 40.0277 23.1382 40.2365 23.2936C40.4452 23.4491 40.7072 23.5152 40.9647 23.4775C40.9796 23.4751 40.9948 23.4787 41.007 23.4875C41.0191 23.4963 41.0273 23.5096 41.0297 23.5245C41.0321 23.5393 41.0285 23.5545 41.0196 23.5667C41.0108 23.5789 40.9975 23.5871 40.9827 23.5895C40.9292 23.5965 40.8753 23.6003 40.8214 23.6007Z" fill="#263238"/>
<path d="M46.4671 25.2938C46.257 25.2935 46.0515 25.232 45.8757 25.1169C45.8632 25.1086 45.8544 25.0959 45.8511 25.0813C45.8477 25.0667 45.8502 25.0513 45.8578 25.0385C45.8664 25.0263 45.8793 25.018 45.8939 25.015C45.9085 25.0121 45.9236 25.0149 45.9362 25.0228C46.1545 25.1645 46.4202 25.2136 46.6748 25.1594C46.9294 25.1053 47.152 24.9522 47.2937 24.7338C47.4353 24.5155 47.4845 24.2498 47.4303 23.9953C47.3761 23.7407 47.223 23.5181 47.0047 23.3764C46.9922 23.3681 46.9834 23.3554 46.98 23.3408C46.9767 23.3262 46.9791 23.3109 46.9868 23.298C46.9954 23.2859 47.0083 23.2775 47.0229 23.2746C47.0374 23.2717 47.0526 23.2744 47.0652 23.2823C47.308 23.4404 47.4783 23.6883 47.5387 23.9717C47.5992 24.2551 47.5449 24.5509 47.3877 24.7943C47.3102 24.9154 47.2092 25.0198 47.0907 25.1014C46.9722 25.1829 46.8387 25.24 46.6978 25.2692C46.6219 25.2851 46.5446 25.2934 46.4671 25.2938Z" fill="#263238"/>
<path d="M42.0847 22.0932C42.8962 22.0932 43.5541 21.4353 43.5541 20.6237C43.5541 19.8122 42.8962 19.1543 42.0847 19.1543C41.2731 19.1543 40.6152 19.8122 40.6152 20.6237C40.6152 21.4353 41.2731 22.0932 42.0847 22.0932Z" fill="#263238"/>
<path d="M43.4641 23.9796C44.2252 23.2185 44.2252 21.9846 43.4641 21.2236C42.7031 20.4625 41.4691 20.4625 40.7081 21.2236C39.947 21.9846 39.947 23.2185 40.7081 23.9796C41.4691 24.7406 42.7031 24.7406 43.4641 23.9796Z" fill="#263238"/>
<path d="M42.2896 27.2336C43.4798 27.2336 44.4445 26.2688 44.4445 25.0787C44.4445 23.8886 43.4798 22.9238 42.2896 22.9238C41.0995 22.9238 40.1348 23.8886 40.1348 25.0787C40.1348 26.2688 41.0995 27.2336 42.2896 27.2336Z" fill="#263238"/>
<path d="M46.543 25.7199C46.8164 24.5616 46.0991 23.401 44.9408 23.1276C43.7825 22.8543 42.6219 23.5716 42.3485 24.7299C42.0751 25.8882 42.7925 27.0488 43.9508 27.3221C45.1091 27.5955 46.2696 26.8782 46.543 25.7199Z" fill="#263238"/>
<path d="M51.5921 29.6709C51.5921 29.8457 51.5921 30.0674 51.6078 30.269C51.6235 30.4706 51.6235 30.6857 51.6369 30.894C51.666 31.3106 51.6952 31.7317 51.74 32.1506C51.8206 32.9914 51.9333 33.8284 52.0782 34.6617C52.1163 34.8677 52.1499 35.0783 52.1924 35.2844L52.291 35.7929C52.3156 35.8735 52.291 35.8578 52.2596 35.8556C52.2283 35.8533 52.2596 35.8959 52.3918 35.8959C52.7301 35.862 53.0594 35.7671 53.364 35.6159C53.5432 35.5353 53.7268 35.4479 53.9105 35.3538C54.0942 35.2597 54.2801 35.1522 54.4481 35.0581L55.1022 35.813C54.9461 35.9918 54.7801 36.1615 54.6049 36.3215C54.4324 36.4857 54.2499 36.6391 54.0584 36.7807C53.8576 36.9317 53.6457 37.0673 53.4244 37.1861C53.1727 37.3236 52.9027 37.4247 52.6225 37.4863C52.4497 37.524 52.2728 37.539 52.0961 37.5311C51.8805 37.5186 51.6692 37.4654 51.4734 37.3743C51.2651 37.2765 51.0797 37.1361 50.9291 36.9621C50.7997 36.8109 50.694 36.641 50.6155 36.4581C50.5546 36.3183 50.5052 36.1737 50.4676 36.0258L50.3803 35.6988C50.3176 35.4748 50.266 35.262 50.2123 35.0425C50.0027 34.1619 49.8412 33.2705 49.7284 32.3724C49.6724 31.9244 49.6276 31.4764 49.6008 31.0172C49.5873 30.7932 49.5761 30.5692 49.5694 30.3317C49.5627 30.0943 49.5694 29.8837 49.5694 29.6172L51.5921 29.6709Z" fill="#FFB573"/>
<path d="M50.5073 27.2564C52.418 28.7191 52.3418 31.4765 52.3418 31.4765L48.9236 32.2941C48.9236 32.2941 47.8753 29.521 48.3009 28.5063C48.7444 27.449 49.4321 26.432 50.5073 27.2564Z" fill="url(#paint3_linear_409_1856)"/>
<path opacity="0.7" d="M50.5073 27.2564C52.418 28.7191 52.3418 31.4765 52.3418 31.4765L48.9236 32.2941C48.9236 32.2941 47.8753 29.521 48.3009 28.5063C48.7444 27.449 49.4321 26.432 50.5073 27.2564Z" fill="white"/>
<path d="M54.3217 35.316L54.8862 34.3662L56.3019 35.8804C56.3019 35.8804 55.2872 36.5301 54.2344 36.0664L54.3217 35.316Z" fill="#FFB573"/>
<path d="M55.5834 33.9111L57.4 34.9819L56.3024 35.8801L54.8867 34.3659L55.5834 33.9111Z" fill="#FFB573"/>
<path d="M39.8105 79.2648L41.7638 79.453L42.9779 74.8766L41.0224 74.6885L39.8105 79.2648Z" fill="#FFB573"/>
<path d="M29.7969 75.4182L31.5508 76.3366L33.6362 72.2016L31.8823 71.2832L29.7969 75.4182Z" fill="#FFB573"/>
<path d="M32.0195 75.5324L30.4515 73.9397C30.4254 73.9118 30.3899 73.8945 30.3519 73.8912C30.3138 73.8879 30.2759 73.8988 30.2454 73.9218L28.8051 74.9813C28.7701 75.0094 28.7415 75.0445 28.721 75.0844C28.7005 75.1243 28.6886 75.168 28.6861 75.2128C28.6835 75.2575 28.6904 75.3023 28.7063 75.3443C28.7222 75.3862 28.7466 75.4243 28.7782 75.4562C29.3337 76.0028 29.6294 76.238 30.3193 76.9391C30.7449 77.3692 31.6185 78.3839 32.2054 78.9797C32.7923 79.5756 33.4105 79.0268 33.2201 78.7266C32.3644 77.3826 32.2211 76.5381 32.1673 75.8549C32.1576 75.7333 32.1052 75.6191 32.0195 75.5324Z" fill="#263238"/>
<path d="M42.0673 78.8596H39.6996C39.6572 78.86 39.6162 78.8743 39.5826 78.9001C39.5491 78.926 39.5249 78.9621 39.5137 79.0029L39.0074 80.8644C38.9948 80.9086 38.9927 80.9552 39.0013 81.0004C39.01 81.0456 39.0292 81.0881 39.0573 81.1245C39.0854 81.1609 39.1217 81.1902 39.1633 81.21C39.2048 81.2298 39.2504 81.2395 39.2964 81.2385C40.1274 81.2385 40.5217 81.2385 41.5588 81.2385H44.7329C45.5953 81.2385 45.7767 80.3671 45.4183 80.2865C43.8189 79.9325 42.8961 79.4442 42.4033 78.9783C42.3099 78.8984 42.1901 78.8561 42.0673 78.8596Z" fill="#263238"/>
<path opacity="0.2" d="M42.9755 74.8786L42.3505 77.2373H40.3457L41.0199 74.6904L42.9755 74.8786Z" fill="black"/>
<path opacity="0.2" d="M31.8799 71.2832L33.636 72.2038L32.5609 74.3341L30.8047 73.4134L31.8799 71.2832Z" fill="black"/>
<path d="M49.929 26.9745C49.929 26.9745 50.7937 27.353 47.8951 38.8218L39.8446 38.1252C40.2634 34.8615 40.4404 32.841 39.457 25.9799C40.6047 25.8455 41.7605 25.7939 42.9156 25.8254C44.1401 25.8439 45.3617 25.9494 46.5713 26.1412C47.7039 26.3621 48.8246 26.6402 49.929 26.9745Z" fill="url(#paint4_linear_409_1856)"/>
<path opacity="0.7" d="M49.929 26.9745C49.929 26.9745 50.7937 27.353 47.8951 38.8218L39.8446 38.1252C40.2634 34.8615 40.4404 32.841 39.457 25.9799C40.6047 25.8455 41.7605 25.7939 42.9156 25.8254C44.1401 25.8439 45.3617 25.9494 46.5713 26.1412C47.7039 26.3621 48.8246 26.6402 49.929 26.9745Z" fill="white"/>
<path d="M42.9138 25.7598C42.9138 25.7598 42.4658 25.7598 41.917 25.7598C41.5922 26.2593 42.9631 27.7175 44.7058 29.1511C45.127 27.8452 45.79 27.8497 45.79 27.8497L42.9138 25.7598Z" fill="white"/>
<path d="M46.568 26.1113C46.568 26.1113 46.7718 26.1404 47.2602 26.2524C47.5827 26.752 47.7642 28.0019 46.8122 29.0905C46.4381 27.7465 45.793 27.8675 45.793 27.8675L46.568 26.1113Z" fill="white"/>
<path d="M43.6309 21.7393C43.7608 22.9354 43.8033 25.0993 42.9141 25.825C42.9141 25.825 43.8638 26.7972 45.7902 27.8679C47.188 26.9002 46.5697 26.1409 46.5697 26.1409C45.284 25.7153 45.4027 24.7453 45.7096 23.8493L43.6309 21.7393Z" fill="#FFB573"/>
<path opacity="0.2" d="M44.4813 22.6016L45.7111 23.8492C45.6356 24.0566 45.5786 24.2702 45.5408 24.4876C45.048 24.3734 44.3312 23.8582 44.3223 23.3296C44.3308 23.0793 44.3847 22.8326 44.4813 22.6016Z" fill="black"/>
<path d="M48.2503 17.8369C49.0747 18.5672 49.3166 20.3457 48.5326 21.5531C48.2972 20.3292 48.2025 19.0823 48.2503 17.8369Z" fill="#263238"/>
<path d="M43.3811 19.2282C43.2377 21.1972 43.1369 22.0282 43.9881 23.1639C45.2694 24.873 47.7199 24.6154 48.4479 22.7294C49.1043 21.0292 49.2275 18.0948 47.4198 17.0599C47.0226 16.828 46.5725 16.702 46.1126 16.6938C45.6527 16.6856 45.1985 16.7955 44.7932 17.0131C44.388 17.2307 44.0454 17.5486 43.7981 17.9364C43.5509 18.3242 43.4073 18.769 43.3811 19.2282Z" fill="#FFB573"/>
<path d="M43.1188 20.814C44.5748 20.758 45.3812 18.854 45.0161 18.0499C46.667 18.91 49.1668 19.5865 48.8891 18.48C48.515 16.9859 46.7073 15.8905 44.483 16.688C43.195 17.248 42.0929 18.48 43.1188 20.814Z" fill="#263238"/>
<path d="M42.6745 20.8115C42.7368 21.188 42.9443 21.525 43.2525 21.75C43.6646 22.0435 44.0409 21.7164 44.0701 21.2393C44.0969 20.807 43.9155 20.135 43.4317 20.0319C43.3257 20.0109 43.2162 20.0167 43.113 20.0488C43.0099 20.0809 42.9164 20.1384 42.8412 20.2159C42.7659 20.2934 42.7112 20.3884 42.6821 20.4925C42.653 20.5965 42.6504 20.7062 42.6745 20.8115Z" fill="#FFB573"/>
<path d="M47.8938 38.8211C47.8938 38.8211 49.7149 50.7043 48.7002 58.3382C47.9319 64.1062 42.9747 76.5517 42.9747 76.5517L39.7559 76.4643C39.7559 76.4643 43.08 64.4019 43.7677 59.6643C44.9437 51.551 41.9981 38.3193 41.9981 38.3193L47.8938 38.8211Z" fill="#263238"/>
<path opacity="0.2" d="M44.7532 41.2559L43.0352 43.964C43.5525 47.1751 43.8809 50.4137 44.0185 53.6632C46.4332 49.34 45.2998 43.5429 44.7532 41.2559Z" fill="black"/>
<path d="M43.4771 76.7315L39.4316 76.6218L39.678 75.3203L43.8579 75.3449L43.4771 76.7315Z" fill="url(#paint5_linear_409_1856)"/>
<path d="M46.1345 38.6938C46.1345 38.6938 44.7905 51.8515 41.7194 59.0106C39.2353 64.7898 33.3127 74.0343 33.3127 74.0343L30.9473 72.6499C30.9473 72.6499 34.7553 62.3706 36.6346 58.5178C41.2199 49.0717 36.9549 41.4938 39.8445 38.1338L46.1345 38.6938Z" fill="#263238"/>
<path d="M33.57 74.2356L30.5527 72.5803L31.0433 71.29L34.2577 73.1044L33.57 74.2356Z" fill="url(#paint6_linear_409_1856)"/>
<path d="M39.764 37.6428L39.3384 38.3327C39.3071 38.3842 39.3675 38.4492 39.4616 38.4559L47.9042 39.1862C47.9759 39.1862 48.0408 39.1615 48.0475 39.1167L48.1842 38.4022C48.1842 38.3529 48.1327 38.3058 48.0543 38.2991L39.9007 37.5935C39.8756 37.5897 39.85 37.5922 39.8261 37.6008C39.8022 37.6094 39.7809 37.6239 39.764 37.6428Z" fill="url(#paint7_linear_409_1856)"/>
<path d="M40.7802 38.649L40.5562 38.6311C40.5136 38.6311 40.4823 38.602 40.4868 38.5751L40.6704 37.6477C40.6704 37.6186 40.7175 37.6007 40.76 37.6052L40.984 37.6231C41.0288 37.6231 41.0602 37.6522 41.0535 37.6791L40.872 38.6065C40.8631 38.6333 40.8205 38.6535 40.7802 38.649Z" fill="#263238"/>
<path d="M47.2826 39.2115L47.0586 39.1935C47.0138 39.1935 46.9825 39.1644 46.9892 39.1375L47.1729 38.2102C47.1729 38.1833 47.2177 38.1631 47.2602 38.1676L47.4842 38.1855C47.5268 38.1855 47.5581 38.2147 47.5537 38.2415L47.37 39.1689C47.3655 39.2003 47.3162 39.2159 47.2826 39.2115Z" fill="#263238"/>
<path d="M44.0302 38.9315L43.8062 38.9113C43.7636 38.9113 43.7323 38.8822 43.7368 38.8553L43.9204 37.928C43.9204 37.9011 43.9652 37.8809 44.01 37.8854L44.234 37.9055C44.2766 37.9055 44.308 37.9347 44.3035 37.9615L44.1198 38.8889C44.1153 38.9158 44.075 38.9337 44.0302 38.9315Z" fill="#263238"/>
<path d="M46.4652 20.2065C46.4428 20.3655 46.51 20.5067 46.6131 20.5201C46.7161 20.5335 46.8192 20.4171 46.8371 20.258C46.855 20.099 46.7901 19.9579 46.687 19.9444C46.584 19.931 46.4854 20.0475 46.4652 20.2065Z" fill="#263238"/>
<path d="M48.2614 20.4487C48.2412 20.6077 48.3084 20.7488 48.4115 20.7623C48.5145 20.7757 48.6175 20.6592 48.6355 20.5002C48.6534 20.3412 48.5907 20.2 48.4876 20.1866C48.3846 20.1732 48.2838 20.2896 48.2614 20.4487Z" fill="#263238"/>
<path d="M48.4355 20.1891L48.8343 20.1309C48.8343 20.1309 48.6013 20.4019 48.4355 20.1891Z" fill="#263238"/>
<path d="M47.5563 20.624C47.6497 21.0054 47.7944 21.3724 47.9864 21.7149C47.8978 21.762 47.8 21.7892 47.6998 21.7946C47.5996 21.8 47.4994 21.7835 47.4062 21.7463L47.5563 20.624Z" fill="#ED893E"/>
<path d="M46.4749 22.2209C46.1599 22.1182 45.8956 21.8996 45.7357 21.6094C45.7317 21.6001 45.7313 21.5897 45.7347 21.5801C45.738 21.5706 45.7448 21.5626 45.7537 21.5579C45.7632 21.5532 45.7741 21.5524 45.7842 21.5558C45.7943 21.5591 45.8026 21.5663 45.8074 21.5758C45.9069 21.7503 46.0462 21.8989 46.214 22.0094C46.3818 22.1199 46.5732 22.1893 46.7729 22.2119C46.783 22.2119 46.7926 22.2159 46.7998 22.2231C46.8069 22.2302 46.8109 22.2399 46.8109 22.25C46.8109 22.2601 46.8069 22.2698 46.7998 22.2769C46.7926 22.2841 46.783 22.2881 46.7729 22.2881C46.6714 22.2769 46.5714 22.2544 46.4749 22.2209Z" fill="#263238"/>
<path d="M45.6468 19.2858C45.6338 19.2805 45.6222 19.272 45.6132 19.2612C45.6058 19.2541 45.5999 19.2456 45.5959 19.2361C45.5919 19.2267 45.5898 19.2166 45.5898 19.2063C45.5898 19.1961 45.5919 19.1859 45.5959 19.1765C45.5999 19.1671 45.6058 19.1586 45.6132 19.1514C45.723 19.0533 45.8549 18.9833 45.9977 18.9474C46.1405 18.9115 46.2899 18.9108 46.433 18.9454C46.4428 18.9482 46.452 18.9529 46.4599 18.9593C46.4678 18.9657 46.4743 18.9737 46.4791 18.9826C46.484 18.9916 46.4869 19.0015 46.4878 19.0116C46.4888 19.0218 46.4876 19.032 46.4846 19.0417C46.4788 19.0615 46.4655 19.0783 46.4474 19.0884C46.4294 19.0984 46.4081 19.101 46.3882 19.0954C46.2704 19.0692 46.148 19.0714 46.0312 19.1018C45.9143 19.1321 45.8064 19.1899 45.7162 19.2702C45.7065 19.2776 45.6952 19.2829 45.6832 19.2856C45.6712 19.2883 45.6588 19.2884 45.6468 19.2858Z" fill="#263238"/>
<path d="M49.0167 19.7636C49.0051 19.7591 48.9944 19.7522 48.9854 19.7435C48.9069 19.6513 48.8078 19.579 48.6961 19.5323C48.5844 19.4855 48.4633 19.4658 48.3425 19.4747C48.3323 19.4769 48.3217 19.477 48.3115 19.4749C48.3012 19.4728 48.2916 19.4685 48.2831 19.4624C48.2746 19.4562 48.2676 19.4484 48.2623 19.4393C48.2571 19.4302 48.2539 19.4201 48.2529 19.4097C48.2497 19.3892 48.2547 19.3683 48.2669 19.3515C48.2791 19.3347 48.2974 19.3234 48.3179 19.3201C48.4641 19.307 48.6114 19.329 48.7473 19.3843C48.8833 19.4396 49.0041 19.5267 49.0996 19.6382C49.1105 19.6511 49.1169 19.6672 49.1179 19.6841C49.1189 19.701 49.1143 19.7178 49.105 19.7319C49.0957 19.746 49.0821 19.7567 49.0662 19.7624C49.0503 19.7681 49.0329 19.7686 49.0167 19.7636Z" fill="#263238"/>
<path d="M50.7878 36.6645C50.9328 36.2126 51.1654 35.7938 51.4723 35.4319C51.7792 35.0699 52.1544 34.772 52.5764 34.555C52.9985 34.3381 53.4591 34.2064 53.932 34.1675C54.405 34.1285 54.8809 34.1831 55.3328 34.3282C55.7846 34.4732 56.2034 34.7058 56.5654 35.0127C56.9273 35.3196 57.2253 35.6947 57.4422 36.1168C57.6592 36.5388 57.7909 36.9994 57.8298 37.4724C57.8687 37.9453 57.8141 38.4213 57.6691 38.8731L56.2758 43.2322L49.3945 41.0213L50.7878 36.6645Z" fill="url(#paint8_linear_409_1856)"/>
<path opacity="0.3" d="M50.7878 36.6645C50.9328 36.2126 51.1654 35.7938 51.4723 35.4319C51.7792 35.0699 52.1544 34.772 52.5764 34.555C52.9985 34.3381 53.4591 34.2064 53.932 34.1675C54.405 34.1285 54.8809 34.1831 55.3328 34.3282C55.7846 34.4732 56.2034 34.7058 56.5654 35.0127C56.9273 35.3196 57.2253 35.6947 57.4422 36.1168C57.6592 36.5388 57.7909 36.9994 57.8298 37.4724C57.8687 37.9453 57.8141 38.4213 57.6691 38.8731L56.2758 43.2322L49.3945 41.0213L50.7878 36.6645Z" fill="black"/>
<path d="M43.9979 34.4828L42.739 38.4028C42.7206 38.4591 42.7135 38.5185 42.7182 38.5776C42.7229 38.6367 42.7392 38.6942 42.7663 38.7469C42.7934 38.7996 42.8307 38.8464 42.876 38.8846C42.9213 38.9228 42.9737 38.9517 43.0302 38.9695L49.3918 41.0124L50.7896 36.6623C51.0829 35.7506 51.7261 34.9927 52.5779 34.5551C53.4297 34.1174 54.4204 34.0358 55.3323 34.3282L48.5429 32.1464C47.6303 31.8547 46.6394 31.9368 45.7873 32.3748C44.9353 32.8128 44.2917 33.5709 43.9979 34.4828Z" fill="url(#paint9_linear_409_1856)"/>
<path d="M47.414 37.4547L49.168 31.9959C49.174 31.9763 49.1757 31.9556 49.1731 31.9353C49.1705 31.9149 49.1635 31.8954 49.1527 31.878C49.1418 31.8606 49.1274 31.8457 49.1103 31.8343C49.0933 31.823 49.074 31.8154 49.0537 31.8122L47.2617 31.5479L47.0377 32.2557L48.3436 32.6746L46.8652 37.2755L47.414 37.4547Z" fill="#263238"/>
<path d="M46.4812 37.1546C46.4407 37.2811 46.4386 37.4168 46.4752 37.5445C46.5118 37.6722 46.5853 37.7862 46.6867 37.8721C46.788 37.958 46.9125 38.0119 47.0444 38.0271C47.1764 38.0423 47.3099 38.018 47.4281 37.9574C47.5462 37.8967 47.6438 37.8024 47.7084 37.6863C47.773 37.5703 47.8017 37.4377 47.791 37.3053C47.7803 37.1729 47.7306 37.0467 47.6482 36.9425C47.5658 36.8383 47.4543 36.7609 47.3279 36.7201C47.2438 36.6929 47.1551 36.6826 47.067 36.6897C46.9789 36.6968 46.893 36.7213 46.8144 36.7616C46.7357 36.802 46.6658 36.8575 46.6086 36.9249C46.5515 36.9924 46.5082 37.0704 46.4812 37.1546Z" fill="#263238"/>
<path d="M49.7252 41.6637L58.5508 44.4973C58.5829 44.5077 58.6167 44.5117 58.6503 44.509C58.6839 44.5063 58.7166 44.497 58.7466 44.4816C58.7766 44.4662 58.8032 44.445 58.825 44.4192C58.8467 44.3935 58.8632 44.3637 58.8734 44.3315C58.8841 44.2995 58.8883 44.2656 58.8858 44.2319C58.8833 44.1982 58.874 44.1653 58.8585 44.1353C58.8431 44.1052 58.8218 44.0785 58.7958 44.0568C58.7699 44.0351 58.7399 44.0189 58.7076 44.009L49.3937 41.0186C49.3521 41.1481 49.3637 41.2888 49.4259 41.4098C49.488 41.5307 49.5957 41.6221 49.7252 41.6637Z" fill="url(#paint10_linear_409_1856)"/>
<path opacity="0.2" d="M49.7252 41.6637L53.3316 42.8218C53.3638 42.8322 53.3978 42.8363 53.4315 42.8336C53.4653 42.8309 53.4982 42.8216 53.5284 42.8062C53.5585 42.7908 53.5854 42.7696 53.6073 42.7439C53.6293 42.7181 53.646 42.6882 53.6564 42.656C53.6769 42.5912 53.6709 42.521 53.6399 42.4606C53.6089 42.4002 53.5552 42.3545 53.4906 42.3334L49.3937 41.0186C49.3521 41.1481 49.3637 41.2888 49.4259 41.4098C49.488 41.5307 49.5957 41.6221 49.7252 41.6637Z" fill="black"/>
<path d="M40.4038 29.1426L40.2806 29.2792L40.1418 29.4383C40.0477 29.5458 39.9536 29.6623 39.864 29.772C39.6803 29.996 39.5056 30.2357 39.3421 30.4776C38.6653 31.4357 38.1325 32.4877 37.7606 33.6002C37.671 33.8779 37.5882 34.1557 37.5232 34.4402C37.5008 34.5231 37.4986 34.5567 37.4874 34.5947C37.4856 34.6276 37.4856 34.6605 37.4874 34.6933C37.4838 34.7283 37.4838 34.7636 37.4874 34.7986C37.4874 34.8389 37.5635 34.933 37.7472 35.0226C37.968 35.1219 38.2006 35.1927 38.4394 35.2331C39.0155 35.3247 39.5989 35.363 40.1821 35.3474C40.7914 35.3474 41.4096 35.2936 42.0278 35.2287C42.6461 35.1637 43.2733 35.0831 43.8803 34.9912L44.1245 35.9611C42.8742 36.3681 41.5878 36.6539 40.2829 36.8146C39.5958 36.904 38.9011 36.919 38.2109 36.8594C37.8162 36.8224 37.4287 36.7304 37.0595 36.5861C36.8381 36.4973 36.63 36.3782 36.4413 36.2322C36.219 36.0579 36.0359 35.8389 35.9037 35.5893C35.6761 35.1211 35.6153 34.5893 35.7312 34.0818C35.785 33.7391 35.8634 33.4098 35.9552 33.0648C36.131 32.4026 36.3649 31.7573 36.6541 31.1362C36.9441 30.5137 37.2818 29.9145 37.6643 29.3442C37.857 29.0597 38.063 28.7842 38.2781 28.5131C38.3878 28.3787 38.5021 28.2466 38.6141 28.1144L38.7955 27.9195C38.8605 27.8501 38.912 27.7941 39.0016 27.709L40.4038 29.1426Z" fill="#FFB573"/>
<path d="M43.3908 35.1973L44.9588 34.3662L45.0282 36.0507C45.0282 36.0507 43.9082 36.5144 43.2676 36.0037L43.3908 35.1973Z" fill="#FFB573"/>
<path d="M46.2531 34.2383L46.0179 35.7906L45.0323 36.0504L44.9629 34.366L46.2531 34.2383Z" fill="#FFB573"/>
<path d="M39.4559 25.9835C38.468 26.1583 37.0859 28.9896 37.0859 28.9896L39.5746 31.2296C39.5746 31.2296 41.5525 29.0703 41.4472 27.7845C41.3576 26.6981 40.7125 25.7595 39.4559 25.9835Z" fill="url(#paint11_linear_409_1856)"/>
<path opacity="0.7" d="M39.4559 25.9835C38.468 26.1583 37.0859 28.9896 37.0859 28.9896L39.5746 31.2296C39.5746 31.2296 41.5525 29.0703 41.4472 27.7845C41.3576 26.6981 40.7125 25.7595 39.4559 25.9835Z" fill="white"/>
<path d="M32.7892 76.3976C32.7632 76.401 32.7368 76.401 32.7108 76.3976C32.4622 76.3841 32.1978 76.0033 32.0612 75.7793C32.057 75.773 32.0547 75.7656 32.0547 75.758C32.0547 75.7505 32.057 75.7431 32.0612 75.7368C32.0653 75.7301 32.0714 75.725 32.0787 75.7222C32.086 75.7193 32.094 75.719 32.1015 75.7211C32.1822 75.7368 32.8788 75.8936 32.9662 76.1288C32.9752 76.1543 32.9775 76.1818 32.9728 76.2085C32.9681 76.2352 32.9565 76.2602 32.9393 76.2811C32.9034 76.3354 32.8507 76.3763 32.7892 76.3976ZM32.1777 75.8286C32.377 76.1355 32.5742 76.3192 32.7153 76.3281C32.7474 76.3288 32.7792 76.321 32.8074 76.3057C32.8357 76.2904 32.8595 76.268 32.8765 76.2408C32.8862 76.2309 32.8928 76.2185 32.8956 76.205C32.8984 76.1915 32.8972 76.1775 32.8922 76.1646C32.8385 76.0213 32.4196 75.8869 32.1777 75.8286Z" fill="url(#paint12_linear_409_1856)"/>
<path d="M32.7183 75.779C32.5118 75.8359 32.295 75.8451 32.0844 75.8059C32.0778 75.8038 32.0718 75.8 32.0671 75.7949C32.0624 75.7898 32.0591 75.7836 32.0575 75.7768C32.0544 75.771 32.0527 75.7644 32.0527 75.7578C32.0527 75.7511 32.0544 75.7446 32.0575 75.7387C32.0754 75.7231 32.4831 75.3243 32.7676 75.3445C32.8027 75.345 32.8373 75.3538 32.8684 75.3701C32.8996 75.3865 32.9264 75.4099 32.9468 75.4386C32.9713 75.4648 32.9863 75.4984 32.9895 75.5341C32.9928 75.5698 32.9841 75.6055 32.9647 75.6357C32.9004 75.709 32.8139 75.7594 32.7183 75.779ZM32.1785 75.7432C32.4025 75.7746 32.8214 75.7186 32.9087 75.5909C32.9222 75.5707 32.9334 75.5394 32.893 75.4879C32.8795 75.4682 32.8615 75.452 32.8404 75.4407C32.8194 75.4294 32.7959 75.4233 32.7721 75.4229C32.5772 75.4095 32.295 75.6379 32.1785 75.7432Z" fill="url(#paint13_linear_409_1856)"/>
<path d="M42.9044 79.1594C42.6878 79.1542 42.4724 79.1264 42.2615 79.0765C42.2542 79.0739 42.2478 79.069 42.2433 79.0626C42.2388 79.0562 42.2363 79.0485 42.2363 79.0407C42.2363 79.0328 42.2388 79.0252 42.2433 79.0188C42.2478 79.0123 42.2542 79.0075 42.2615 79.0048C42.3579 78.9578 43.2158 78.5568 43.4308 78.7091C43.4502 78.7224 43.4657 78.7406 43.4755 78.7619C43.4854 78.7832 43.4893 78.8068 43.4868 78.8301C43.4858 78.8739 43.4748 78.9168 43.4546 78.9556C43.4344 78.9944 43.4056 79.0281 43.3703 79.0541C43.2298 79.137 43.0669 79.1738 42.9044 79.1594ZM42.3959 79.025C42.6491 79.072 43.1195 79.1347 43.3143 78.9891C43.3393 78.9695 43.3598 78.9447 43.3745 78.9165C43.3892 78.8884 43.3977 78.8574 43.3995 78.8256C43.4014 78.8158 43.4003 78.8056 43.3963 78.7964C43.3923 78.7872 43.3856 78.7794 43.3771 78.7741C43.2561 78.6912 42.7499 78.8682 42.3892 79.025H42.3959Z" fill="url(#paint14_linear_409_1856)"/>
<path d="M42.2673 79.0715C42.2592 79.0737 42.2507 79.0737 42.2426 79.0715C42.2372 79.0664 42.2332 79.0601 42.2308 79.053C42.2285 79.046 42.2279 79.0385 42.2292 79.0312C42.2292 78.9953 42.433 78.1508 42.9012 78.2046C43.0177 78.2203 43.049 78.2763 43.0557 78.3233C43.0849 78.5473 42.545 78.9707 42.2874 79.0782L42.2673 79.0715ZM42.8541 78.2718C42.5585 78.2718 42.386 78.7646 42.3277 78.9617C42.6077 78.8139 42.9997 78.4622 42.9751 78.3256C42.9751 78.3144 42.9751 78.283 42.8877 78.274L42.8541 78.2718Z" fill="url(#paint15_linear_409_1856)"/>
<path d="M46.6445 19.9469L47.041 19.8887C47.041 19.8887 46.8058 20.1597 46.6445 19.9469Z" fill="#263238"/>
<path d="M60.4276 38.6867L51.7543 40.4787C51.606 40.5066 51.4526 40.4753 51.327 40.3916C51.2015 40.3079 51.1136 40.1784 51.0823 40.0307L50.6768 38.1491L50.5312 37.4547L50.7866 36.6618C50.8221 36.548 50.8648 36.4365 50.9143 36.328C50.9199 36.3108 50.9274 36.2943 50.9367 36.2787C51.0798 35.9524 51.2724 35.6502 51.5079 35.3827L51.9559 35.2886L59.3927 33.7453C59.541 33.7174 59.6944 33.7487 59.8199 33.8324C59.9455 33.9161 60.0334 34.0457 60.0647 34.1933L60.8554 38.0013C60.8878 38.1488 60.8611 38.3031 60.7812 38.4312C60.7012 38.5593 60.5743 38.651 60.4276 38.6867Z" fill="url(#paint16_linear_409_1856)"/>
<path opacity="0.3" d="M59.9977 33.9919L55.8134 38.2479L54.9174 37.885L51.432 36.4716L50.9414 36.2722C51.0845 35.9459 51.2772 35.6437 51.5126 35.3762L51.9606 35.2821L59.3974 33.7388C59.5113 33.716 59.6294 33.728 59.7365 33.7731C59.8435 33.8182 59.9345 33.8945 59.9977 33.9919Z" fill="black"/>
<path d="M59.9967 33.9918L54.9164 37.8917L54.5848 38.147L51.3928 36.5633L50.918 36.3393C50.9236 36.3221 50.9311 36.3056 50.9404 36.2901C51.0834 35.9637 51.2761 35.6615 51.5116 35.3941L51.9596 35.3L59.3964 33.7566C59.5085 33.732 59.6254 33.7413 59.7322 33.7831C59.8391 33.825 59.9311 33.8976 59.9967 33.9918Z" fill="url(#paint17_linear_409_1856)"/>
<path opacity="0.2" d="M59.9967 33.9918L54.9164 37.8917L54.5848 38.147L51.3928 36.5633L50.918 36.3393C50.9236 36.3221 50.9311 36.3056 50.9404 36.2901C51.0834 35.9637 51.2761 35.6615 51.5116 35.3941L51.9596 35.3L59.3964 33.7566C59.5085 33.732 59.6254 33.7413 59.7322 33.7831C59.8391 33.825 59.9311 33.8976 59.9967 33.9918Z" fill="white"/>
<path d="M71.0166 46.5422L68.3734 49.3915C68.2691 49.5025 68.1251 49.5679 67.9728 49.5734C67.8205 49.5788 67.6723 49.5239 67.5603 49.4206L61.0777 43.3838C60.9661 43.2798 60.9004 43.1357 60.8949 42.9832C60.8894 42.8308 60.9447 42.6824 61.0486 42.5707L63.7008 39.7214C63.7521 39.6655 63.8141 39.6204 63.883 39.5887C63.952 39.5569 64.0265 39.5392 64.1023 39.5365C64.1782 39.5338 64.2538 39.5462 64.3248 39.5729C64.3959 39.5996 64.4609 39.6402 64.5161 39.6923L70.9964 45.7291C71.0804 45.8072 71.1392 45.9086 71.1651 46.0204C71.1911 46.1322 71.183 46.2491 71.142 46.3563C71.114 46.4265 71.0712 46.4899 71.0166 46.5422Z" fill="url(#paint18_linear_409_1856)"/>
<path opacity="0.3" d="M71.1315 46.3677L65.2358 45.4067L63.8672 39.5827C63.9717 39.5346 64.088 39.5185 64.2016 39.5364C64.3153 39.5544 64.421 39.6055 64.5056 39.6835L70.9859 45.7203C71.074 45.8 71.1353 45.905 71.1614 46.0209C71.1874 46.1368 71.177 46.2579 71.1315 46.3677Z" fill="black"/>
<path d="M71.1315 46.368L65.3904 44.6567L63.8672 39.6032C63.9717 39.5551 64.088 39.539 64.2016 39.5569C64.3153 39.5749 64.421 39.626 64.5056 39.704L70.9859 45.7408C71.0699 45.819 71.1286 45.9204 71.1546 46.0322C71.1805 46.1439 71.1725 46.2609 71.1315 46.368Z" fill="url(#paint19_linear_409_1856)"/>
<path opacity="0.2" d="M71.1315 46.368L65.3904 44.6567L63.8672 39.6032C63.9717 39.5551 64.088 39.539 64.2016 39.5569C64.3153 39.5749 64.421 39.626 64.5056 39.704L70.9859 45.7408C71.0699 45.819 71.1286 45.9204 71.1546 46.0322C71.1805 46.1439 71.1725 46.2609 71.1315 46.368Z" fill="white"/>
<path d="M73.32 51.235L76.232 54.6353C76.2876 54.7003 76.3294 54.776 76.3548 54.8578C76.3802 54.9396 76.3886 55.0256 76.3796 55.1107C76.3706 55.1959 76.3443 55.2783 76.3024 55.3529C76.2604 55.4275 76.2037 55.4928 76.1357 55.5447L69.8099 60.4727C69.7036 60.5367 69.5773 60.5589 69.4555 60.5349C69.3338 60.5109 69.2254 60.4424 69.1513 60.3428L66.8733 57.7444C66.8304 57.6945 66.795 57.6386 66.768 57.5786C66.7257 57.4962 66.7081 57.4034 66.7172 57.3112C66.7263 57.219 66.7619 57.1315 66.8195 57.059L72.4195 51.2103C72.507 51.1156 72.6225 51.0515 72.7491 51.0273C72.8757 51.0031 73.0067 51.0202 73.1229 51.0759C73.1981 51.116 73.265 51.1699 73.32 51.235Z" fill="url(#paint20_linear_409_1856)"/>
<path opacity="0.3" d="M73.1237 51.0827L71.7326 57.2696L66.7778 57.5855C66.7355 57.5031 66.7178 57.4102 66.727 57.318C66.7361 57.2259 66.7716 57.1383 66.8293 57.0658L72.4293 51.2171C72.5161 51.1244 72.63 51.0615 72.7547 51.0373C72.8794 51.0132 73.0085 51.0291 73.1237 51.0827Z" fill="black"/>
<path d="M73.1242 51.0832L70.7924 57.6487L66.7738 57.586C66.7315 57.5035 66.7139 57.4107 66.7231 57.3185C66.7322 57.2263 66.7677 57.1388 66.8254 57.0663L72.4254 51.2176C72.5125 51.1239 72.6272 51.0604 72.7528 51.0362C72.8785 51.0121 73.0086 51.0285 73.1242 51.0832Z" fill="url(#paint21_linear_409_1856)"/>
<path opacity="0.2" d="M73.1242 51.0832L70.7924 57.6487L66.7738 57.586C66.7315 57.5035 66.7139 57.4107 66.7231 57.3185C66.7322 57.2263 66.7677 57.1388 66.8254 57.0663L72.4254 51.2176C72.5125 51.1239 72.6272 51.0604 72.7528 51.0362C72.8785 51.0121 73.0086 51.0285 73.1242 51.0832Z" fill="white"/>
<defs>
<linearGradient id="paint0_linear_409_1856" x1="70.3482" y1="60.5488" x2="83.3568" y2="67.6731" gradientUnits="userSpaceOnUse">
<stop stop-color="#1A5427"/>
<stop offset="1" stop-color="#2EAA49" stop-opacity="0.52"/>
</linearGradient>
<linearGradient id="paint1_linear_409_1856" x1="70.3438" y1="60.5557" x2="71.6067" y2="65.1365" gradientUnits="userSpaceOnUse">
<stop stop-color="#1A5427"/>
<stop offset="1" stop-color="#2EAA49" stop-opacity="0.52"/>
</linearGradient>
<linearGradient id="paint2_linear_409_1856" x1="70.3382" y1="59.5166" x2="70.8607" y2="62.527" gradientUnits="userSpaceOnUse">
<stop stop-color="#1A5427"/>
<stop offset="1" stop-color="#2EAA49" stop-opacity="0.52"/>
</linearGradient>
<linearGradient id="paint3_linear_409_1856" x1="50.2707" y1="26.9551" x2="53.2485" y2="28.2931" gradientUnits="userSpaceOnUse">
<stop stop-color="#1A5427"/>
<stop offset="1" stop-color="#2EAA49" stop-opacity="0.52"/>
</linearGradient>
<linearGradient id="paint4_linear_409_1856" x1="44.7534" y1="25.8164" x2="52.2389" y2="29.3468" gradientUnits="userSpaceOnUse">
<stop stop-color="#1A5427"/>
<stop offset="1" stop-color="#2EAA49" stop-opacity="0.52"/>
</linearGradient>
<linearGradient id="paint5_linear_409_1856" x1="41.6448" y1="75.3203" x2="42.5343" y2="76.9358" gradientUnits="userSpaceOnUse">
<stop stop-color="#1A5427"/>
<stop offset="1" stop-color="#2EAA49" stop-opacity="0.52"/>
</linearGradient>
<linearGradient id="paint6_linear_409_1856" x1="32.4052" y1="71.29" x2="34.4964" y2="72.8131" gradientUnits="userSpaceOnUse">
<stop stop-color="#1A5427"/>
<stop offset="1" stop-color="#2EAA49" stop-opacity="0.52"/>
</linearGradient>
<linearGradient id="paint7_linear_409_1856" x1="43.7571" y1="37.5918" x2="44.4316" y2="39.7606" gradientUnits="userSpaceOnUse">
<stop stop-color="#1A5427"/>
<stop offset="1" stop-color="#2EAA49" stop-opacity="0.52"/>
</linearGradient>
<linearGradient id="paint8_linear_409_1856" x1="53.6183" y1="34.1553" x2="59.2733" y2="37.2028" gradientUnits="userSpaceOnUse">
<stop stop-color="#1A5427"/>
<stop offset="1" stop-color="#2EAA49" stop-opacity="0.52"/>
</linearGradient>
<linearGradient id="paint9_linear_409_1856" x1="49.0246" y1="31.9746" x2="55.6161" y2="37.3025" gradientUnits="userSpaceOnUse">
<stop stop-color="#1A5427"/>
<stop offset="1" stop-color="#2EAA49" stop-opacity="0.52"/>
</linearGradient>
<linearGradient id="paint10_linear_409_1856" x1="54.1278" y1="41.0186" x2="56.4824" y2="44.7353" gradientUnits="userSpaceOnUse">
<stop stop-color="#1A5427"/>
<stop offset="1" stop-color="#2EAA49" stop-opacity="0.52"/>
</linearGradient>
<linearGradient id="paint11_linear_409_1856" x1="39.2686" y1="25.9502" x2="42.3364" y2="27.419" gradientUnits="userSpaceOnUse">
<stop stop-color="#1A5427"/>
<stop offset="1" stop-color="#2EAA49" stop-opacity="0.52"/>
</linearGradient>
<linearGradient id="paint12_linear_409_1856" x1="32.5149" y1="75.7197" x2="33.0077" y2="76.1058" gradientUnits="userSpaceOnUse">
<stop stop-color="#1A5427"/>
<stop offset="1" stop-color="#2EAA49" stop-opacity="0.52"/>
</linearGradient>
<linearGradient id="paint13_linear_409_1856" x1="32.5215" y1="75.3438" x2="32.8818" y2="75.7462" gradientUnits="userSpaceOnUse">
<stop stop-color="#1A5427"/>
<stop offset="1" stop-color="#2EAA49" stop-opacity="0.52"/>
</linearGradient>
<linearGradient id="paint14_linear_409_1856" x1="42.8619" y1="78.6748" x2="43.1989" y2="79.1755" gradientUnits="userSpaceOnUse">
<stop stop-color="#1A5427"/>
<stop offset="1" stop-color="#2EAA49" stop-opacity="0.52"/>
</linearGradient>
<linearGradient id="paint15_linear_409_1856" x1="42.6427" y1="78.2021" x2="43.1932" y2="78.5036" gradientUnits="userSpaceOnUse">
<stop stop-color="#1A5427"/>
<stop offset="1" stop-color="#2EAA49" stop-opacity="0.52"/>
</linearGradient>
<linearGradient id="paint16_linear_409_1856" x1="55.7001" y1="33.7354" x2="60.701" y2="38.1682" gradientUnits="userSpaceOnUse">
<stop stop-color="#1A5427"/>
<stop offset="1" stop-color="#2EAA49" stop-opacity="0.52"/>
</linearGradient>
<linearGradient id="paint17_linear_409_1856" x1="55.4573" y1="33.7432" x2="58.6914" y2="37.6038" gradientUnits="userSpaceOnUse">
<stop stop-color="#1A5427"/>
<stop offset="1" stop-color="#2EAA49" stop-opacity="0.52"/>
</linearGradient>
<linearGradient id="paint18_linear_409_1856" x1="66.0373" y1="39.5361" x2="72.6088" y2="43.4354" gradientUnits="userSpaceOnUse">
<stop stop-color="#1A5427"/>
<stop offset="1" stop-color="#2EAA49" stop-opacity="0.52"/>
</linearGradient>
<linearGradient id="paint19_linear_409_1856" x1="67.5183" y1="39.5498" x2="72.0742" y2="42.3752" gradientUnits="userSpaceOnUse">
<stop stop-color="#1A5427"/>
<stop offset="1" stop-color="#2EAA49" stop-opacity="0.52"/>
</linearGradient>
<linearGradient id="paint20_linear_409_1856" x1="71.549" y1="51.0166" x2="77.7574" y2="54.6646" gradientUnits="userSpaceOnUse">
<stop stop-color="#1A5427"/>
<stop offset="1" stop-color="#2EAA49" stop-opacity="0.52"/>
</linearGradient>
<linearGradient id="paint21_linear_409_1856" x1="69.9225" y1="51.0254" x2="74.1342" y2="53.3833" gradientUnits="userSpaceOnUse">
<stop stop-color="#1A5427"/>
<stop offset="1" stop-color="#2EAA49" stop-opacity="0.52"/>
</linearGradient>
</defs>
</svg>
