<svg width="540" height="413" viewBox="0 0 540 413" fill="none" xmlns="http://www.w3.org/2000/svg">
<path d="M279.369 412.876C423.312 412.876 540 406.51 540 398.658C540 390.805 423.312 384.439 279.369 384.439C135.426 384.439 18.7373 390.805 18.7373 398.658C18.7373 406.51 135.426 412.876 279.369 412.876Z" fill="#92E3A9"/>
<path opacity="0.3" d="M279.369 412.876C423.312 412.876 540 406.51 540 398.658C540 390.805 423.312 384.439 279.369 384.439C135.426 384.439 18.7373 390.805 18.7373 398.658C18.7373 406.51 135.426 412.876 279.369 412.876Z" fill="white"/>
<path d="M433.395 184.345C433.316 184.345 434.301 179.448 434.406 179.093C435.535 175.601 439.789 169.509 443.898 169.522C444.581 169.542 445.253 169.705 445.869 170.001C446.485 170.297 447.032 170.72 447.474 171.241C447.916 171.762 448.243 172.371 448.435 173.027C448.626 173.683 448.677 174.372 448.585 175.05C448.283 177.951 445.684 180.406 443.334 181.837C440.577 183.557 433.395 184.345 433.395 184.345Z" fill="#92E3A9"/>
<path d="M425.426 151.378C429.299 152.77 431.229 159.938 431.097 163.614C431.097 163.929 430.362 168.866 430.296 168.866H430.218C430.52 169.995 430.848 171.216 431.176 172.542C431.754 175.01 432.384 177.793 432.87 180.892C433.433 184.215 433.801 187.569 433.973 190.935C434.182 194.702 434.054 198.481 433.592 202.226C433.584 202.269 433.584 202.314 433.592 202.357C434.104 201.267 435.614 198.248 435.758 198.025C437.78 194.952 443.478 190.147 447.456 191.303C448.108 191.504 448.71 191.839 449.224 192.288C449.738 192.737 450.152 193.288 450.439 193.907C450.726 194.526 450.88 195.198 450.891 195.88C450.902 196.563 450.769 197.239 450.502 197.867C449.451 200.572 446.3 202.265 443.662 203.013C440.681 203.867 434.038 202.856 433.513 202.777C432.953 206.574 432.137 210.329 431.071 214.015C430.458 216.168 429.793 218.322 429.075 220.475C429.535 219.543 429.968 218.715 430.034 218.597C432.056 215.525 437.754 210.72 441.732 211.862C442.385 212.061 442.989 212.396 443.504 212.844C444.019 213.293 444.433 213.845 444.721 214.464C445.008 215.083 445.162 215.757 445.172 216.439C445.181 217.122 445.047 217.799 444.777 218.427C443.727 221.144 440.576 222.825 437.937 223.586C435.299 224.348 429.574 223.586 428.078 223.389C427.802 224.203 427.526 225.03 427.237 225.844C425.925 229.783 424.507 233.722 423.299 237.581C422.866 238.894 422.485 240.312 422.104 241.678C422.524 240.85 422.879 240.155 422.944 240.063C424.953 236.991 430.664 232.186 434.629 233.328C435.281 233.529 435.883 233.865 436.398 234.313C436.912 234.762 437.327 235.313 437.615 235.931C437.903 236.55 438.058 237.222 438.071 237.904C438.084 238.586 437.953 239.263 437.688 239.892C436.638 242.597 433.474 244.29 430.835 245.039C428.196 245.787 423.036 245.13 421.251 244.881C420.896 246.299 420.555 247.704 420.279 249.082C420.109 250.027 419.885 250.933 419.767 251.892C419.649 252.85 419.505 253.782 419.373 254.701C419.19 256.5 418.979 258.364 418.848 260.123C418.743 261.344 418.664 262.513 418.586 263.681C418.993 262.368 419.899 259.664 419.964 259.441C421.422 256.555 423.591 254.088 426.266 252.272C426.412 251.943 426.592 251.631 426.804 251.34C427.176 250.767 427.665 250.279 428.238 249.907C428.811 249.535 429.455 249.288 430.13 249.182C430.805 249.075 431.495 249.112 432.154 249.289C432.814 249.467 433.429 249.781 433.959 250.211C437.084 252.837 436.296 260.294 434.865 263.681C434.786 263.878 433.618 265.939 432.87 267.226C433.434 266.543 433.959 265.913 434.55 265.152C435.692 263.76 436.874 262.395 438.134 260.924L440.064 258.837C440.694 258.115 441.456 257.445 442.152 256.749C443.793 255.161 445.539 253.625 447.338 252.115C446.103 251.117 441.81 247.48 440.576 245.012C439.342 242.544 438.463 239.091 439.749 236.492C440.031 235.867 440.44 235.309 440.952 234.854C441.464 234.399 442.066 234.056 442.719 233.849C443.372 233.642 444.061 233.576 444.741 233.653C445.422 233.731 446.078 233.951 446.668 234.299C450.147 236.479 450.502 243.896 449.596 247.428C449.596 247.651 448.598 250.132 448.06 251.485C449.149 250.592 450.226 249.686 451.355 248.859C454.611 246.338 457.985 243.896 461.333 241.441L464.392 239.17C463.959 238.816 458.76 234.614 457.368 231.857C456.147 229.402 455.254 225.936 456.541 223.324C456.824 222.701 457.234 222.144 457.746 221.69C458.258 221.236 458.86 220.894 459.512 220.687C460.165 220.481 460.853 220.413 461.533 220.49C462.213 220.566 462.869 220.785 463.46 221.131C466.939 223.324 467.293 230.741 466.387 234.26C466.322 234.536 464.969 238.107 464.576 238.999C466.821 237.319 469.039 235.638 471.14 233.892C474.016 231.543 476.735 229.008 479.28 226.304C479.083 226.146 473.634 221.788 472.217 218.952C470.982 216.497 470.103 213.031 471.389 210.431C471.669 209.807 472.078 209.249 472.588 208.794C473.099 208.339 473.7 207.996 474.352 207.79C475.003 207.583 475.692 207.516 476.371 207.593C477.051 207.67 477.706 207.89 478.295 208.239C481.787 210.418 482.142 217.836 481.236 221.367C481.17 221.591 480.146 224.321 479.621 225.608L479.831 225.726C482.321 222.938 484.558 219.932 486.514 216.746C487.603 215.013 488.562 213.293 489.455 211.587C488.352 210.878 483.376 207.648 481.814 205.18C480.251 202.712 479.07 199.534 480.054 196.804C480.267 196.161 480.61 195.57 481.064 195.067C481.517 194.565 482.07 194.162 482.688 193.886C483.306 193.609 483.974 193.464 484.651 193.46C485.328 193.456 485.998 193.593 486.619 193.863C490.334 195.648 491.489 202.987 490.977 206.624C490.977 206.821 490.452 208.803 490.072 210.247C490.452 209.473 490.872 208.685 491.227 207.937C492.54 205.127 493.656 202.475 494.575 200.06C495.1 198.747 495.533 197.434 495.888 196.344C495.166 195.031 492.356 189.977 492.08 187.154C491.805 184.331 492.251 180.865 494.391 178.896C494.879 178.417 495.462 178.047 496.103 177.808C496.744 177.57 497.428 177.469 498.11 177.512C498.793 177.556 499.458 177.742 500.064 178.06C500.669 178.377 501.201 178.819 501.625 179.356C504.093 182.651 501.743 189.688 499.616 192.694C499.432 192.944 496.085 196.633 496.045 196.633V196.554C495.678 197.67 495.284 198.865 494.811 200.151C493.945 202.528 492.92 205.219 491.634 208.029C490.263 211.109 488.715 214.107 486.999 217.009C485.088 220.26 482.891 223.336 480.435 226.199L480.343 226.304C481.367 225.661 484.282 223.993 484.531 223.888C487.918 222.444 495.297 221.617 498.001 224.728C498.435 225.257 498.752 225.87 498.934 226.528C499.116 227.187 499.157 227.876 499.055 228.552C498.954 229.227 498.712 229.874 498.345 230.45C497.978 231.026 497.494 231.519 496.925 231.897C494.548 233.577 490.977 233.21 488.365 232.409C485.411 231.477 480.488 226.973 480.028 226.619C477.468 229.475 474.718 232.155 471.796 234.641C470.09 236.111 468.344 237.529 466.545 238.921C467.451 238.409 468.265 237.949 468.383 237.896C471.757 236.452 479.135 235.625 481.84 238.737C482.275 239.264 482.595 239.877 482.777 240.536C482.96 241.195 483.002 241.885 482.9 242.561C482.799 243.237 482.556 243.884 482.188 244.461C481.82 245.037 481.334 245.529 480.763 245.905C478.4 247.586 474.829 247.218 472.217 246.417C469.604 245.616 465.232 241.835 464.103 240.824L462.042 242.413C458.733 244.947 455.477 247.454 452.261 250.014C451.145 250.92 450.081 251.852 449.005 252.771C449.819 252.312 450.488 251.931 450.607 251.892C453.981 250.434 461.359 249.62 464.064 252.719C464.501 253.245 464.822 253.858 465.006 254.517C465.19 255.177 465.232 255.867 465.131 256.544C465.029 257.221 464.785 257.869 464.416 258.445C464.047 259.021 463.56 259.512 462.987 259.887C460.611 261.568 457.053 261.2 454.44 260.412C451.828 259.625 447.876 256.185 446.563 254.99C445.5 255.975 444.423 256.946 443.438 257.957C442.769 258.653 442.125 259.27 441.469 260.018C440.813 260.767 440.156 261.436 439.578 262.145C438.436 263.537 437.242 264.981 436.152 266.373C435.39 267.331 434.681 268.263 433.973 269.195C435.062 268.289 437.268 266.57 437.465 266.425C440.576 264.482 447.745 262.552 450.895 265.204C451.404 265.662 451.811 266.222 452.09 266.847C452.368 267.473 452.512 268.15 452.512 268.834C452.512 269.519 452.368 270.196 452.09 270.821C451.811 271.447 451.404 272.006 450.895 272.464C448.808 274.473 445.237 274.696 442.532 274.276C439.539 273.804 434.13 270.338 433.46 269.839C432.279 271.388 431.15 272.911 430.1 274.368C426.463 279.396 423.627 283.716 421.684 286.775L421.487 287.077L418.966 285.856C419.098 285.659 419.229 285.475 419.36 285.265C421.395 282.219 424.362 277.913 428.143 272.911C429.338 271.335 430.638 269.668 431.99 267.961C430.583 266.43 429.268 264.817 428.051 263.13C425.15 264.259 419.124 264.311 418.349 264.311C418.231 266.255 418.126 268.145 418.047 269.931C417.785 276.141 417.811 281.313 417.877 284.924V285.357L415.107 284.044C415.107 280.46 415.251 275.589 415.619 269.852C415.737 267.869 415.907 265.756 416.104 263.603C415.33 263.406 409.067 261.791 406.704 259.9C404.564 258.194 402.306 255.41 402.385 252.509C402.377 251.824 402.515 251.146 402.788 250.519C403.061 249.891 403.464 249.328 403.969 248.867C404.475 248.406 405.073 248.057 405.723 247.843C406.373 247.629 407.061 247.555 407.741 247.625C411.824 248.15 415.238 254.741 415.921 258.351C415.921 258.561 416.131 260.977 416.209 262.421C416.301 261.528 416.367 260.675 416.459 259.795C416.643 257.997 416.879 256.198 417.128 254.268C417.273 253.349 417.43 252.417 417.575 251.472C417.719 250.526 417.969 249.555 418.166 248.583C418.664 246.351 419.268 244.106 419.938 241.861C418.362 241.691 412.783 241.034 410.38 239.669C407.978 238.303 405.352 235.888 404.997 233.013C404.886 232.337 404.918 231.645 405.092 230.982C405.267 230.32 405.579 229.702 406.01 229.169C406.44 228.635 406.978 228.199 407.589 227.889C408.199 227.578 408.869 227.401 409.553 227.367C413.662 227.262 418.047 233.262 419.255 236.728C419.334 236.951 419.925 239.538 420.214 240.969C420.634 239.656 421.028 238.264 421.526 236.925C422.839 232.986 424.323 229.127 425.767 225.227C426.213 224.033 426.634 222.838 427.08 221.656C426.515 221.656 419.859 220.96 417.181 219.424C414.805 218.112 412.153 215.643 411.785 212.768C411.677 212.093 411.713 211.402 411.889 210.742C412.065 210.081 412.378 209.464 412.807 208.932C413.237 208.4 413.773 207.964 414.382 207.652C414.99 207.341 415.658 207.16 416.341 207.123C420.463 207.018 424.848 213.018 426.056 216.484C426.148 216.746 426.988 220.422 427.159 221.433C428.104 218.807 429.036 216.182 429.784 213.556C430.895 210.011 431.772 206.397 432.41 202.738C432.148 202.738 425.189 202.081 422.459 200.506C420.069 199.193 417.417 196.725 417.063 193.85C416.955 193.174 416.99 192.484 417.167 191.823C417.343 191.162 417.656 190.546 418.085 190.014C418.514 189.482 419.051 189.046 419.66 188.734C420.268 188.422 420.936 188.242 421.618 188.204C425.728 188.112 430.113 194.099 431.32 197.565C431.399 197.801 432.043 200.637 432.318 201.989H432.555C433.097 198.291 433.307 194.552 433.185 190.817C433.185 188.756 432.988 186.8 432.791 184.883C431.478 184.883 425.518 184.883 422.892 183.754C420.266 182.625 417.47 180.55 416.787 177.728C416.605 177.066 416.564 176.374 416.668 175.696C416.772 175.018 417.018 174.37 417.39 173.794C417.762 173.217 418.251 172.726 418.826 172.352C419.401 171.978 420.048 171.729 420.726 171.623C424.809 171.071 429.824 176.546 431.412 179.868C431.491 180.051 432.174 181.981 432.633 183.386C432.541 182.533 432.45 181.64 432.331 180.826C431.924 177.741 431.347 174.931 430.822 172.463C430.507 171.058 430.205 169.837 429.903 168.616C428.59 167.96 423.443 165.255 421.671 163.063C419.899 160.87 418.349 157.733 419.045 154.91C419.195 154.237 419.486 153.604 419.899 153.052C420.312 152.5 420.837 152.042 421.441 151.708C422.044 151.374 422.711 151.172 423.398 151.115C424.085 151.058 424.776 151.148 425.426 151.378Z" fill="#92E3A9"/>
<path d="M499.84 214.829C496.623 214.698 490.19 211.403 490.19 211.39C490.19 211.377 493.643 207.819 493.892 207.622C496.767 205.324 503.673 202.593 507.1 204.865C507.659 205.26 508.128 205.768 508.478 206.356C508.828 206.944 509.05 207.599 509.131 208.279C509.211 208.958 509.148 209.647 508.945 210.301C508.742 210.954 508.404 211.558 507.953 212.072C506.115 214.278 502.583 214.934 499.84 214.829Z" fill="#92E3A9"/>
<g opacity="0.5">
<path d="M433.395 184.345C433.316 184.345 434.3 179.448 434.406 179.093C435.535 175.601 439.788 169.509 443.898 169.522C444.581 169.542 445.252 169.705 445.868 170.001C446.485 170.297 447.031 170.72 447.473 171.241C447.915 171.762 448.243 172.371 448.434 173.027C448.626 173.683 448.677 174.372 448.585 175.05C448.283 177.951 445.683 180.406 443.333 181.837C440.576 183.557 433.395 184.345 433.395 184.345Z" fill="white"/>
<path d="M425.426 151.378C429.299 152.77 431.229 159.938 431.097 163.614C431.097 163.929 430.362 168.866 430.296 168.866H430.218C430.52 169.995 430.848 171.216 431.176 172.542C431.754 175.01 432.384 177.793 432.87 180.892C433.433 184.215 433.801 187.569 433.973 190.935C434.182 194.702 434.054 198.481 433.592 202.226C433.584 202.269 433.584 202.314 433.592 202.357C434.104 201.267 435.614 198.248 435.758 198.025C437.78 194.952 443.478 190.147 447.456 191.303C448.108 191.504 448.71 191.839 449.224 192.288C449.738 192.737 450.152 193.288 450.439 193.907C450.726 194.526 450.88 195.198 450.891 195.88C450.902 196.563 450.769 197.239 450.502 197.867C449.451 200.572 446.3 202.265 443.662 203.013C440.681 203.867 434.038 202.856 433.513 202.777C432.953 206.574 432.137 210.329 431.071 214.015C430.458 216.168 429.793 218.322 429.075 220.475C429.535 219.543 429.968 218.715 430.034 218.597C432.056 215.525 437.754 210.72 441.732 211.862C442.385 212.061 442.989 212.396 443.504 212.844C444.019 213.293 444.433 213.845 444.721 214.464C445.008 215.083 445.162 215.757 445.172 216.439C445.181 217.122 445.047 217.799 444.777 218.427C443.727 221.144 440.576 222.825 437.937 223.586C435.299 224.348 429.574 223.586 428.078 223.389C427.802 224.203 427.526 225.03 427.237 225.844C425.925 229.783 424.507 233.722 423.299 237.581C422.866 238.894 422.485 240.312 422.104 241.678C422.524 240.85 422.879 240.155 422.944 240.063C424.953 236.991 430.664 232.186 434.629 233.328C435.281 233.529 435.883 233.865 436.398 234.313C436.912 234.762 437.327 235.313 437.615 235.931C437.903 236.55 438.058 237.222 438.071 237.904C438.084 238.586 437.953 239.263 437.688 239.892C436.638 242.597 433.474 244.29 430.835 245.039C428.196 245.787 423.036 245.13 421.251 244.881C420.896 246.299 420.555 247.704 420.279 249.082C420.109 250.027 419.885 250.933 419.767 251.892C419.649 252.85 419.505 253.782 419.373 254.701C419.19 256.5 418.979 258.364 418.848 260.123C418.743 261.344 418.664 262.513 418.586 263.681C418.993 262.368 419.899 259.664 419.964 259.441C421.422 256.555 423.591 254.088 426.266 252.272C426.412 251.943 426.592 251.631 426.804 251.34C427.176 250.767 427.665 250.279 428.238 249.907C428.811 249.535 429.455 249.288 430.13 249.182C430.805 249.075 431.495 249.112 432.154 249.289C432.814 249.467 433.429 249.781 433.959 250.211C437.084 252.837 436.296 260.294 434.865 263.681C434.786 263.878 433.618 265.939 432.87 267.226C433.434 266.543 433.959 265.913 434.55 265.152C435.692 263.76 436.874 262.395 438.134 260.924L440.064 258.837C440.694 258.115 441.456 257.445 442.152 256.749C443.793 255.161 445.539 253.625 447.338 252.115C446.103 251.117 441.81 247.48 440.576 245.012C439.342 242.544 438.463 239.091 439.749 236.492C440.031 235.867 440.44 235.309 440.952 234.854C441.464 234.399 442.066 234.056 442.719 233.849C443.372 233.642 444.061 233.576 444.741 233.653C445.422 233.731 446.078 233.951 446.668 234.299C450.147 236.479 450.502 243.896 449.596 247.428C449.596 247.651 448.598 250.132 448.06 251.485C449.149 250.592 450.226 249.686 451.355 248.859C454.611 246.338 457.985 243.896 461.333 241.441L464.392 239.17C463.959 238.816 458.76 234.614 457.368 231.857C456.147 229.402 455.254 225.936 456.541 223.324C456.824 222.701 457.234 222.144 457.746 221.69C458.258 221.236 458.86 220.894 459.512 220.687C460.165 220.481 460.853 220.413 461.533 220.49C462.213 220.566 462.869 220.785 463.46 221.131C466.939 223.324 467.293 230.741 466.387 234.26C466.322 234.536 464.969 238.107 464.576 238.999C466.821 237.319 469.039 235.638 471.14 233.892C474.016 231.543 476.735 229.008 479.28 226.304C479.083 226.146 473.634 221.788 472.217 218.952C470.982 216.497 470.103 213.031 471.389 210.431C471.669 209.807 472.078 209.249 472.588 208.794C473.099 208.339 473.7 207.996 474.352 207.79C475.003 207.583 475.692 207.516 476.371 207.593C477.051 207.67 477.706 207.89 478.295 208.239C481.787 210.418 482.142 217.836 481.236 221.367C481.17 221.591 480.146 224.321 479.621 225.608L479.831 225.726C482.321 222.938 484.558 219.932 486.514 216.746C487.603 215.013 488.562 213.293 489.455 211.587C488.352 210.878 483.376 207.648 481.814 205.18C480.251 202.712 479.07 199.534 480.054 196.804C480.267 196.161 480.61 195.57 481.064 195.067C481.517 194.565 482.07 194.162 482.688 193.886C483.306 193.609 483.974 193.464 484.651 193.46C485.328 193.456 485.998 193.593 486.619 193.863C490.334 195.648 491.489 202.987 490.977 206.624C490.977 206.821 490.452 208.803 490.072 210.247C490.452 209.473 490.872 208.685 491.227 207.937C492.54 205.127 493.656 202.475 494.575 200.06C495.1 198.747 495.533 197.434 495.888 196.344C495.166 195.031 492.356 189.977 492.08 187.154C491.805 184.331 492.251 180.865 494.391 178.896C494.879 178.417 495.462 178.047 496.103 177.808C496.744 177.57 497.428 177.469 498.11 177.512C498.793 177.556 499.458 177.742 500.064 178.06C500.669 178.377 501.201 178.819 501.625 179.356C504.093 182.651 501.743 189.688 499.616 192.694C499.432 192.944 496.085 196.633 496.045 196.633V196.554C495.678 197.67 495.284 198.865 494.811 200.151C493.945 202.528 492.92 205.219 491.634 208.029C490.263 211.109 488.715 214.107 486.999 217.009C485.088 220.26 482.891 223.336 480.435 226.199L480.343 226.304C481.367 225.661 484.282 223.993 484.531 223.888C487.918 222.444 495.297 221.617 498.001 224.728C498.435 225.257 498.752 225.87 498.934 226.528C499.116 227.187 499.157 227.876 499.055 228.552C498.954 229.227 498.712 229.874 498.345 230.45C497.978 231.026 497.494 231.519 496.925 231.897C494.548 233.577 490.977 233.21 488.365 232.409C485.411 231.477 480.488 226.973 480.028 226.619C477.468 229.475 474.718 232.155 471.796 234.641C470.09 236.111 468.344 237.529 466.545 238.921C467.451 238.409 468.265 237.949 468.383 237.896C471.757 236.452 479.135 235.625 481.84 238.737C482.275 239.264 482.595 239.877 482.777 240.536C482.96 241.195 483.002 241.885 482.9 242.561C482.799 243.237 482.556 243.884 482.188 244.461C481.82 245.037 481.334 245.529 480.763 245.905C478.4 247.586 474.829 247.218 472.217 246.417C469.604 245.616 465.232 241.835 464.103 240.824L462.042 242.413C458.733 244.947 455.477 247.454 452.261 250.014C451.145 250.92 450.081 251.852 449.005 252.771C449.819 252.312 450.488 251.931 450.607 251.892C453.981 250.434 461.359 249.62 464.064 252.719C464.501 253.245 464.822 253.858 465.006 254.517C465.19 255.177 465.232 255.867 465.131 256.544C465.029 257.221 464.785 257.869 464.416 258.445C464.047 259.021 463.56 259.512 462.987 259.887C460.611 261.568 457.053 261.2 454.44 260.412C451.828 259.625 447.876 256.185 446.563 254.99C445.5 255.975 444.423 256.946 443.438 257.957C442.769 258.653 442.125 259.27 441.469 260.018C440.813 260.767 440.156 261.436 439.578 262.145C438.436 263.537 437.242 264.981 436.152 266.373C435.39 267.331 434.681 268.263 433.973 269.195C435.062 268.289 437.268 266.57 437.465 266.425C440.576 264.482 447.745 262.552 450.895 265.204C451.404 265.662 451.811 266.222 452.09 266.847C452.368 267.473 452.512 268.15 452.512 268.834C452.512 269.519 452.368 270.196 452.09 270.821C451.811 271.447 451.404 272.006 450.895 272.464C448.808 274.473 445.237 274.696 442.532 274.276C439.539 273.804 434.13 270.338 433.46 269.839C432.279 271.388 431.15 272.911 430.1 274.368C426.463 279.396 423.627 283.716 421.684 286.775L421.487 287.077L418.966 285.856C419.098 285.659 419.229 285.475 419.36 285.265C421.395 282.219 424.362 277.913 428.143 272.911C429.338 271.335 430.638 269.668 431.99 267.961C430.583 266.43 429.268 264.817 428.051 263.13C425.15 264.259 419.124 264.311 418.349 264.311C418.231 266.255 418.126 268.145 418.047 269.931C417.785 276.141 417.811 281.313 417.877 284.924V285.357L415.107 284.044C415.107 280.46 415.251 275.589 415.619 269.852C415.737 267.869 415.907 265.756 416.104 263.603C415.33 263.406 409.067 261.791 406.704 259.9C404.564 258.194 402.306 255.41 402.385 252.509C402.377 251.824 402.515 251.146 402.788 250.519C403.061 249.891 403.464 249.328 403.969 248.867C404.475 248.406 405.073 248.057 405.723 247.843C406.373 247.629 407.061 247.555 407.741 247.625C411.824 248.15 415.238 254.741 415.921 258.351C415.921 258.561 416.131 260.977 416.209 262.421C416.301 261.528 416.367 260.675 416.459 259.795C416.643 257.997 416.879 256.198 417.128 254.268C417.273 253.349 417.43 252.417 417.575 251.472C417.719 250.526 417.969 249.555 418.166 248.583C418.664 246.351 419.268 244.106 419.938 241.861C418.362 241.691 412.783 241.034 410.38 239.669C407.978 238.303 405.352 235.888 404.997 233.013C404.886 232.337 404.918 231.645 405.092 230.982C405.267 230.32 405.579 229.702 406.01 229.169C406.44 228.635 406.978 228.199 407.589 227.889C408.199 227.578 408.869 227.401 409.553 227.367C413.662 227.262 418.047 233.262 419.255 236.728C419.334 236.951 419.925 239.538 420.214 240.969C420.634 239.656 421.028 238.264 421.526 236.925C422.839 232.986 424.323 229.127 425.767 225.227C426.213 224.033 426.634 222.838 427.08 221.656C426.515 221.656 419.859 220.96 417.181 219.424C414.805 218.112 412.153 215.643 411.785 212.768C411.677 212.093 411.713 211.402 411.889 210.742C412.065 210.081 412.378 209.464 412.807 208.932C413.237 208.4 413.773 207.964 414.382 207.652C414.99 207.341 415.658 207.16 416.341 207.123C420.463 207.018 424.848 213.018 426.056 216.484C426.148 216.746 426.988 220.422 427.159 221.433C428.104 218.807 429.036 216.182 429.784 213.556C430.895 210.011 431.772 206.397 432.41 202.738C432.148 202.738 425.189 202.081 422.459 200.506C420.069 199.193 417.417 196.725 417.063 193.85C416.955 193.174 416.99 192.484 417.167 191.823C417.343 191.162 417.656 190.546 418.085 190.014C418.514 189.482 419.051 189.046 419.66 188.734C420.268 188.422 420.936 188.242 421.618 188.204C425.728 188.112 430.113 194.099 431.32 197.565C431.399 197.801 432.043 200.637 432.318 201.989H432.555C433.097 198.291 433.307 194.552 433.185 190.817C433.185 188.756 432.988 186.8 432.791 184.883C431.478 184.883 425.518 184.883 422.892 183.754C420.266 182.625 417.47 180.55 416.787 177.728C416.605 177.066 416.564 176.374 416.668 175.696C416.772 175.018 417.018 174.37 417.39 173.794C417.762 173.217 418.251 172.726 418.826 172.352C419.401 171.978 420.048 171.729 420.726 171.623C424.809 171.071 429.824 176.546 431.412 179.868C431.491 180.051 432.174 181.981 432.633 183.386C432.541 182.533 432.45 181.64 432.331 180.826C431.924 177.741 431.347 174.931 430.822 172.463C430.507 171.058 430.205 169.837 429.903 168.616C428.59 167.96 423.443 165.255 421.671 163.063C419.899 160.87 418.349 157.733 419.045 154.91C419.195 154.237 419.486 153.604 419.899 153.052C420.312 152.5 420.837 152.042 421.441 151.708C422.044 151.374 422.711 151.172 423.398 151.115C424.085 151.058 424.776 151.148 425.426 151.378Z" fill="white"/>
<path d="M499.84 214.829C496.623 214.698 490.19 211.403 490.19 211.39C490.19 211.377 493.643 207.819 493.892 207.622C496.767 205.324 503.673 202.593 507.1 204.865C507.659 205.26 508.128 205.768 508.478 206.356C508.828 206.944 509.05 207.599 509.131 208.279C509.211 208.958 509.148 209.647 508.945 210.301C508.742 210.954 508.404 211.558 507.953 212.072C506.115 214.278 502.583 214.934 499.84 214.829Z" fill="white"/>
</g>
<path d="M462.278 295.387C462.278 295.387 442.756 248.321 431.833 250.369C420.91 252.417 450.541 325.386 450.541 325.386C450.541 325.386 416.196 260.596 392.775 260.596C369.353 260.596 401.361 332.213 431.019 356.081C431.019 356.081 384.188 305.614 356.868 316.524C329.547 327.434 411.509 378.584 411.509 378.584C411.509 378.584 363.891 363.578 369.353 375.17C374.815 386.763 389.65 388.811 389.65 388.811L335.822 391.542H523.169L481.013 387.446C481.013 387.446 524.732 365.626 513.021 356.764C501.31 347.902 475.551 366.991 475.551 366.991C475.551 366.991 520.045 317.89 511.458 299.47C502.872 281.051 464.615 332.896 464.615 332.896C464.615 332.896 495.848 266.74 489.56 255.148C483.271 243.555 462.278 295.387 462.278 295.387Z" fill="#92E3A9"/>
<path opacity="0.4" d="M462.278 295.387C462.278 295.387 442.756 248.321 431.833 250.369C420.91 252.417 450.541 325.386 450.541 325.386C450.541 325.386 416.196 260.596 392.775 260.596C369.353 260.596 401.361 332.213 431.019 356.081C431.019 356.081 384.188 305.614 356.868 316.524C329.547 327.434 411.509 378.584 411.509 378.584C411.509 378.584 363.891 363.578 369.353 375.17C374.815 386.763 389.65 388.811 389.65 388.811L335.822 391.542H523.169L481.013 387.446C481.013 387.446 524.732 365.626 513.021 356.764C501.31 347.902 475.551 366.991 475.551 366.991C475.551 366.991 520.045 317.89 511.458 299.47C502.872 281.051 464.615 332.896 464.615 332.896C464.615 332.896 495.848 266.74 489.56 255.148C483.271 243.555 462.278 295.387 462.278 295.387Z" fill="white"/>
<path d="M468.527 297.855C451.342 348.598 451.342 384.505 451.342 384.505C451.342 384.505 471.639 385.28 492.724 369.67" stroke="#263238" stroke-linecap="round" stroke-linejoin="round"/>
<path d="M459.941 325.189C456.397 310.016 451.696 295.137 445.88 280.683" stroke="#263238" stroke-linecap="round" stroke-linejoin="round"/>
<path d="M409.199 295.519L452.904 360.309C452.904 360.309 482.575 335.364 492.724 321.277" stroke="#263238" stroke-linecap="round" stroke-linejoin="round"/>
<path d="M452.13 375.932C452.13 375.932 406.074 354.073 387.339 341.627" stroke="#263238" stroke-linecap="round" stroke-linejoin="round"/>
<path d="M410.787 26.5371H270.52C264.777 26.5371 260.122 31.1924 260.122 36.9351V381.144C260.122 386.887 264.777 391.542 270.52 391.542H410.787C416.53 391.542 421.185 386.887 421.185 381.144V36.9351C421.185 31.1924 416.53 26.5371 410.787 26.5371Z" fill="white" stroke="#263238" stroke-linecap="round" stroke-linejoin="round"/>
<path d="M415.803 90.4344C415.235 90.4344 414.691 90.2089 414.289 89.8076C413.888 89.4063 413.663 88.862 413.663 88.2944V59.6082C413.705 59.0679 413.949 58.5634 414.347 58.1954C414.745 57.8274 415.267 57.623 415.809 57.623C416.351 57.623 416.873 57.8274 417.271 58.1954C417.669 58.5634 417.913 59.0679 417.956 59.6082V88.2419C417.961 88.528 417.909 88.8122 417.803 89.078C417.697 89.3438 417.54 89.5858 417.339 89.7899C417.139 89.994 416.9 90.1562 416.636 90.2668C416.372 90.3775 416.089 90.4345 415.803 90.4344Z" fill="#263238"/>
<path d="M415.803 117.007C415.235 117.007 414.691 116.781 414.289 116.38C413.888 115.979 413.663 115.434 413.663 114.867V98.8367C413.705 98.2964 413.949 97.7919 414.347 97.4239C414.745 97.0559 415.267 96.8516 415.809 96.8516C416.351 96.8516 416.873 97.0559 417.271 97.4239C417.669 97.7919 417.913 98.2964 417.956 98.8367V114.867C417.952 115.436 417.724 115.98 417.32 116.381C416.917 116.782 416.371 117.007 415.803 117.007Z" fill="#263238"/>
<path d="M398.643 26.5371H258.376C252.633 26.5371 247.978 31.1924 247.978 36.9351V381.144C247.978 386.887 252.633 391.542 258.376 391.542H398.643C404.386 391.542 409.041 386.887 409.041 381.144V36.9351C409.041 31.1924 404.386 26.5371 398.643 26.5371Z" fill="#263238" stroke="#263238" stroke-linecap="round" stroke-linejoin="round"/>
<path d="M398.315 50.8379H258.704V363.905H398.315V50.8379Z" fill="#92E3A9"/>
<path d="M307.779 40.834H344.947" stroke="white" stroke-width="3" stroke-linecap="round" stroke-linejoin="round"/>
<path d="M323.508 374.986C323.508 377.547 321.906 379.621 319.924 379.621C317.941 379.621 316.353 377.547 316.353 374.986C316.353 372.426 317.954 370.339 319.924 370.339C321.893 370.339 323.508 372.413 323.508 374.986Z" fill="white"/>
<path d="M328.51 128.745C341.88 128.745 352.719 116.107 352.719 100.518C352.719 84.9286 341.88 72.291 328.51 72.291C315.139 72.291 304.3 84.9286 304.3 100.518C304.3 116.107 315.139 128.745 328.51 128.745Z" fill="white"/>
<path d="M328.509 100.163C333.585 100.163 337.7 95.361 337.7 89.4371C337.7 83.5132 333.585 78.7109 328.509 78.7109C323.434 78.7109 319.319 83.5132 319.319 89.4371C319.319 95.361 323.434 100.163 328.509 100.163Z" fill="#263238" stroke="#263238" stroke-linecap="round" stroke-linejoin="round"/>
<path d="M328.51 103.012C319.32 103.012 311.797 110.062 311.797 118.766C311.804 119.576 311.879 120.384 312.02 121.182C314.059 123.561 316.588 125.471 319.434 126.78C322.281 128.09 325.377 128.768 328.51 128.768C331.643 128.768 334.739 128.09 337.585 126.78C340.432 125.471 342.961 123.561 344.999 121.182C345.13 120.383 345.2 119.576 345.209 118.766C345.209 110.062 337.726 103.012 328.51 103.012Z" fill="#263238" stroke="#263238" stroke-linecap="round" stroke-linejoin="round"/>
<path d="M357.944 223.468H299.075C297.517 223.406 296.047 222.729 294.989 221.584C293.93 220.439 293.369 218.921 293.43 217.363V181.022C293.43 160.082 309.184 143.041 328.51 143.041C347.835 143.041 363.577 160.108 363.577 181.022V217.336C363.61 218.109 363.491 218.881 363.226 219.607C362.961 220.333 362.555 221.001 362.032 221.57C361.509 222.139 360.878 222.6 360.177 222.926C359.476 223.251 358.717 223.436 357.944 223.468ZM304.707 211.258H352.299V181.062C352.299 166.857 341.625 155.29 328.51 155.29C315.394 155.29 304.707 166.857 304.707 181.062V211.258Z" fill="#263238"/>
<path d="M369.38 198.668H287.64V275.996H369.38V198.668Z" fill="white"/>
<path d="M340.417 251.905L334.352 237.319C335.693 236.305 336.778 234.99 337.519 233.481C338.26 231.972 338.637 230.309 338.619 228.628C338.619 222.812 334.273 218.125 328.904 218.125C323.534 218.125 319.201 222.825 319.201 228.628C319.181 230.308 319.555 231.97 320.294 233.48C321.033 234.989 322.116 236.304 323.455 237.319L317.403 251.905H340.417Z" fill="#263238" stroke="#263238" stroke-linecap="round" stroke-linejoin="round"/>
<path d="M303.605 345.486C303.73 345.578 303.882 345.629 304.038 345.631C304.149 345.63 304.259 345.603 304.358 345.55C304.456 345.497 304.54 345.421 304.602 345.329L398.315 217.862V215.446L303.5 344.489C303.441 344.561 303.397 344.644 303.371 344.733C303.344 344.823 303.335 344.917 303.345 345.009C303.355 345.102 303.383 345.192 303.427 345.274C303.472 345.355 303.532 345.428 303.605 345.486Z" fill="white"/>
<path d="M379.462 96.7627C379.406 96.8383 379.366 96.9242 379.344 97.0156C379.321 97.1069 379.317 97.2017 379.332 97.2946C379.347 97.3874 379.38 97.4764 379.429 97.5564C379.478 97.6364 379.543 97.7058 379.62 97.7605C379.773 97.8699 379.964 97.9147 380.151 97.8852C380.337 97.8558 380.505 97.7544 380.617 97.6029L398.315 73.538V71.1748L379.462 96.7627Z" fill="white"/>
<path d="M258.704 263.458L374.394 106.136C374.506 105.983 374.552 105.792 374.522 105.605C374.493 105.418 374.39 105.25 374.237 105.139C374.084 105.027 373.892 104.981 373.705 105.011C373.518 105.04 373.351 105.143 373.239 105.296L258.757 261.042L258.704 263.458Z" fill="white"/>
<path d="M292.734 361.004C292.845 361.002 292.955 360.975 293.055 360.925C293.155 360.875 293.243 360.804 293.311 360.715L299.876 351.84C299.932 351.765 299.972 351.679 299.994 351.587C300.017 351.496 300.021 351.401 300.006 351.308C299.991 351.216 299.958 351.127 299.909 351.047C299.859 350.967 299.795 350.897 299.718 350.843C299.564 350.733 299.374 350.688 299.187 350.718C299.001 350.747 298.833 350.849 298.72 351L292.156 359.862C292.1 359.937 292.058 360.022 292.035 360.113C292.012 360.204 292.007 360.298 292.02 360.391C292.033 360.484 292.065 360.573 292.113 360.654C292.161 360.734 292.225 360.804 292.3 360.86C292.424 360.957 292.577 361.008 292.734 361.004Z" fill="white"/>
<path d="M398.315 243.385L321.381 348.034C321.303 348.14 321.256 348.266 321.245 348.397C321.234 348.528 321.26 348.66 321.32 348.777C321.38 348.894 321.472 348.992 321.585 349.06C321.697 349.129 321.827 349.164 321.958 349.163C322.071 349.165 322.182 349.14 322.283 349.09C322.383 349.039 322.47 348.965 322.536 348.874L398.315 245.787V243.385Z" fill="white"/>
<path d="M128.113 96.3032C129.415 93.4189 130.043 90.2762 129.951 87.1131C129.951 81.2446 122.848 77.8442 114.498 76.9121C106.148 75.9799 102.446 79.3803 103.68 81.5465C104.963 83.3331 106.528 84.8985 108.315 86.181C108.315 86.181 99.9648 81.5465 94.3982 85.262C88.8317 88.9774 96.8796 87.4282 95.3304 91.1305C93.7812 94.8328 85.1293 93.2968 82.9631 103.183C80.7969 113.069 86.9805 122.968 81.4139 127.3C75.8473 131.633 59.0951 125.751 54.2112 136.569C49.3273 147.387 56.2593 152.192 44.5222 158.993C32.7851 165.794 24.2252 172.437 27.6255 189.123C31.0259 205.81 42.159 211.652 64.1103 205.757C86.0615 199.863 84.5123 186.589 91.6806 172.936C98.8489 159.282 109.93 162.118 113.33 154.385C116.73 146.652 112.398 137.383 112.713 130.267C113.028 123.151 120.131 121.615 122.914 113.2C125.697 104.784 128.113 96.3032 128.113 96.3032Z" fill="#263238" stroke="#263238" stroke-linecap="round" stroke-linejoin="round"/>
<path d="M30.1859 188.809C29.6102 189.971 29.3178 191.253 29.3326 192.55" stroke="white" stroke-width="0.5" stroke-linecap="round" stroke-linejoin="round"/>
<path d="M116.244 90.1716C116.244 90.1716 112.385 85.7079 119.815 87.7822C129.176 90.408 118.188 101.239 113.96 103.419C105.479 107.764 94.267 106.372 87.7026 114.276C81.7422 121.418 89.7901 128.862 86.2191 134.52C82.648 140.179 68.3509 136.897 63.5983 143.711C58.8457 150.524 72.2238 165.15 58.5306 173.185C48.6315 179.001 37.7872 181.232 32.5488 185.841" stroke="white" stroke-width="0.5" stroke-linecap="round" stroke-linejoin="round"/>
<path d="M94.0433 116.587C93.2319 118.486 92.9858 120.578 93.3344 122.613C94.516 127.668 101.369 137.199 95.1199 142.556C88.8706 147.912 78.1444 147.61 76.3721 153.886C74.5997 160.161 78.1576 177.399 72.2103 185.395C66.2629 193.39 54.644 192.839 48.3947 198.195C42.1455 203.552 43.0382 206.532 43.0382 206.532" stroke="white" stroke-width="0.5" stroke-linecap="round" stroke-linejoin="round"/>
<path d="M97.1949 110.705C96.6538 111.47 96.1542 112.263 95.6982 113.081" stroke="white" stroke-width="0.5" stroke-linecap="round" stroke-linejoin="round"/>
<path d="M132.117 188.336L133.627 200.152C133.627 200.152 141.504 208.029 147.294 212.9C153.084 217.771 167.919 228.077 167.919 228.077L160.396 230.217C160.396 230.217 135.806 215.644 130.949 214.462C126.091 213.281 122.454 206.27 120.945 204.143C119.435 202.016 128.165 186.209 132.117 188.336Z" fill="white" stroke="#263238" stroke-linecap="round" stroke-linejoin="round"/>
<path d="M147.136 380.58C147.136 380.58 154.567 386.855 157.639 388.956C160.712 391.057 164.296 392.002 163.731 393.144C163.167 394.286 161.631 395.428 154.397 394.457C147.163 393.485 145.075 391.03 143.736 390.65C142.397 390.269 139.167 391.227 136.699 389.704C134.231 388.181 138.143 379.109 138.143 379.109C139.227 380.377 140.725 381.22 142.371 381.489C144.017 381.758 145.705 381.436 147.136 380.58Z" fill="white" stroke="#263238" stroke-linecap="round" stroke-linejoin="round"/>
<path d="M163.705 393.144C163.711 393.083 163.711 393.021 163.705 392.96C159.528 393.344 155.317 392.948 151.285 391.792C146.611 390.689 145.233 388.207 140.782 388.207C139.036 388.223 137.299 387.939 135.649 387.367C135.601 387.805 135.661 388.248 135.823 388.658C135.986 389.067 136.246 389.431 136.581 389.717C139.049 391.24 142.292 390.282 143.618 390.663C144.944 391.043 147.045 393.525 154.278 394.47C161.512 395.415 163.127 394.286 163.705 393.144Z" fill="white" stroke="#263238" stroke-linecap="round" stroke-linejoin="round"/>
<path d="M108.236 126.841C108.236 126.841 109.667 136.477 107.829 140.363C105.991 144.25 100.24 144.67 95.3301 145.497C90.42 146.324 79.1424 150.617 80.3634 161.684C81.5843 172.752 95.7371 196.725 95.7371 203.486C95.7371 210.248 91.4309 213.727 86.7177 226.842C82.0044 239.958 82.6215 264.351 84.0919 280.132C85.1697 290.547 87.2268 300.837 90.2362 310.866C90.2362 310.866 78.4203 329.929 73.1688 338.121C67.9173 346.314 49.5371 381.984 49.5371 381.984C49.5371 381.984 49.5371 383.205 52.3992 384.033C54.4128 384.522 56.496 384.66 58.5565 384.44C58.5565 384.44 93.794 342.021 100.358 334.852C106.923 327.684 113.067 315.159 113.881 309.435C114.695 303.711 113.684 268.657 113.684 268.657C113.684 268.657 121.049 286.276 126.813 295.296C130.308 300.815 133.516 306.512 136.423 312.363C135.616 319.781 135.616 327.264 136.423 334.682C137.854 344.922 136.646 377.823 138.077 380.488C139.508 383.153 145.062 382.037 146.296 380.816C147.53 379.595 148.108 371.626 148.108 371.626C148.108 371.626 150.563 346.681 152.046 334.944C153.53 323.207 155.985 313.216 155.131 310.551C154.278 307.886 149.184 279.397 145.285 265.913C141.386 252.43 129.53 227.184 126.905 220.632C124.279 214.081 122.795 208.121 123.216 206.073C123.636 204.025 131.618 191.736 133.718 188.454C134.916 186.229 135.577 183.755 135.647 181.229C135.718 178.703 135.197 176.196 134.126 173.907C131.67 168.577 134.125 161.396 133.718 157.103C133.312 152.809 126.957 150.945 123.675 149.317C120.393 147.689 119.159 143.987 119.159 140.915C119.359 138.327 119.985 135.79 121.01 133.405C121.01 133.405 110.901 126.841 108.236 126.841Z" fill="white" stroke="#263238" stroke-linecap="round" stroke-linejoin="round"/>
<path d="M133.076 170.677C131.996 167.934 131.097 165.123 130.384 162.262" stroke="#263238" stroke-linecap="round" stroke-linejoin="round"/>
<path d="M106.464 193.495C106.464 193.495 110.166 194.309 117.584 190.606" stroke="#263238" stroke-linecap="round" stroke-linejoin="round"/>
<path d="M145.324 265.781C141.609 252.863 130.594 229.27 127.299 221.485C111.544 227.393 96.8137 222.352 89.8948 219.096C88.897 221.275 87.8205 223.796 86.7177 226.842C82.0044 239.97 82.6215 264.35 84.0919 280.131C85.1697 290.546 87.2268 300.837 90.2362 310.866C90.2362 310.866 78.4203 329.928 73.1688 338.121C67.9173 346.313 49.5371 381.984 49.5371 381.984C49.5371 381.984 49.5371 383.205 52.3992 384.032C54.4128 384.522 56.496 384.659 58.5565 384.439C58.5565 384.439 93.794 342.02 100.358 334.852C106.923 327.683 113.067 315.159 113.881 309.434C114.695 303.71 113.684 268.657 113.684 268.657C113.684 268.657 121.049 286.275 126.813 295.295C130.308 300.814 133.516 306.511 136.423 312.362C135.616 319.78 135.616 327.263 136.423 334.681C137.854 344.921 136.646 377.822 138.077 380.487C139.508 383.152 145.062 382.036 146.296 380.815C147.53 379.594 148.108 371.625 148.108 371.625C148.108 371.625 150.563 346.681 152.046 334.944C153.53 323.207 155.985 313.216 155.131 310.55C154.278 307.885 149.224 279.304 145.324 265.781Z" fill="#263238" stroke="#263238" stroke-linecap="round" stroke-linejoin="round"/>
<path d="M225.594 252.771V250.093H227.839V229.061H225.594H203.432H201.187V250.093H203.432V252.771H201.174V257.655H209.826V256.014H219.2V257.655H227.852V252.771H225.594Z" fill="#92E3A9" stroke="#263238" stroke-linecap="round" stroke-linejoin="round"/>
<path d="M82.3594 222.772H236.963C237.583 222.772 238.177 223.018 238.616 223.456C239.054 223.895 239.3 224.489 239.3 225.109V229.809C239.3 230.429 239.054 231.023 238.616 231.461C238.177 231.9 237.583 232.146 236.963 232.146H82.3594V222.759V222.772Z" fill="#92E3A9" stroke="#263238" stroke-linecap="round" stroke-linejoin="round"/>
<path d="M193.323 221.367H183.91C183.192 221.367 182.61 221.949 182.61 222.667V232.264C182.61 232.982 183.192 233.564 183.91 233.564H193.323C194.041 233.564 194.623 232.982 194.623 232.264V222.667C194.623 221.949 194.041 221.367 193.323 221.367Z" fill="#92E3A9" stroke="#263238" stroke-linecap="round" stroke-linejoin="round"/>
<path d="M87.1962 231.413C89.3745 218.111 80.3569 205.562 67.0549 203.384C53.7528 201.205 41.2035 210.223 39.0252 223.525C36.8469 236.827 45.8645 249.376 59.1666 251.555C72.4686 253.733 85.0179 244.715 87.1962 231.413Z" fill="#92E3A9" stroke="#263238" stroke-linecap="round" stroke-linejoin="round"/>
<path d="M68.1278 227.407C69.5427 226.729 70.7435 225.675 71.5981 224.359C72.4528 223.043 72.9282 221.518 72.9723 219.95C72.9723 215.158 68.561 211.271 63.1126 211.271C57.6642 211.271 53.2529 215.21 53.2529 219.95C53.294 221.518 53.7683 223.045 54.6233 224.361C55.4783 225.678 56.6807 226.731 58.0974 227.407C56.6815 228.086 55.4802 229.143 54.6256 230.461C53.771 231.779 53.296 233.307 53.2529 234.877C53.2529 239.669 57.6642 243.555 63.1126 243.555C68.561 243.555 72.9723 239.616 72.9723 234.877C72.9263 233.308 72.4501 231.781 71.5958 230.464C70.7415 229.146 69.5419 228.089 68.1278 227.407Z" fill="white" stroke="#263238" stroke-linecap="round" stroke-linejoin="round"/>
<path d="M163.101 232.356C163.101 232.356 170.742 235.586 173.105 235.586C175.468 235.586 178.199 233.21 179.551 230.334C180.904 227.459 180.864 226.094 180.063 226.776L178.37 228.089C178.37 228.089 179.683 225.214 178.199 225.555C177.172 225.898 176.319 226.628 175.823 227.59C175.823 227.59 175.652 225.044 174.3 226.278C173.405 227.088 172.607 228 171.924 228.995C171.924 228.995 171.753 225.779 170.9 226.619C170.046 227.459 166.843 232.041 166.843 232.041L163.101 232.356Z" fill="white" stroke="#263238" stroke-linecap="round" stroke-linejoin="round"/>
<path d="M171.923 228.969C171.923 228.969 171.411 233.039 168.877 233.721L171.923 228.969Z" fill="white"/>
<path d="M171.923 228.969C171.923 228.969 171.411 233.039 168.877 233.721" stroke="#263238" stroke-linecap="round" stroke-linejoin="round"/>
<path d="M175.823 227.617C175.823 227.617 174.51 234.05 172.436 235.074L175.823 227.617Z" fill="white"/>
<path d="M175.823 227.617C175.823 227.617 174.51 234.05 172.436 235.074" stroke="#263238" stroke-linecap="round" stroke-linejoin="round"/>
<path d="M178.37 228.115C177.693 230.463 176.782 232.737 175.652 234.903L178.37 228.115Z" fill="white"/>
<path d="M178.37 228.115C177.693 230.463 176.782 232.737 175.652 234.903" stroke="#263238" stroke-linecap="round" stroke-linejoin="round"/>
<path d="M123.19 148.923C121.867 148.031 120.796 146.813 120.079 145.388C119.362 143.963 119.022 142.377 119.093 140.784C119.329 138.237 119.976 135.745 121.01 133.405C121.01 133.405 110.967 126.841 108.302 126.841C108.302 126.841 109.733 136.477 107.895 140.363C107.292 141.572 106.31 142.55 105.098 143.147C107.525 149.682 110.815 155.863 114.879 161.527C118.568 166.161 120.367 156.394 123.19 148.923Z" fill="white" stroke="#263238" stroke-linecap="round" stroke-linejoin="round"/>
<path d="M92.1923 146.822C89.687 147.25 87.3154 148.254 85.2648 149.756C83.2142 151.257 81.5407 153.215 80.3764 155.474C76.3328 163.273 58.6615 198.668 60.1713 200.781C68.7575 212.86 99.9907 221.551 103.168 224.728C106.344 228.05 109.83 231.062 113.579 233.721C116.756 235.743 123.097 234.877 124.253 234.299C125.408 233.721 126.274 231.122 124.253 231.122C123.48 231.132 122.728 230.877 122.121 230.399C121.514 229.921 121.089 229.249 120.918 228.496C120.629 227.341 124.095 229.651 125.828 228.785C127.561 227.918 121.955 224.754 120.222 223.31C118.489 221.866 117.045 219.857 114.734 219.857C112.424 219.857 108.078 219.857 108.078 219.857C108.078 219.857 97.4438 212.151 91.0107 206.414C86.005 201.897 80.545 197.911 74.7179 194.519L94.2141 162.445" fill="white"/>
<path d="M92.1923 146.822C89.687 147.25 87.3154 148.254 85.2648 149.756C83.2142 151.257 81.5407 153.215 80.3764 155.474C76.3328 163.273 58.6615 198.668 60.1713 200.781C68.7575 212.86 99.9907 221.551 103.168 224.728C106.344 228.05 109.83 231.062 113.579 233.721C116.756 235.743 123.097 234.877 124.253 234.299C125.408 233.721 126.274 231.122 124.253 231.122C123.48 231.132 122.728 230.877 122.121 230.399C121.514 229.921 121.089 229.249 120.918 228.496C120.629 227.341 124.095 229.651 125.828 228.785C127.561 227.918 121.955 224.754 120.222 223.31C118.489 221.866 117.045 219.857 114.734 219.857C112.424 219.857 108.078 219.857 108.078 219.857C108.078 219.857 97.4438 212.151 91.0107 206.414C86.005 201.897 80.545 197.911 74.7179 194.519L94.2141 162.445" stroke="#263238" stroke-linecap="round" stroke-linejoin="round"/>
<path d="M120.21 223.324C118.477 221.88 117.032 219.871 114.722 219.871C112.411 219.871 108.066 219.871 108.066 219.871C108.066 219.871 97.4313 212.165 90.9982 206.427C85.9925 201.911 80.5325 197.924 74.7054 194.533L82.5039 181.693C78.517 179.28 73.9564 177.978 69.2964 177.925C64.0449 188.874 59.3317 199.692 60.1063 200.834C68.6925 212.913 99.9257 221.604 103.103 224.781C106.279 228.103 109.765 231.115 113.514 233.774C116.691 235.796 123.032 234.93 124.188 234.352C125.343 233.774 126.209 231.175 124.188 231.175C123.415 231.185 122.663 230.93 122.056 230.452C121.449 229.974 121.024 229.302 120.853 228.549C120.564 227.394 124.03 229.705 125.763 228.838C127.496 227.972 121.943 224.781 120.21 223.324Z" fill="white" stroke="#263238" stroke-linecap="round" stroke-linejoin="round"/>
<path d="M130.778 112.701C129.754 110.653 129.754 109.012 130.161 106.137C130.568 103.261 128.113 96.29 128.113 96.29C125.605 100.623 118.358 103.196 115.155 104.167C111.623 105.244 116.783 107.686 116.231 110.955C115.68 114.224 108.63 116.114 108.63 116.114C108.63 116.114 106.569 111.874 103.707 111.874C100.845 111.874 98.8096 118.438 100.438 121.917C100.862 122.881 101.601 123.672 102.533 124.161C103.466 124.65 104.537 124.808 105.571 124.609C105.571 124.609 105.374 130.766 109.26 132.604C113.407 134.583 117.732 136.161 122.179 137.317C124.634 137.724 127.089 136.503 128.113 132.814C128.914 129.096 129.462 125.328 129.754 121.537C131.473 120.412 133.055 119.09 134.467 117.598C135.452 116.18 131.802 114.749 130.778 112.701Z" fill="white" stroke="#263238" stroke-linecap="round" stroke-linejoin="round"/>
<path d="M126.787 112.793C126.787 113.922 126.42 114.828 125.973 114.828C125.527 114.828 125.159 113.922 125.159 112.793C125.159 111.664 125.527 110.758 125.973 110.758C126.42 110.758 126.787 111.664 126.787 112.793Z" fill="#263238"/>
<path d="M123.255 109.405C123.255 109.405 125.435 106.95 127.063 107.502" stroke="#263238" stroke-linecap="round" stroke-linejoin="round"/>
<path d="M127.063 126.237C126.079 126.533 125.034 126.568 124.033 126.338C123.031 126.108 122.107 125.62 121.352 124.924" stroke="#263238" stroke-linecap="round" stroke-linejoin="round"/>
<path d="M49.6294 381.984C49.6294 381.984 44.7324 391.805 44.9162 393.144C45.1 394.483 54.8152 401.52 59.3578 403.988C63.9003 406.456 72.1189 406.85 71.5412 403.424C70.9636 399.997 63.1651 397.713 61.2614 392.566C60.2477 389.904 59.3713 387.191 58.6357 384.439C55.4622 384.487 52.34 383.636 49.6294 381.984Z" fill="white" stroke="#263238" stroke-linecap="round" stroke-linejoin="round"/>
<path d="M71.5678 403.476C68.0724 403.945 64.5154 403.441 61.288 402.019C54.2378 398.96 47.4109 392.711 45.5335 390.938C45.2001 391.647 44.9871 392.405 44.9033 393.183C45.1003 394.496 54.8024 401.56 59.3449 404.028C63.8875 406.496 72.0404 406.837 71.5678 403.476Z" fill="white" stroke="#263238" stroke-linecap="round" stroke-linejoin="round"/>
</svg>
