<svg width="540" height="403" viewBox="0 0 540 403" fill="none" xmlns="http://www.w3.org/2000/svg">
<path d="M540 353.592H0V353.862H540V353.592Z" fill="#EBEBEB"/>
<path d="M357.718 373.907H348.333V374.177H357.718V373.907Z" fill="#EBEBEB"/>
<path d="M255.96 305.424H47.4226C45.7889 305.421 44.2232 304.77 43.069 303.614C41.9148 302.458 41.2666 300.891 41.2666 299.257V6.1128C41.2808 4.48851 41.9353 2.93542 43.088 1.79088C44.2406 0.646335 45.7982 0.0027825 47.4226 0H255.96C257.595 0 259.164 0.649715 260.32 1.80621C261.477 2.96271 262.127 4.53126 262.127 6.1668V299.257C262.127 300.893 261.477 302.461 260.32 303.618C259.164 304.774 257.595 305.424 255.96 305.424ZM47.4226 0.216001C45.8605 0.218862 44.3634 0.84139 43.2599 1.94694C42.1564 3.0525 41.5366 4.55074 41.5366 6.1128V299.257C41.5366 300.819 42.1564 302.317 43.2599 303.423C44.3634 304.529 45.8605 305.151 47.4226 305.154H255.96C257.523 305.151 259.021 304.529 260.126 303.424C261.232 302.318 261.854 300.82 261.857 299.257V6.1128C261.854 4.54975 261.232 3.05153 260.126 1.94629C259.021 0.841039 257.523 0.218856 255.96 0.216001H47.4226Z" fill="#EBEBEB"/>
<path d="M489.575 305.424H281.027C279.392 305.421 277.825 304.771 276.669 303.615C275.513 302.459 274.863 300.892 274.86 299.257V6.1128C274.877 4.48752 275.534 2.93444 276.688 1.7902C277.843 0.645957 279.401 0.00275215 281.027 0H489.575C491.197 0.00562086 492.752 0.650429 493.902 1.79467C495.053 2.9389 495.706 4.49037 495.72 6.1128V299.257C495.72 300.889 495.073 302.454 493.921 303.61C492.769 304.766 491.206 305.418 489.575 305.424ZM281.027 0.216001C279.464 0.218856 277.965 0.841039 276.86 1.94629C275.755 3.05153 275.133 4.54975 275.13 6.1128V299.257C275.133 300.82 275.755 302.318 276.86 303.424C277.965 304.529 279.464 305.151 281.027 305.154H489.575C491.138 305.151 492.636 304.529 493.741 303.424C494.846 302.318 495.469 300.82 495.471 299.257V6.1128C495.469 4.54975 494.846 3.05153 493.741 1.94629C492.636 0.841039 491.138 0.218856 489.575 0.216001H281.027Z" fill="#EBEBEB"/>
<path d="M84.7367 363.874H56.6567V364.144H84.7367V363.874Z" fill="#EBEBEB"/>
<path d="M308.102 360.946H249.674V361.216H308.102V360.946Z" fill="#EBEBEB"/>
<path d="M159.721 373.907H85.8169V374.177H159.721V373.907Z" fill="#EBEBEB"/>
<path d="M495.472 366.271H434.268V366.541H495.472V366.271Z" fill="#EBEBEB"/>
<path d="M424.656 366.271H399.74V366.541H424.656V366.271Z" fill="#EBEBEB"/>
<path d="M337.813 367.535H278.888V367.805H337.813V367.535Z" fill="#EBEBEB"/>
<path d="M164.333 353.451H288.619L288.619 67.8884H164.333L164.333 353.451Z" fill="#F0F0F0"/>
<path d="M53.017 353.451L287.183 353.451L287.183 67.8884L53.017 67.8884L53.017 353.451Z" fill="#F5F5F5"/>
<path d="M280.865 346.983V74.3799H170.824V346.983H280.865Z" fill="#F0F0F0"/>
<path d="M172.498 346.972L172.498 74.3691H170.813L170.813 346.972H172.498Z" fill="#F0F0F0"/>
<path d="M185.511 204.39C188.559 204.39 191.03 201.919 191.03 198.871C191.03 195.823 188.559 193.353 185.511 193.353C182.464 193.353 179.993 195.823 179.993 198.871C179.993 201.919 182.464 204.39 185.511 204.39Z" fill="#E0E0E0"/>
<path d="M183.352 203.246C186.4 203.246 188.871 200.775 188.871 197.727C188.871 194.679 186.4 192.208 183.352 192.208C180.304 192.208 177.833 194.679 177.833 197.727C177.833 200.775 180.304 203.246 183.352 203.246Z" fill="white"/>
<path d="M169.387 346.972L169.387 74.3691H59.346L59.346 346.972H169.387Z" fill="#F0F0F0"/>
<path d="M159.009 204.39C162.056 204.39 164.527 201.919 164.527 198.871C164.527 195.823 162.056 193.353 159.009 193.353C155.961 193.353 153.49 195.823 153.49 198.871C153.49 201.919 155.961 204.39 159.009 204.39Z" fill="#E0E0E0"/>
<path d="M156.848 203.246C159.896 203.246 162.367 200.775 162.367 197.727C162.367 194.679 159.896 192.208 156.848 192.208C153.8 192.208 151.33 194.679 151.33 197.727C151.33 200.775 153.8 203.246 156.848 203.246Z" fill="white"/>
<path d="M300.197 208.44H354.078V67.8893H300.197V208.44Z" fill="#E6E6E6"/>
<path d="M297.885 208.44H351.777V67.8893H297.885V208.44Z" fill="#F5F5F5"/>
<path d="M347.652 202.262V74.0771H302.022V202.262H347.652Z" fill="white"/>
<path d="M303.761 202.262V74.0771H302.022V202.262H303.761Z" fill="#E6E6E6"/>
<path d="M299.603 173.438H350.071V165.132H299.603V173.438Z" fill="#F5F5F5"/>
<path d="M366.649 208.44H420.53V67.8893H366.649V208.44Z" fill="#E6E6E6"/>
<path d="M364.338 208.44H418.23V67.8893H364.338V208.44Z" fill="#F5F5F5"/>
<path d="M414.094 202.262V74.0771H368.464V202.262H414.094Z" fill="white"/>
<path d="M370.213 202.262V74.0771H368.475V202.262H370.213Z" fill="#E6E6E6"/>
<path d="M366.055 173.438H416.523V165.132H366.055V173.438Z" fill="#F5F5F5"/>
<path d="M433.102 208.44H486.983V67.8893H433.102V208.44Z" fill="#E6E6E6"/>
<path d="M430.79 208.44H484.682V67.8893H430.79V208.44Z" fill="#F5F5F5"/>
<path d="M480.546 202.262V74.0771H434.916V202.262H480.546Z" fill="white"/>
<path d="M436.655 202.262V74.0771H434.916V202.262H436.655Z" fill="#E6E6E6"/>
<path d="M432.497 173.438H482.965V165.132H432.497V173.438Z" fill="#F5F5F5"/>
<path d="M132.213 52.4993L133.736 53.2769H207.986V38.4053L132.213 52.4993Z" fill="#E0E0E0"/>
<path d="M205.113 52.4993H132.213L135.086 38.4053H207.986L205.113 52.4993Z" fill="#F5F5F5"/>
<path d="M414.029 262.624H357.718V353.592H414.029V262.624Z" fill="#F0F0F0"/>
<path d="M414.029 262.624L451.31 239.522V353.592H414.029V262.624Z" fill="#E0E0E0"/>
<path d="M357.718 262.624L394.999 239.522H451.311L414.029 262.624H357.718Z" fill="#EBEBEB"/>
<path d="M369.554 259.384L396.381 242.763H439.473L412.646 259.384H369.554Z" fill="#E0E0E0"/>
<path d="M396.381 259.384V242.763H439.473L412.646 259.384H396.381Z" fill="#E6E6E6"/>
<path d="M270 402.365C385.649 402.365 479.401 396.892 479.401 390.14C479.401 383.388 385.649 377.914 270 377.914C154.351 377.914 60.5986 383.388 60.5986 390.14C60.5986 396.892 154.351 402.365 270 402.365Z" fill="#F5F5F5"/>
<path d="M131.619 75.9455C129.459 79.1099 130.14 81.4103 131.965 87.6959C132.721 90.2987 133.887 92.8907 137.473 89.0567C141.059 85.2227 144.547 77.9327 139.946 76.7015C137.237 75.9617 134.418 75.7058 131.619 75.9455Z" fill="#263238"/>
<path d="M131.522 380.041H123.509L123.163 361.454H131.187L131.522 380.041Z" fill="#FFC3BD"/>
<path d="M179.701 380.041H171.677L168.102 361.454H176.126L179.701 380.041Z" fill="#FFC3BD"/>
<path d="M171.126 379.08H180.144C180.301 379.079 180.453 379.132 180.575 379.231C180.697 379.329 180.781 379.467 180.813 379.62L182.228 386.759C182.258 386.935 182.249 387.115 182.202 387.286C182.155 387.458 182.071 387.618 181.956 387.754C181.84 387.89 181.697 387.999 181.535 388.073C181.373 388.147 181.197 388.185 181.019 388.184C177.865 388.184 176.342 387.947 172.379 387.947C169.938 387.947 164.916 388.195 161.579 388.195C158.241 388.195 157.853 384.869 159.235 384.566C165.456 383.216 167.875 381.327 169.851 379.566C170.206 379.26 170.657 379.088 171.126 379.08Z" fill="#263238"/>
<path d="M123.584 379.08H132.343C132.5 379.079 132.652 379.132 132.774 379.231C132.896 379.329 132.98 379.467 133.013 379.62L134.417 386.759C134.45 386.933 134.445 387.113 134.4 387.285C134.356 387.457 134.274 387.617 134.16 387.753C134.047 387.89 133.904 387.999 133.743 388.074C133.582 388.148 133.406 388.186 133.229 388.184C130.075 388.184 125.507 387.947 121.532 387.947C116.888 387.947 112.892 388.195 107.427 388.195C104.187 388.195 103.302 384.869 104.684 384.566C110.991 383.195 116.121 383.044 121.629 379.706C122.211 379.321 122.887 379.104 123.584 379.08Z" fill="#263238"/>
<path d="M125.669 126.263L114.718 122.753C114.718 122.753 103.399 148.954 99.5977 150.585C94.4461 152.745 87.2425 159.797 82.1233 164.063C81.9613 165.413 82.5877 168.966 83.3977 169.895C92.6317 167.735 104.145 162.443 107.914 158.955C116.532 150.995 125.669 126.263 125.669 126.263Z" fill="#FFC3BD"/>
<path d="M128.228 120.236C131.306 127.256 118.94 149.547 118.94 149.547L102.578 141.987C104.589 135.191 107.307 128.625 110.689 122.396C115.83 113.4 124.848 112.525 128.228 120.236Z" fill="#92E3A9"/>
<path opacity="0.7" d="M128.228 120.236C131.306 127.256 118.94 149.547 118.94 149.547L102.578 141.987C104.589 135.191 107.307 128.625 110.689 122.396C115.83 113.4 124.848 112.525 128.228 120.236Z" fill="white"/>
<path opacity="0.2" d="M114.48 132.462C112.893 136.802 111.654 141.262 110.775 145.8L118.94 149.58C118.94 149.58 127.645 133.898 128.66 124.74C123.897 121.564 117.461 124.556 114.48 132.462Z" fill="black"/>
<path d="M83.2357 163.285L73.6885 164.808L76.1617 174.884C79.4998 173.457 82.5994 171.527 85.3525 169.16L83.2357 163.285Z" fill="#FFC3BD"/>
<path d="M65.4263 169.074L68.9039 174.625L76.1615 174.884L73.6883 164.808L65.4263 169.074Z" fill="#FFC3BD"/>
<path opacity="0.2" d="M123.163 361.465L123.336 371.044H131.36L131.187 361.465H123.163Z" fill="black"/>
<path opacity="0.2" d="M176.126 361.465H168.102L169.949 371.044H177.973L176.126 361.465Z" fill="black"/>
<path d="M117.72 115.679C117.72 115.679 107.654 143.251 115.56 188.373H158.468C158.922 181.785 155.574 146.307 162.691 115.268C157.962 114.351 153.178 113.745 148.37 113.454C142.295 113.103 136.204 113.103 130.129 113.454C125.942 113.877 121.793 114.621 117.72 115.679Z" fill="#92E3A9"/>
<path opacity="0.7" d="M117.72 115.679C117.72 115.679 107.654 143.251 115.56 188.373H158.468C158.922 181.785 155.574 146.307 162.691 115.268C157.962 114.351 153.178 113.745 148.37 113.454C142.295 113.103 136.204 113.103 130.129 113.454C125.942 113.877 121.793 114.621 117.72 115.679Z" fill="white"/>
<path opacity="0.2" d="M153.187 122.936C152.355 128.044 153.662 140.216 158.176 154.386C158.394 142.287 159.673 130.231 162 118.357V118.292C159.213 118.011 153.997 118.141 153.187 122.936Z" fill="black"/>
<path d="M146.415 96.3896C145.119 102.265 144.374 109.533 148.381 113.454C148.381 113.454 145.875 119.404 134.967 119.404C124.999 119.404 130.14 113.454 130.14 113.454C136.717 111.888 136.62 103.798 135.54 99.2408L146.415 96.3896Z" fill="#FFC3BD"/>
<path d="M134.449 118.94L132.095 121.553C132.011 121.643 131.952 121.753 131.925 121.873C131.899 121.993 131.905 122.117 131.944 122.234L132.7 124.534C132.742 124.663 132.822 124.775 132.93 124.856C133.039 124.938 133.169 124.983 133.304 124.988L135.842 125.117C135.963 125.124 136.084 125.098 136.192 125.043C136.3 124.988 136.392 124.906 136.458 124.804L137.981 122.569C138.074 122.45 138.125 122.304 138.125 122.153C138.125 122.002 138.074 121.855 137.981 121.737L135.518 118.929C135.454 118.849 135.372 118.784 135.279 118.74C135.186 118.696 135.084 118.674 134.981 118.675C134.878 118.676 134.777 118.7 134.685 118.746C134.593 118.792 134.512 118.858 134.449 118.94Z" fill="#263238"/>
<path d="M135 118.357C136.204 120.385 136.873 122.685 136.944 125.043C136.944 125.043 150.725 120.226 150.26 113.163C150.26 113.163 148.349 112.007 147.139 111.067C147.118 111.078 146.545 115.56 135 118.357Z" fill="white"/>
<path d="M135 118.357C133.699 120.263 132.745 122.384 132.181 124.621C132.181 124.621 126.09 120.431 128.12 113.454C129.268 113.002 130.448 112.641 131.652 112.374C131.652 112.374 130.68 116.845 135 118.357Z" fill="white"/>
<path d="M133.92 123.649C133.531 123.519 128.596 152.463 129.146 157.68C129.362 162.493 130.372 167.237 132.138 171.72C132.138 171.72 134.298 166.384 134.492 157.323C134.492 148.381 134.59 128.876 135.378 123.843L133.92 123.649Z" fill="#263238"/>
<path opacity="0.2" d="M135.54 99.2407C136.35 102.415 136.253 105.753 135.259 108.874C136.291 108.734 137.296 108.439 138.24 108C141.977 106.261 143.856 103.528 145.854 99.4567C146.027 98.3767 146.221 97.4047 146.448 96.4111L135.54 99.2407Z" fill="black"/>
<path d="M126.263 92.8799C126.571 93.8196 127.067 94.687 127.72 95.4296C128.374 96.1721 129.171 96.7744 130.064 97.1999C132.44 98.2799 134.103 96.2387 133.833 93.7439C133.596 91.4867 132.062 88.1927 129.513 88.1387C128.948 88.142 128.393 88.282 127.894 88.5468C127.395 88.8115 126.967 89.1931 126.648 89.659C126.328 90.1249 126.127 90.6612 126.059 91.2221C125.992 91.783 126.062 92.3518 126.263 92.8799Z" fill="#FFC3BD"/>
<path opacity="0.2" d="M126.263 92.8799C126.571 93.8196 127.067 94.687 127.72 95.4296C128.374 96.1721 129.171 96.7744 130.064 97.1999C132.44 98.2799 134.103 96.2387 133.833 93.7439C133.596 91.4867 132.062 88.1927 129.513 88.1387C128.948 88.142 128.393 88.282 127.894 88.5468C127.395 88.8115 126.967 89.1931 126.648 89.659C126.328 90.1249 126.127 90.6612 126.059 91.2221C125.992 91.783 126.062 92.3518 126.263 92.8799Z" fill="black"/>
<path d="M151.351 89.2401C149.029 96.9297 148.111 101.552 143.219 104.706C135.939 109.447 127.278 103.809 127.278 95.6229C127.278 88.2573 131.079 76.9173 139.352 75.4485C141.167 75.1138 143.038 75.258 144.78 75.8669C146.522 76.4758 148.076 77.5283 149.287 78.9206C150.498 80.3129 151.326 81.9969 151.688 83.8066C152.05 85.6162 151.934 87.489 151.351 89.2401Z" fill="#FFC3BD"/>
<path d="M146.88 79.6818C144.72 82.8462 145.411 85.1466 147.236 91.4322C147.992 94.035 149.158 96.627 152.733 92.793C156.308 88.959 159.818 81.669 155.206 80.4378C152.497 79.6981 149.678 79.4422 146.88 79.6818Z" fill="#263238"/>
<path d="M147.754 82.0798C142.786 81.475 130.474 80.4382 131.392 74.023C132.31 67.6078 140.659 69.541 140.659 69.541C140.659 69.541 136.522 71.701 145.206 73.375C153.889 75.049 158.284 80.1898 154.364 82.2526C153.364 82.8684 152.207 83.18 151.034 83.1493C149.86 83.1186 148.72 82.747 147.754 82.0798Z" fill="#263238"/>
<path d="M152.798 98.5932C151.37 100.037 149.429 100.856 147.398 100.872C144.752 100.872 144.158 98.334 145.562 96.1956C146.794 94.2624 149.656 91.9296 152.042 92.9556C154.429 93.9816 154.526 96.8112 152.798 98.5932Z" fill="#FFC3BD"/>
<path d="M126.565 95.634C126.338 99.6408 126.716 105.03 129.805 106.099C132.894 107.168 140.994 106.823 143.564 105.419C147.582 103.259 149.374 94.068 151.243 92.3292C153.111 90.5904 149.58 89.7588 149.58 89.7588C149.58 89.7588 147.204 95.634 143.326 95.904C139.449 96.174 126.846 90.5688 126.565 95.634Z" fill="#263238"/>
<path d="M143.77 188.373C143.77 188.373 142.916 198.46 141.836 212.133C140.594 227.631 139.072 247.773 138.164 263.077C138.164 263.163 138.164 263.228 138.164 263.293C137.992 266.198 137.84 268.93 137.711 271.425C136.501 296.427 133.996 369.187 133.996 369.187H120.388C120.388 369.187 113.551 294.937 113.26 269.492C112.99 245.019 115.56 188.373 115.56 188.373H143.77Z" fill="#92E3A9"/>
<path d="M135 365.04C135.054 365.04 134.881 369.479 134.881 369.479H119.221L118.681 364.489L135 365.04Z" fill="#263238"/>
<path opacity="0.2" d="M141.836 212.133C140.594 227.631 139.071 247.773 138.164 263.077C138.164 263.163 138.164 263.228 138.164 263.293C134.838 248.756 133.488 230.677 133.963 200.912L141.836 212.133Z" fill="black"/>
<path d="M130.788 188.373C130.788 188.373 138.348 246.347 142.83 269.373C147.69 294.526 166.255 369.241 166.255 369.241H180.954C180.954 369.241 169.355 296.557 166.838 271.652C164.117 244.652 158.479 188.427 158.479 188.427L130.788 188.373Z" fill="#92E3A9"/>
<path d="M181.04 365.353C181.105 365.353 181.677 369.457 181.677 369.457H165.477L164.16 364.748L181.04 365.353Z" fill="#263238"/>
<path opacity="0.3" d="M175.241 360.504C175.209 360.502 175.179 360.489 175.155 360.467C175.131 360.446 175.116 360.417 175.111 360.385C175.003 359.64 164.549 294.916 162.292 272.538C159.84 248.249 154.732 194.411 154.732 193.871C154.728 193.835 154.739 193.8 154.761 193.772C154.783 193.744 154.815 193.725 154.85 193.72C154.868 193.717 154.886 193.717 154.904 193.722C154.922 193.726 154.938 193.734 154.952 193.745C154.967 193.757 154.978 193.771 154.987 193.787C154.995 193.803 155 193.82 155.002 193.838C155.056 194.378 160.153 248.216 162.562 272.506C164.819 294.872 175.273 359.597 175.381 360.342C175.385 360.379 175.374 360.416 175.352 360.446C175.331 360.475 175.299 360.496 175.262 360.504H175.241Z" fill="white"/>
<path d="M139.147 88.873C138.996 89.5102 138.542 89.953 138.132 89.8666C137.721 89.7802 137.516 89.1862 137.667 88.5598C137.819 87.9334 138.272 87.4798 138.683 87.5662C139.093 87.6526 139.32 88.2466 139.147 88.873Z" fill="#263238"/>
<path d="M132.062 87.3391C131.911 87.9655 131.457 88.4191 131.047 88.3219C130.637 88.2247 130.421 87.6523 130.572 87.0151C130.723 86.3779 131.177 85.9351 131.587 86.0215C131.997 86.1079 132.203 86.7019 132.062 87.3391Z" fill="#263238"/>
<path d="M134.233 88.1387C133.015 89.921 131.562 91.5304 129.913 92.9231C130.27 93.3254 130.712 93.6435 131.207 93.8545C131.702 94.0655 132.237 94.1642 132.775 94.1435L134.233 88.1387Z" fill="#ED847E"/>
<path d="M134.222 98.4854C134.198 98.4804 134.175 98.4704 134.154 98.4561C134.134 98.4418 134.116 98.4235 134.103 98.4022C134.09 98.381 134.081 98.3573 134.078 98.3326C134.074 98.3079 134.075 98.2827 134.082 98.2586C134.088 98.2337 134.099 98.2103 134.115 98.1898C134.13 98.1693 134.149 98.152 134.171 98.1389C134.193 98.1259 134.218 98.1173 134.243 98.1138C134.269 98.1102 134.295 98.1117 134.319 98.1182C135.099 98.3235 135.916 98.3445 136.705 98.1795C137.494 98.0145 138.234 97.6682 138.866 97.1678C138.902 97.1328 138.951 97.1133 139.001 97.1133C139.052 97.1133 139.1 97.1328 139.136 97.1678C139.169 97.2052 139.187 97.2531 139.187 97.3028C139.187 97.3524 139.169 97.4004 139.136 97.4378C138.46 97.992 137.661 98.3762 136.806 98.5585C135.952 98.7408 135.065 98.7157 134.222 98.4854Z" fill="#FFC3BD"/>
<path d="M141.836 87.0264C141.779 87.0175 141.725 86.994 141.679 86.958C141.634 86.922 141.599 86.8749 141.577 86.8212C141.4 86.3813 141.119 85.9911 140.758 85.6844C140.397 85.3776 139.966 85.1636 139.503 85.0607C139.455 85.053 139.408 85.0355 139.367 85.0094C139.325 84.9833 139.289 84.9491 139.261 84.9088C139.233 84.8685 139.213 84.8229 139.202 84.7748C139.192 84.7267 139.192 84.6771 139.201 84.6288C139.217 84.5293 139.271 84.44 139.352 84.3795C139.432 84.3191 139.533 84.2923 139.633 84.3048C140.216 84.4207 140.761 84.6784 141.221 85.0551C141.68 85.4318 142.04 85.916 142.268 86.4648C142.308 86.558 142.311 86.6633 142.274 86.7582C142.238 86.853 142.166 86.9299 142.074 86.9724C142.003 87.0169 141.919 87.0359 141.836 87.0264Z" fill="#263238"/>
<path d="M129.47 84.0995C129.417 84.0828 129.369 84.0531 129.33 84.0131C129.26 83.9424 129.222 83.8474 129.222 83.7485C129.222 83.6495 129.26 83.5545 129.33 83.4839C129.725 83.0211 130.226 82.6592 130.789 82.4282C131.353 82.1972 131.963 82.1037 132.57 82.1555C132.619 82.162 132.667 82.1785 132.71 82.204C132.753 82.2296 132.79 82.2636 132.819 82.304C132.849 82.3445 132.869 82.3905 132.88 82.4392C132.891 82.4879 132.892 82.5384 132.883 82.5875C132.864 82.6878 132.808 82.7773 132.726 82.8375C132.644 82.8977 132.541 82.9242 132.44 82.9115C131.96 82.8774 131.479 82.9575 131.036 83.1452C130.593 83.3329 130.201 83.6229 129.891 83.9915C129.841 84.0507 129.773 84.0928 129.698 84.1121C129.622 84.1314 129.543 84.127 129.47 84.0995Z" fill="#263238"/>
<path d="M155.693 128.519L166.838 124.891C166.838 124.891 177.098 151.027 180.878 152.549C186.052 154.612 196.56 160.109 203.094 161.427C203.839 162.507 204.844 165.92 204.53 167.119C195.167 169.549 176.105 164.419 172.346 161.049C163.814 153.359 155.693 128.519 155.693 128.519Z" fill="#FFC3BD"/>
<path d="M162.702 115.268C170.262 116.348 178.319 142.678 178.319 142.678L162.119 151.686C162.119 151.686 155.401 139.168 152.172 129.88C148.813 120.15 154.591 114.08 162.702 115.268Z" fill="#92E3A9"/>
<path opacity="0.7" d="M162.702 115.268C170.262 116.348 178.319 142.678 178.319 142.678L162.119 151.686C162.119 151.686 155.401 139.168 152.172 129.88C148.813 120.15 154.591 114.08 162.702 115.268Z" fill="white"/>
<path d="M168.48 380.506C167.935 380.551 167.39 380.41 166.935 380.106C166.796 379.98 166.69 379.821 166.626 379.644C166.562 379.467 166.542 379.277 166.568 379.091C166.573 378.98 166.607 378.872 166.668 378.778C166.729 378.685 166.814 378.61 166.914 378.562C167.799 378.108 170.359 379.696 170.651 379.879C170.679 379.902 170.702 379.932 170.715 379.966C170.728 380 170.732 380.037 170.726 380.074C170.719 380.109 170.703 380.143 170.678 380.169C170.653 380.196 170.621 380.215 170.586 380.225C169.896 380.393 169.19 380.487 168.48 380.506ZM167.324 378.853C167.242 378.835 167.158 378.835 167.076 378.853C167.036 378.876 167.003 378.909 166.98 378.949C166.958 378.989 166.946 379.034 166.946 379.08C166.927 379.207 166.939 379.337 166.982 379.457C167.026 379.578 167.099 379.686 167.195 379.771C168.089 380.178 169.105 380.228 170.035 379.912C169.201 379.379 168.268 379.019 167.292 378.853H167.324Z" fill="#92E3A9"/>
<path d="M170.5 380.225C170.472 380.234 170.441 380.234 170.413 380.225C169.592 379.771 168.037 378.065 168.253 377.125C168.287 376.984 168.367 376.859 168.481 376.769C168.594 376.679 168.735 376.629 168.88 376.628C169.022 376.608 169.167 376.618 169.305 376.659C169.443 376.7 169.571 376.771 169.679 376.866C170.597 377.633 170.759 379.944 170.759 380.041C170.765 380.076 170.76 380.111 170.744 380.142C170.729 380.173 170.704 380.198 170.672 380.214C170.647 380.23 170.618 380.239 170.587 380.241C170.557 380.243 170.527 380.237 170.5 380.225ZM168.966 376.985H168.88C168.631 376.985 168.61 377.125 168.599 377.168C168.48 377.698 169.474 379.026 170.284 379.652C170.248 378.744 169.939 377.867 169.398 377.136C169.278 377.033 169.125 376.975 168.966 376.974V376.985Z" fill="#92E3A9"/>
<path d="M120.204 380.506C119.523 380.568 118.841 380.396 118.271 380.02C118.145 379.903 118.049 379.757 117.991 379.596C117.933 379.434 117.914 379.261 117.936 379.091C117.944 378.986 117.977 378.885 118.034 378.796C118.09 378.708 118.168 378.635 118.26 378.583C119.253 378.043 122.439 379.663 122.796 379.868C122.83 379.886 122.859 379.915 122.876 379.95C122.894 379.985 122.9 380.024 122.893 380.063C122.887 380.102 122.87 380.139 122.843 380.167C122.816 380.196 122.78 380.216 122.742 380.225C121.906 380.393 121.056 380.487 120.204 380.506ZM118.8 378.853C118.678 378.848 118.556 378.87 118.443 378.918C118.406 378.938 118.374 378.968 118.352 379.004C118.329 379.04 118.316 379.081 118.314 379.123C118.297 379.236 118.308 379.35 118.346 379.458C118.383 379.565 118.447 379.661 118.53 379.739C119.016 380.171 120.333 380.246 122.115 379.955C121.081 379.402 119.96 379.029 118.8 378.853Z" fill="#92E3A9"/>
<path d="M122.699 380.224H122.623C121.662 379.782 119.794 378.064 119.956 377.146C119.956 376.93 120.161 376.66 120.679 376.617C120.872 376.587 121.069 376.601 121.256 376.657C121.443 376.713 121.615 376.81 121.759 376.941C122.753 377.773 122.926 379.933 122.926 380.03C122.93 380.064 122.924 380.099 122.909 380.13C122.894 380.16 122.869 380.186 122.839 380.203C122.818 380.216 122.795 380.224 122.771 380.228C122.747 380.231 122.723 380.23 122.699 380.224ZM120.82 376.984H120.712C120.366 376.984 120.344 377.146 120.334 377.19C120.226 377.74 121.5 379.101 122.494 379.695C122.431 378.787 122.084 377.921 121.5 377.222C121.312 377.057 121.069 376.969 120.82 376.974V376.984Z" fill="#92E3A9"/>
<path d="M203.828 167.249L211.464 167.616L207.414 159.289C207.414 159.289 200.718 159.192 199.627 164.333L203.828 167.249Z" fill="#FFC3BD"/>
<path d="M217.652 163.587L213.602 156.232L207.414 159.289L211.464 167.616L217.652 163.587Z" fill="#FFC3BD"/>
<path d="M225.634 101.834C224.867 96.2392 209.92 91.9192 202.954 98.3128C193.558 106.899 195.059 133.812 195.059 148.392C208.969 144.969 230.116 145.79 233.809 147.809C234.598 141.102 234.414 103.475 225.634 101.834Z" fill="#263238"/>
<path d="M196.819 153.955C196.668 156.503 196.387 158.825 196.074 161.234C195.76 163.642 195.339 165.997 194.875 168.373C193.941 173.14 192.66 177.832 191.041 182.413C190.63 183.568 190.144 184.713 189.702 185.858C189.259 187.003 188.73 188.115 188.114 189.292C186.888 191.554 185.441 193.688 183.794 195.664C180.67 199.43 177.093 202.796 173.145 205.687L170.186 202.447C173.009 198.944 175.63 195.284 178.038 191.485C179.164 189.699 180.143 187.824 180.964 185.879C181.364 184.951 181.742 183.871 182.142 182.866C182.541 181.862 182.844 180.782 183.222 179.734C184.501 175.445 185.532 171.085 186.31 166.677C186.688 164.452 187.023 162.217 187.336 159.97C187.65 157.724 187.898 155.434 188.082 153.328L196.819 153.955Z" fill="#FFB573"/>
<path d="M191.365 143.49C188.33 144.267 186.624 164.344 186.624 164.344L194.691 169.204C194.691 169.204 199.573 154.365 198.828 147.961C198.288 143.306 193.654 142.906 191.365 143.49Z" fill="#FFB573"/>
<path d="M169.56 202.522L162.615 207.739L171.136 209.693C171.136 209.693 174.808 205.579 173.588 202.22L169.56 202.522Z" fill="#FFB573"/>
<path d="M160.769 214.715L167.994 215.968L171.169 209.693L162.648 207.738L160.769 214.715Z" fill="#FFB573"/>
<path d="M207.586 379.447H200.653L196.376 347.879H208.18L207.586 379.447Z" fill="#FFB573"/>
<path opacity="0.2" d="M207.867 364.23H198.59L196.376 347.879H208.18L207.867 364.23Z" fill="black"/>
<path d="M261.273 368.065L254.577 369.793L240.991 341.021L252.514 337.76L261.273 368.065Z" fill="#FFB573"/>
<path opacity="0.2" d="M257.148 353.776L247.989 355.839L240.991 341.021L252.514 337.76L257.148 353.776Z" fill="black"/>
<path d="M252.968 368.615L261.867 364.846C262.018 364.775 262.189 364.764 262.347 364.814C262.505 364.864 262.639 364.972 262.721 365.116L266.727 371.715C266.822 371.884 266.879 372.072 266.896 372.265C266.913 372.458 266.889 372.653 266.826 372.836C266.763 373.019 266.662 373.187 266.529 373.329C266.397 373.471 266.236 373.583 266.058 373.659C262.937 374.922 261.36 375.376 257.418 377.039C255.02 378.065 251.607 379.804 248.281 381.219C244.955 382.634 243.389 379.415 244.652 378.53C250.279 374.566 250.484 372.309 251.823 369.663C252.074 369.193 252.478 368.823 252.968 368.615Z" fill="#263238"/>
<path d="M199.735 378.454H209.39C209.558 378.453 209.72 378.512 209.848 378.621C209.975 378.73 210.058 378.882 210.081 379.048L211.161 386.684C211.181 386.877 211.16 387.073 211.099 387.258C211.039 387.442 210.94 387.613 210.81 387.757C210.68 387.901 210.521 388.017 210.343 388.096C210.166 388.176 209.973 388.217 209.779 388.217C206.409 388.153 204.789 387.958 200.545 387.958C197.931 387.958 192.521 388.228 188.913 388.228C185.306 388.228 185.112 384.664 186.613 384.34C193.352 382.893 196.009 380.895 198.277 378.94C198.69 378.61 199.207 378.438 199.735 378.454Z" fill="#263238"/>
<path d="M190.836 143.478C190.836 143.478 186.732 144.915 194.94 195.372H229.856C229.273 181.159 229.251 172.39 236.044 143.23C231.156 142.216 226.2 141.563 221.216 141.275C215.938 140.897 210.64 140.897 205.362 141.275C198.558 141.891 190.836 143.478 190.836 143.478Z" fill="#92E3A9"/>
<path d="M216.55 161.298C216.55 161.298 216.475 161.298 216.464 161.234C214.304 157.497 208.818 154.559 208.764 154.527C208.747 154.519 208.733 154.508 208.722 154.494C208.71 154.48 208.701 154.464 208.696 154.447C208.691 154.43 208.69 154.412 208.692 154.394C208.694 154.376 208.7 154.359 208.71 154.343C208.735 154.321 208.768 154.309 208.801 154.309C208.835 154.309 208.868 154.321 208.893 154.343C208.893 154.343 214.293 157.281 216.604 161.007C218.894 158.998 226.238 149.904 225.352 142.085C225.351 142.068 225.353 142.051 225.358 142.035C225.363 142.018 225.372 142.003 225.383 141.99C225.394 141.977 225.407 141.967 225.422 141.959C225.438 141.951 225.454 141.946 225.471 141.945C225.488 141.943 225.505 141.945 225.522 141.95C225.538 141.956 225.553 141.964 225.566 141.975C225.579 141.986 225.59 142 225.598 142.015C225.606 142.03 225.61 142.047 225.612 142.064C226.519 150.131 218.808 159.516 216.648 161.32C216.631 161.324 216.613 161.324 216.597 161.32C216.58 161.316 216.564 161.309 216.55 161.298Z" fill="white"/>
<path d="M198.439 159.84C198.411 159.851 198.38 159.851 198.353 159.84C197.547 158.924 197.125 157.733 197.175 156.514C196.884 152.28 198.623 145.271 201.377 142.247C201.403 142.222 201.438 142.208 201.474 142.208C201.51 142.208 201.545 142.222 201.571 142.247C201.583 142.259 201.593 142.273 201.599 142.289C201.606 142.305 201.609 142.322 201.609 142.339C201.609 142.356 201.606 142.373 201.599 142.389C201.593 142.404 201.583 142.419 201.571 142.431C198.86 145.422 197.154 152.323 197.435 156.471C197.405 157.56 197.748 158.627 198.407 159.495C200.199 157.065 205.211 154.095 205.427 153.997C205.442 153.982 205.461 153.971 205.481 153.965C205.502 153.958 205.524 153.956 205.545 153.96C205.567 153.963 205.587 153.971 205.605 153.983C205.622 153.996 205.637 154.012 205.647 154.031C205.658 154.05 205.664 154.071 205.664 154.093C205.665 154.114 205.661 154.136 205.652 154.156C205.643 154.175 205.63 154.193 205.614 154.207C205.597 154.22 205.577 154.23 205.556 154.235C205.502 154.235 200.156 157.367 198.536 159.775C198.513 159.808 198.478 159.832 198.439 159.84Z" fill="white"/>
<path d="M219.65 123.423C218.646 128.52 217.652 137.873 221.216 141.275C221.216 141.275 223.193 153.274 206.917 153.274C193.471 153.274 205.362 141.275 205.362 141.275C211.053 139.914 210.902 135.692 209.919 131.728L219.65 123.423Z" fill="#FFB573"/>
<path opacity="0.2" d="M215.676 126.814L209.919 131.761C210.163 132.681 210.326 133.62 210.405 134.569C212.565 134.256 215.568 131.869 215.805 129.601C215.941 128.672 215.897 127.726 215.676 126.814Z" fill="black"/>
<path d="M225.028 114.059C223.03 122.354 222.361 125.939 217.36 129.46C209.8 134.806 200.08 130.54 199.573 121.814C199.108 113.962 202.456 101.715 211.258 99.8248C213.197 99.4014 215.211 99.4804 217.111 100.054C219.01 100.628 220.731 101.678 222.111 103.104C223.49 104.53 224.482 106.285 224.993 108.203C225.504 110.12 225.516 112.136 225.028 114.059Z" fill="#FFB573"/>
<path d="M218.538 104.372C219.499 112.472 219.888 120.637 225.633 118.65C231.379 116.662 226.195 104.372 226.195 104.372H218.538Z" fill="#263238"/>
<path d="M199.886 107.007C208.129 104.434 217.007 104.789 225.018 108.011C223.938 104.059 223.279 100.873 218.408 99.3715C213.537 97.8703 202.327 99.6307 199.886 107.007Z" fill="#263238"/>
<path d="M194.94 195.372C194.94 195.372 188.157 261.598 188.719 287.82C189.302 315.09 195.491 358.992 195.491 358.992L209.531 358.549C209.531 358.549 209.088 316.688 210.114 289.904C211.194 260.744 220.514 195.372 220.514 195.372H194.94Z" fill="#263238"/>
<path d="M211.01 360.99H194.108L192.866 356.638L211.799 356.108L211.01 360.99Z" fill="#92E3A9"/>
<path opacity="0.2" d="M210.006 211.843C201.42 229.123 208.278 260.572 211.312 272.323C212.868 254.729 215.492 233.237 217.533 217.448C216.237 208.441 213.958 203.894 210.006 211.843Z" fill="black"/>
<path d="M204.12 195.372C204.12 195.372 212.025 264.222 217.998 286.33C225.093 312.574 244.22 351.637 244.22 351.637L257.277 347.879C257.277 347.879 246.153 301.936 240.732 288.112C229.154 258.606 239.068 214.672 229.813 195.372H204.12Z" fill="#263238"/>
<path d="M259.686 349.564L244.101 353.884L241.293 349.888L258.584 344.121L259.686 349.564Z" fill="#92E3A9"/>
<path d="M211.021 114.232C210.891 114.913 210.438 115.399 209.995 115.312C209.552 115.226 209.282 114.61 209.401 113.93C209.52 113.249 209.984 112.763 210.481 112.85C210.978 112.936 211.14 113.541 211.021 114.232Z" fill="#263238"/>
<path d="M203.299 112.86C203.18 113.541 202.716 114.038 202.219 113.94C201.722 113.843 201.506 113.249 201.625 112.569C201.744 111.888 202.208 111.392 202.651 111.489C203.094 111.586 203.418 112.18 203.299 112.86Z" fill="#263238"/>
<path d="M202.899 111.554L201.344 110.787C201.344 110.787 201.96 112.223 202.899 111.554Z" fill="#263238"/>
<path d="M205.491 114.318C204.594 115.769 203.505 117.092 202.251 118.25C202.557 118.559 202.925 118.798 203.331 118.951C203.738 119.104 204.173 119.167 204.606 119.135L205.491 114.318Z" fill="#ED893E"/>
<path d="M208.245 122.354C207.854 122.353 207.464 122.317 207.079 122.246C207.052 122.242 207.026 122.233 207.003 122.218C206.98 122.204 206.961 122.185 206.945 122.163C206.93 122.14 206.92 122.115 206.915 122.089C206.91 122.062 206.911 122.035 206.917 122.008C206.927 121.955 206.958 121.909 207.003 121.879C207.047 121.848 207.102 121.837 207.155 121.846C208 122.012 208.873 121.979 209.704 121.748C210.534 121.517 211.3 121.096 211.939 120.518C211.956 120.493 211.978 120.473 212.003 120.457C212.029 120.442 212.058 120.433 212.087 120.43C212.117 120.427 212.147 120.43 212.175 120.44C212.203 120.45 212.229 120.465 212.25 120.486C212.272 120.507 212.289 120.532 212.299 120.56C212.31 120.587 212.315 120.617 212.313 120.647C212.311 120.677 212.303 120.706 212.288 120.732C212.274 120.758 212.254 120.781 212.231 120.799C211.154 121.815 209.725 122.372 208.245 122.354Z" fill="#263238"/>
<path d="M225.385 120.312C224.747 121.836 223.532 123.044 222.004 123.671C219.974 124.492 218.764 122.732 219.088 120.69C219.412 118.854 220.86 116.219 222.998 116.273C223.464 116.293 223.917 116.429 224.317 116.668C224.717 116.908 225.051 117.244 225.288 117.645C225.525 118.046 225.658 118.501 225.675 118.966C225.692 119.432 225.592 119.895 225.385 120.312Z" fill="#FFB573"/>
<path d="M214.013 109.664C213.956 109.664 213.9 109.652 213.848 109.63C213.796 109.608 213.749 109.575 213.71 109.534C213.371 109.15 212.945 108.852 212.469 108.664C211.992 108.477 211.477 108.405 210.967 108.454C210.86 108.47 210.751 108.444 210.662 108.382C210.574 108.32 210.513 108.226 210.492 108.12C210.483 108.067 210.484 108.013 210.496 107.961C210.508 107.909 210.53 107.86 210.561 107.817C210.592 107.773 210.632 107.737 210.678 107.709C210.723 107.681 210.774 107.663 210.827 107.655C211.468 107.575 212.119 107.651 212.725 107.876C213.33 108.102 213.872 108.471 214.304 108.951C214.379 109.028 214.421 109.13 214.421 109.237C214.421 109.344 214.379 109.447 214.304 109.524C214.229 109.606 214.124 109.657 214.013 109.664Z" fill="#263238"/>
<path d="M201.377 108.616C201.324 108.616 201.272 108.606 201.224 108.586C201.176 108.565 201.132 108.535 201.096 108.498C201.021 108.421 200.979 108.318 200.979 108.211C200.979 108.104 201.021 108.002 201.096 107.925C201.53 107.445 202.074 107.077 202.682 106.853C203.289 106.63 203.942 106.556 204.584 106.64C204.638 106.648 204.689 106.666 204.735 106.695C204.781 106.723 204.821 106.761 204.851 106.806C204.882 106.851 204.903 106.901 204.912 106.955C204.922 107.008 204.921 107.062 204.908 107.115C204.899 107.168 204.88 107.219 204.851 107.264C204.822 107.309 204.784 107.348 204.739 107.378C204.695 107.408 204.645 107.429 204.592 107.44C204.54 107.45 204.486 107.45 204.433 107.439C203.923 107.389 203.408 107.461 202.931 107.649C202.455 107.837 202.029 108.135 201.69 108.519C201.647 108.557 201.598 108.585 201.544 108.601C201.49 108.618 201.433 108.623 201.377 108.616Z" fill="#263238"/>
<path d="M239.825 152.421C241.813 157.259 243.511 162.21 244.912 167.249C246.43 172.352 247.478 177.583 248.044 182.877C248.13 183.546 248.162 184.248 248.184 184.94V186.02V186.279C248.184 186.387 248.184 186.398 248.184 186.614C248.185 186.939 248.163 187.264 248.119 187.586C247.827 189.446 247.086 191.207 245.959 192.716C244.295 194.991 242.366 197.061 240.214 198.882C236.229 202.307 231.934 205.351 227.383 207.976L224.856 204.434C228.517 201.075 232.222 197.63 235.44 194.033C236.989 192.373 238.371 190.564 239.566 188.633C239.933 188.073 240.172 187.439 240.268 186.776V186.408L240.17 185.555C240.116 184.983 240.062 184.421 239.954 183.838C239.146 179.054 237.998 174.333 236.52 169.712C235.051 165.035 233.388 160.273 231.649 155.747L239.825 152.421Z" fill="#FFB573"/>
<path d="M236.012 143.23C239.436 144.624 243.723 163.372 243.723 163.372L236.444 169.345C236.444 169.345 229.586 155.37 229.284 148.922C229.046 144.084 232.988 141.988 236.012 143.23Z" fill="#FFB573"/>
<path d="M249.048 371.326C248.891 371.246 248.754 371.132 248.647 370.991C248.541 370.851 248.467 370.688 248.432 370.516C248.394 370.399 248.388 370.274 248.414 370.155C248.441 370.035 248.499 369.924 248.583 369.835C249.329 369.025 252.385 369.554 252.741 369.619C252.78 369.626 252.816 369.644 252.845 369.671C252.873 369.698 252.894 369.732 252.903 369.77C252.909 369.809 252.904 369.849 252.889 369.885C252.874 369.921 252.849 369.952 252.817 369.976C251.899 370.656 250.204 371.736 249.167 371.38L249.048 371.326ZM252.18 369.932C250.949 369.76 249.275 369.684 248.886 370.105C248.857 370.15 248.842 370.203 248.842 370.256C248.842 370.31 248.857 370.362 248.886 370.408C248.905 370.539 248.96 370.662 249.043 370.765C249.127 370.867 249.237 370.945 249.361 370.991C249.858 371.185 250.916 370.796 252.18 369.932Z" fill="#92E3A9"/>
<path d="M251.316 369.555C250.419 369.123 249.501 368.475 249.372 367.849C249.341 367.69 249.364 367.526 249.439 367.383C249.513 367.239 249.634 367.126 249.782 367.06C249.916 366.982 250.066 366.934 250.221 366.919C250.376 366.904 250.532 366.923 250.678 366.974C251.866 367.363 252.838 369.641 252.838 369.739C252.855 369.768 252.863 369.802 252.863 369.836C252.863 369.87 252.855 369.903 252.838 369.933C252.82 369.964 252.792 369.988 252.76 370.004C252.727 370.019 252.691 370.025 252.655 370.019C252.188 369.931 251.737 369.775 251.316 369.555ZM250.678 367.395L250.549 367.341C250.457 367.309 250.359 367.298 250.262 367.307C250.165 367.316 250.072 367.346 249.987 367.395C249.76 367.525 249.75 367.654 249.771 367.751C249.901 368.345 251.337 369.242 252.342 369.523C251.982 368.684 251.408 367.954 250.678 367.406V367.395Z" fill="#92E3A9"/>
<path d="M196.56 379.956C195.825 380.022 195.09 379.835 194.475 379.426C194.336 379.307 194.229 379.155 194.165 378.983C194.1 378.811 194.081 378.625 194.108 378.444C194.114 378.33 194.149 378.22 194.21 378.123C194.27 378.027 194.354 377.948 194.454 377.893C195.534 377.32 198.936 379.07 199.314 379.275C199.354 379.29 199.387 379.319 199.407 379.357C199.427 379.395 199.432 379.439 199.422 379.48C199.416 379.522 199.397 379.562 199.368 379.593C199.339 379.623 199.301 379.645 199.26 379.653C198.371 379.836 197.467 379.937 196.56 379.956ZM195.026 378.184C194.897 378.178 194.768 378.2 194.648 378.249C194.607 378.272 194.573 378.304 194.548 378.344C194.523 378.384 194.51 378.429 194.508 378.476C194.491 378.595 194.504 378.717 194.546 378.83C194.587 378.943 194.656 379.044 194.745 379.124C195.264 379.599 196.679 379.675 198.59 379.362C197.46 378.766 196.237 378.367 194.972 378.184H195.026Z" fill="#92E3A9"/>
<path d="M199.173 379.653H199.087C198.007 379.188 196.03 377.331 196.192 376.413C196.192 376.175 196.398 375.894 196.959 375.84C197.153 375.824 197.349 375.846 197.534 375.905C197.719 375.964 197.891 376.06 198.039 376.186C199.119 377.082 199.324 379.426 199.335 379.502C199.338 379.53 199.335 379.558 199.326 379.585C199.317 379.612 199.303 379.637 199.283 379.658C199.264 379.678 199.24 379.694 199.213 379.705C199.187 379.715 199.158 379.719 199.13 379.718L199.173 379.653ZM197.121 376.175H197.002C196.624 376.175 196.603 376.359 196.592 376.413C196.506 376.996 197.877 378.454 198.925 379.091C198.846 378.116 198.469 377.188 197.845 376.434C197.644 376.262 197.386 376.17 197.121 376.175Z" fill="#92E3A9"/>
<path d="M230.385 193.32L231.271 196.442C231.401 196.69 231.109 196.938 230.709 196.938H194.767C194.454 196.938 194.195 196.776 194.173 196.582L193.86 193.461C193.86 193.245 194.108 193.061 194.454 193.061H229.813C229.923 193.051 230.033 193.07 230.133 193.115C230.234 193.161 230.321 193.231 230.385 193.32Z" fill="#92E3A9"/>
<path opacity="0.8" d="M230.385 193.32L231.271 196.442C231.401 196.69 231.109 196.938 230.709 196.938H194.767C194.454 196.938 194.195 196.776 194.173 196.582L193.86 193.461C193.86 193.245 194.108 193.061 194.454 193.061H229.813C229.923 193.051 230.033 193.07 230.133 193.115C230.234 193.161 230.321 193.231 230.385 193.32Z" fill="#263238"/>
<path d="M225.633 197.273H226.584C226.767 197.273 226.908 197.176 226.897 197.057L226.454 192.996C226.454 192.877 226.281 192.78 226.087 192.78H225.137C224.953 192.78 224.813 192.877 224.823 192.996L225.266 197.057C225.277 197.176 225.439 197.273 225.633 197.273Z" fill="#92E3A9"/>
<path d="M197.424 197.273H198.374C198.569 197.273 198.709 197.176 198.698 197.057L198.255 192.996C198.255 192.877 198.072 192.78 197.888 192.78H196.938C196.743 192.78 196.603 192.877 196.614 192.996L197.057 197.057C197.078 197.176 197.24 197.273 197.424 197.273Z" fill="#92E3A9"/>
<path d="M211.528 197.273H212.479C212.662 197.273 212.814 197.176 212.792 197.057L212.349 192.996C212.349 192.877 212.176 192.78 211.982 192.78H211.042C210.848 192.78 210.708 192.877 210.718 192.996L211.161 197.057C211.172 197.176 211.345 197.273 211.528 197.273Z" fill="#92E3A9"/>
<path d="M225.882 203.656L216.626 204.455L222.814 210.633C222.814 210.633 228.117 209.089 228.852 205.6L225.882 203.656Z" fill="#FFB573"/>
<path d="M211.334 209.38L216.788 214.272L224.121 210.147L216.626 204.455L211.334 209.38Z" fill="#FFB573"/>
<path d="M210.6 112.925L209.044 112.158C209.044 112.158 209.682 113.584 210.6 112.925Z" fill="#263238"/>
<path d="M333.364 114.048C333.364 114.75 333.688 115.354 334.152 115.398C334.617 115.441 335.016 114.912 335.038 114.21C335.059 113.508 334.714 112.903 334.249 112.86C333.785 112.816 333.385 113.4 333.364 114.048Z" fill="#263238"/>
<path d="M334.044 112.871L335.761 112.558C335.761 112.558 334.8 113.789 334.044 112.871Z" fill="#263238"/>
<path d="M333.936 114.782C334.507 116.457 335.298 118.048 336.291 119.513C335.908 119.734 335.481 119.869 335.041 119.908C334.601 119.947 334.157 119.89 333.742 119.739L333.936 114.782Z" fill="#A02724"/>
<path d="M334.498 109.457C334.43 109.473 334.36 109.473 334.292 109.457C333.81 109.236 333.283 109.129 332.753 109.146C332.222 109.163 331.703 109.303 331.236 109.555C331.143 109.612 331.03 109.63 330.924 109.606C330.817 109.582 330.723 109.517 330.664 109.425C330.632 109.381 330.609 109.331 330.597 109.277C330.585 109.224 330.584 109.169 330.594 109.115C330.604 109.062 330.625 109.011 330.656 108.966C330.686 108.92 330.726 108.882 330.772 108.853C331.352 108.528 332 108.344 332.664 108.316C333.328 108.288 333.989 108.416 334.595 108.691C334.696 108.734 334.776 108.813 334.82 108.914C334.864 109.014 334.869 109.127 334.832 109.231C334.802 109.295 334.755 109.35 334.696 109.389C334.637 109.429 334.569 109.453 334.498 109.457Z" fill="#263238"/>
<path d="M309.668 109.781C309.873 118.421 309.776 122.126 313.988 126.986C320.36 134.287 331.052 132.796 333.428 124.394C335.588 116.834 334.908 103.874 326.495 99.6401C318.081 95.4065 309.463 101.109 309.668 109.781Z" fill="#B55B52"/>
<path d="M297.14 152.603C295.736 156.491 294.354 160.649 293.079 164.721C291.805 168.792 290.639 172.939 289.613 177.076L289.289 178.426C289.248 178.506 289.23 178.595 289.235 178.685C289.217 178.81 289.217 178.938 289.235 179.063C289.262 179.796 289.386 180.522 289.602 181.223C290.185 183.056 290.945 184.828 291.87 186.515C293.908 190.214 296.166 193.788 298.631 197.218L295.142 200.555C291.581 197.589 288.377 194.218 285.595 190.511C284.086 188.506 282.817 186.332 281.815 184.031C281.23 182.68 280.83 181.256 280.627 179.797C280.564 179.376 280.535 178.95 280.541 178.523C280.52 178.061 280.542 177.599 280.605 177.141C280.659 176.579 280.713 176.385 280.757 176.061L280.886 175.218C281.618 170.765 282.581 166.353 283.77 161.999C284.969 157.602 286.411 153.276 288.09 149.039L297.14 152.603Z" fill="#B55B52"/>
<path d="M291.459 139.946C286.059 142.603 282.971 157.474 282.971 157.474L296.762 164.246C296.762 164.246 305.154 153.23 302.605 144.612C301.32 140.313 296.762 137.332 291.459 139.946Z" fill="#263238"/>
<path d="M297.831 195.977L303.329 203.979L296.319 203.742C296.319 203.742 292.809 200.232 294.872 197.262L297.831 195.977Z" fill="#B55B52"/>
<path d="M302.497 207.413L298.22 209.724L296.319 203.741L303.329 203.979L302.497 207.413Z" fill="#B55B52"/>
<path d="M310.759 120.798C312.034 125.993 311.612 134.838 308.113 138.218C308.113 138.218 311.947 143.37 321.667 143.489C332.37 143.618 326.527 138.294 326.527 138.294C320.63 136.847 320.566 132.57 321.397 128.574L310.759 120.798Z" fill="#B55B52"/>
<path d="M305.716 98.5387C300.607 98.7979 296.87 100.947 301.093 113.724C304.333 123.444 293.166 137.484 303.739 133.714C307.425 135.042 311.392 135.389 315.252 134.719C315.252 134.719 336.668 141.814 333.32 127.278C329.972 112.741 336.15 102.319 331.571 96.4435C326.992 90.5683 306.914 91.0867 305.716 98.5387Z" fill="#263238"/>
<path d="M305.013 139.816C304.482 139.793 303.962 139.652 303.491 139.404C303.021 139.156 302.611 138.806 302.292 138.38C301.352 137.062 302.292 136.436 303.091 135.14C304.106 133.455 301.212 131.209 304.452 130.15C307.692 129.092 321.386 134.892 326.235 133.39C329.637 132.31 330.285 135.108 329.551 136.998C328.352 140.108 331.711 143.294 328.86 143.985C326.408 144.558 309.96 140.162 305.013 139.816Z" fill="#92E3A9"/>
<path d="M325.004 378.864L333.785 379.501L335.74 359.38L326.959 358.732L325.004 378.864Z" fill="#B55B52"/>
<path d="M279.31 367.707L287.69 370.947L296.838 353.224L288.457 349.984L279.31 367.707Z" fill="#B55B52"/>
<path d="M289.57 368.885L281.102 363.29C280.964 363.19 280.794 363.145 280.625 363.163C280.455 363.181 280.299 363.261 280.184 363.387L275.13 369.122C275.01 369.281 274.925 369.462 274.879 369.656C274.834 369.849 274.829 370.05 274.866 370.245C274.902 370.44 274.979 370.626 275.092 370.789C275.204 370.953 275.35 371.092 275.519 371.196C278.51 373.097 280.033 373.863 283.759 376.326C286.049 377.838 289.256 380.279 292.399 382.363C295.542 384.447 297.637 381.585 296.492 380.451C291.362 375.343 291.492 373.064 290.531 370.159C290.357 369.641 290.02 369.194 289.57 368.885Z" fill="#263238"/>
<path d="M334.292 378.259H324.443C324.273 378.255 324.108 378.313 323.979 378.422C323.849 378.532 323.765 378.685 323.741 378.853L322.661 386.651C322.641 386.848 322.663 387.048 322.725 387.237C322.787 387.426 322.888 387.599 323.022 387.747C323.155 387.894 323.317 388.012 323.499 388.093C323.68 388.174 323.877 388.216 324.076 388.217C327.51 388.152 329.162 387.957 333.504 387.957C336.161 387.957 341.68 388.227 345.384 388.227C349.088 388.227 349.24 384.588 347.706 384.264C340.816 382.784 338.105 380.743 335.772 378.799C335.359 378.448 334.834 378.256 334.292 378.259Z" fill="#263238"/>
<path opacity="0.2" d="M335.739 359.38L334.659 370.569L325.944 369.122L326.948 358.732L335.739 359.38Z" fill="black"/>
<path opacity="0.2" d="M288.457 349.995L296.838 353.235L293.047 360.558L284.547 357.544L288.457 349.995Z" fill="black"/>
<path d="M301.601 192.434L337.424 192.866C343.397 141.771 339.174 140.918 339.174 140.918C336.359 140.006 333.492 139.263 330.588 138.693L330.091 138.607C327.715 138.207 327.229 138.164 324.097 137.84C318.773 137.559 313.848 137.44 307.832 137.656H306.677C305.597 137.721 304.517 137.797 303.491 137.883C302.789 137.883 302.098 138.013 301.439 138.088L299.192 138.369C295.391 138.877 292.712 139.449 292.712 139.449C301.104 169.138 301.504 178.026 301.601 192.434Z" fill="#263238"/>
<path opacity="0.2" d="M335.351 156.837C335.453 162.08 336.911 167.207 339.584 171.719C340.427 161.783 340.664 155.055 340.61 150.486C337.91 150.659 335.275 152.031 335.351 156.837Z" fill="black"/>
<path d="M327.974 192.747C327.974 192.747 320.241 246.876 316.407 280.594C312.357 316.18 295.995 359.002 295.995 359.002L283.889 354.833C283.889 354.833 291.891 315.24 294.537 281.814C299.937 213.958 290.887 208.115 301.601 192.444L327.974 192.747Z" fill="#92E3A9"/>
<path opacity="0.5" d="M327.974 192.747C327.974 192.747 320.241 246.876 316.407 280.594C312.357 316.18 295.995 359.002 295.995 359.002L283.889 354.833C283.889 354.833 291.891 315.24 294.537 281.814C299.937 213.958 290.887 208.115 301.601 192.444L327.974 192.747Z" fill="black"/>
<path opacity="0.2" d="M319.572 209.519C314.399 220.945 316.732 239.457 319.929 251.833C321.894 236.713 323.989 221.302 325.544 210.059C323.611 206.344 321.538 205.199 319.572 209.519Z" fill="black"/>
<path d="M297.281 359.844L282.171 354.628L283.316 350.254L300.812 354.833L297.281 359.844Z" fill="#263238"/>
<path d="M293.35 372.319C293.253 372.363 293.151 372.395 293.047 372.416C291.967 372.578 290.369 371.142 289.526 370.256C289.495 370.228 289.474 370.192 289.464 370.151C289.454 370.111 289.457 370.068 289.472 370.029C289.486 369.99 289.513 369.955 289.548 369.932C289.583 369.909 289.625 369.897 289.667 369.9C290.034 369.9 293.242 370.019 293.857 370.98C293.919 371.086 293.951 371.208 293.951 371.331C293.951 371.454 293.919 371.575 293.857 371.682C293.761 371.943 293.583 372.167 293.35 372.319ZM290.185 370.364C291.352 371.444 292.345 372.092 292.972 372.006C293.096 371.982 293.211 371.925 293.306 371.841C293.401 371.758 293.472 371.651 293.512 371.531C293.539 371.483 293.554 371.429 293.554 371.374C293.554 371.319 293.539 371.265 293.512 371.217C293.188 370.71 291.47 370.44 290.185 370.364Z" fill="#92E3A9"/>
<path d="M336.96 192.952C336.96 192.952 349.985 257.752 348.656 284.255C347.263 311.828 336.625 367.804 336.625 367.804L323.935 366.173C323.935 366.173 326.959 311.655 326.667 284.428C326.365 254.75 310.716 192.628 310.716 192.628L336.96 192.952Z" fill="#92E3A9"/>
<path opacity="0.5" d="M336.96 192.952C336.96 192.952 349.985 257.752 348.656 284.255C347.263 311.828 336.625 367.804 336.625 367.804L323.935 366.173C323.935 366.173 326.959 311.655 326.667 284.428C326.365 254.75 310.716 192.628 310.716 192.628L336.96 192.952Z" fill="black"/>
<path d="M343.073 143.975C346.174 148.766 348.997 153.731 351.529 158.846C352.814 161.406 354.035 164.009 355.115 166.719C356.271 169.467 357.22 172.297 357.955 175.187L358.236 176.267V176.407V176.623L358.322 177.055C358.322 177.347 358.398 177.627 358.43 177.908C358.508 178.951 358.458 179.999 358.279 181.029C357.963 182.762 357.415 184.444 356.648 186.03C355.3 188.782 353.644 191.373 351.713 193.752C348.081 198.242 343.975 202.327 339.465 205.934L336.128 202.446C339.58 198.336 342.762 194.007 345.654 189.486C348.332 185.166 350.816 180.057 349.326 177.606C348.51 175.168 347.551 172.781 346.453 170.456C345.373 168.059 344.142 165.661 342.867 163.285C341.593 160.909 340.265 158.565 338.915 156.222C337.565 153.878 336.139 151.513 334.789 149.277L343.073 143.975Z" fill="#B55B52"/>
<path d="M339.034 202.144L344.228 207.479L338.774 210.892C338.774 210.892 333.169 206.366 336.236 202.37L339.034 202.144Z" fill="#B55B52"/>
<path d="M343.969 211.658L339.509 216.27L338.774 210.891L344.228 207.489L343.969 211.658Z" fill="#B55B52"/>
<path d="M338.85 140.81C345.395 143.532 350.838 151.243 352.836 155.866L341.852 169.214C341.852 169.214 331.873 154.094 331.873 149.245C331.884 144.169 336.377 139.784 338.85 140.81Z" fill="#263238"/>
<path d="M338.558 368.528L321.203 366.195L321.289 361.918L340.189 362.771L338.558 368.528Z" fill="#263238"/>
<path d="M292.335 369.727C291.499 370.13 290.584 370.34 289.656 370.342C289.62 370.338 289.585 370.325 289.555 370.304C289.525 370.284 289.501 370.256 289.483 370.224C289.464 370.193 289.454 370.157 289.454 370.121C289.454 370.085 289.464 370.049 289.483 370.018C289.537 369.932 290.866 367.858 292.119 367.718C292.282 367.694 292.449 367.706 292.607 367.753C292.766 367.799 292.912 367.88 293.037 367.988C293.175 368.081 293.278 368.218 293.331 368.376C293.384 368.534 293.383 368.705 293.328 368.863C293.108 369.258 292.756 369.563 292.335 369.727ZM290.067 369.921C291.147 369.856 292.734 369.262 292.95 368.701C292.95 368.614 293.004 368.485 292.788 368.301C292.706 368.233 292.611 368.183 292.509 368.153C292.407 368.124 292.3 368.115 292.194 368.128C291.449 368.28 290.52 369.273 290.067 369.921Z" fill="#92E3A9"/>
<path d="M337.597 379.792C336.668 379.775 335.742 379.67 334.832 379.479C334.791 379.471 334.753 379.45 334.724 379.419C334.695 379.388 334.676 379.348 334.67 379.306C334.66 379.265 334.665 379.221 334.682 379.182C334.7 379.143 334.73 379.111 334.767 379.09C335.167 378.885 338.666 377.092 339.735 377.686C339.835 377.745 339.92 377.826 339.982 377.924C340.044 378.022 340.082 378.133 340.092 378.248C340.122 378.434 340.103 378.624 340.036 378.801C339.97 378.977 339.859 379.133 339.714 379.252C339.092 379.672 338.344 379.863 337.597 379.792ZM335.523 379.188C337.467 379.501 338.904 379.414 339.433 378.939C339.528 378.858 339.6 378.754 339.641 378.636C339.683 378.519 339.693 378.392 339.671 378.27C339.671 378.225 339.66 378.181 339.637 378.143C339.614 378.105 339.581 378.074 339.541 378.054C338.947 377.73 336.96 378.496 335.523 379.188Z" fill="#92E3A9"/>
<path d="M334.875 379.479C334.837 379.49 334.795 379.49 334.757 379.479C334.725 379.457 334.7 379.428 334.683 379.394C334.666 379.36 334.658 379.323 334.659 379.285C334.659 379.123 334.962 375.548 336.927 375.548H337.1C337.673 375.613 337.845 375.893 337.889 376.131C338.072 377.114 336.02 379.015 334.962 379.501L334.875 379.479ZM336.949 375.926C335.685 375.926 335.253 378.01 335.124 378.896C336.204 378.248 337.597 376.736 337.478 376.163C337.478 376.109 337.478 375.969 337.068 375.937L336.949 375.926Z" fill="#92E3A9"/>
<path d="M300.963 190.35L299.505 193.503C299.387 193.752 299.7 194.011 300.11 194.011L337.683 194.454C338.007 194.454 338.267 194.302 338.277 194.097L338.45 190.933C338.45 190.717 338.169 190.523 337.824 190.523L301.536 190.09C301.426 190.081 301.316 190.099 301.215 190.145C301.115 190.19 301.028 190.261 300.963 190.35Z" fill="#92E3A9"/>
<path d="M306.029 194.399H305.057C304.862 194.399 304.711 194.302 304.722 194.183L304.981 190.058C304.981 189.939 305.154 189.842 305.348 189.852H306.32C306.515 189.852 306.666 189.95 306.655 190.068L306.396 194.183C306.385 194.334 306.223 194.399 306.029 194.399Z" fill="#92E3A9"/>
<path opacity="0.5" d="M306.029 194.399H305.057C304.862 194.399 304.711 194.302 304.722 194.183L304.981 190.058C304.981 189.939 305.154 189.842 305.348 189.852H306.32C306.515 189.852 306.666 189.95 306.655 190.068L306.396 194.183C306.385 194.334 306.223 194.399 306.029 194.399Z" fill="black"/>
<path d="M330.588 194.767H329.616C329.422 194.767 329.271 194.669 329.271 194.54L329.53 190.425C329.53 190.306 329.702 190.209 329.897 190.209H330.869C331.063 190.209 331.215 190.306 331.204 190.425L330.944 194.54C330.944 194.669 330.772 194.767 330.588 194.767Z" fill="#92E3A9"/>
<path opacity="0.5" d="M330.588 194.767H329.616C329.422 194.767 329.271 194.669 329.271 194.54L329.53 190.425C329.53 190.306 329.702 190.209 329.897 190.209H330.869C331.063 190.209 331.215 190.306 331.204 190.425L330.944 194.54C330.944 194.669 330.772 194.767 330.588 194.767Z" fill="black"/>
<path d="M382.762 377.417L374.695 376.262L375.224 357.297L383.281 358.452L382.762 377.417Z" fill="#FFC3BD"/>
<path d="M439.473 379.922H431.341L429.311 361.065H437.454L439.473 379.922Z" fill="#FFC3BD"/>
<path d="M430.671 378.972H440.64C440.801 378.975 440.957 379.032 441.082 379.134C441.207 379.235 441.295 379.376 441.331 379.533L442.94 386.769C442.978 386.946 442.975 387.129 442.931 387.305C442.888 387.48 442.806 387.644 442.691 387.783C442.575 387.922 442.43 388.033 442.266 388.108C442.101 388.183 441.922 388.22 441.741 388.216C438.501 388.216 436.222 387.968 432.205 387.968C429.721 387.968 422.269 388.227 418.845 388.227C415.422 388.227 414.979 384.847 416.383 384.544C422.658 383.173 427.377 381.304 429.343 379.479C429.709 379.155 430.182 378.974 430.671 378.972Z" fill="#263238"/>
<path d="M374.889 375.343L383.691 376.596C383.85 376.622 383.995 376.699 384.105 376.817C384.214 376.934 384.281 377.084 384.296 377.244L384.868 384.642C384.882 384.821 384.855 385.001 384.789 385.168C384.724 385.335 384.621 385.485 384.489 385.606C384.357 385.728 384.199 385.818 384.027 385.87C383.855 385.922 383.674 385.934 383.497 385.906C380.332 385.398 375.775 384.556 371.779 383.983C367.113 383.314 363.052 382.99 357.577 382.212C354.272 381.737 353.829 378.259 355.266 378.151C361.746 377.676 366.93 378.27 372.859 375.689C373.489 375.383 374.193 375.264 374.889 375.343Z" fill="#263238"/>
<path d="M400.766 130.421C400.345 136.059 399.686 141.545 398.855 147.096C398.444 149.861 397.958 152.626 397.44 155.391C397.181 156.773 396.911 158.155 396.608 159.538L396.144 161.611L395.917 162.691C395.831 163.037 395.701 163.491 395.604 163.89C394.771 166.822 393.687 169.677 392.364 172.422C391.125 175.029 389.811 177.549 388.422 179.982C385.675 184.884 382.657 189.629 379.382 194.195L374.015 191.16L380.063 176.04C381.045 173.524 381.963 171.007 382.817 168.48C383.644 166.161 384.308 163.786 384.804 161.374C384.804 161.093 384.901 160.877 384.955 160.553L385.085 159.549L385.355 157.561L385.851 153.555L386.748 145.487L388.476 129.287L400.766 130.421Z" fill="#FFC3BD"/>
<path d="M394.2 122.04C386.64 123.963 383.13 150.725 383.13 150.725L401.814 153.501C401.814 153.501 403.596 146.297 406.469 136.437C408.24 130.259 403.585 119.632 394.2 122.04Z" fill="#92E3A9"/>
<path d="M375.419 189.713L368.809 195.34L377.309 199.454C378.188 198.594 378.875 197.558 379.326 196.413C379.776 195.268 379.979 194.041 379.922 192.812L375.419 189.713Z" fill="#FFC3BD"/>
<path d="M365.169 200.491L372.643 203.375L377.309 199.455L368.809 195.34L365.169 200.491Z" fill="#FFC3BD"/>
<path opacity="0.2" d="M375.235 357.297L374.954 367.082L383.022 368.237L383.292 358.452L375.235 357.297Z" fill="black"/>
<path opacity="0.2" d="M437.454 361.065H429.311L430.358 370.785H438.501L437.454 361.065Z" fill="black"/>
<path d="M439.452 123.952C437.241 132.785 435.692 141.77 434.819 150.833C434.171 157.151 433.836 163.177 433.652 168.642C433.242 181.451 433.717 191.203 433.404 194.508C427.032 194.195 403.013 193.018 389.912 192.348C388.627 128.369 393.887 122.094 393.887 122.094C397.308 121.382 400.771 120.884 404.255 120.604C404.989 120.539 405.734 120.496 406.49 120.463C412.666 120.413 418.839 120.719 424.98 121.381C426.146 121.489 427.323 121.641 428.468 121.803C434.3 122.645 439.452 123.952 439.452 123.952Z" fill="#92E3A9"/>
<path d="M402.84 120.55C403.855 125.399 414.137 158.879 434.279 170.133C434.363 170.179 434.434 170.246 434.485 170.327C434.536 170.408 434.565 170.501 434.57 170.597C434.635 171.612 434.657 172.919 434.667 173.686C434.668 173.769 434.651 173.852 434.617 173.928C434.583 174.004 434.533 174.072 434.471 174.127C434.408 174.183 434.335 174.224 434.255 174.248C434.175 174.273 434.091 174.28 434.009 174.269C431.643 173.945 422.733 171.094 410.044 150.725C403.79 140.681 399.459 124.902 398.757 121.565C398.724 121.408 398.753 121.244 398.838 121.107C398.922 120.971 399.056 120.872 399.211 120.831L402.073 120.075C402.155 120.052 402.24 120.047 402.324 120.059C402.408 120.071 402.488 120.1 402.56 120.145C402.632 120.19 402.694 120.249 402.742 120.318C402.79 120.388 402.824 120.467 402.84 120.55Z" fill="#263238"/>
<path d="M404.827 138.748C406.026 141.426 400.302 152.939 407.602 164.668C414.903 176.397 421.264 166.752 428.727 171.051C420.12 161.622 404.827 138.748 404.827 138.748Z" fill="#263238"/>
<path d="M421.642 168.48H421.534C408.186 162.313 405.874 143.381 405.853 143.197C405.848 143.162 405.851 143.126 405.86 143.091C405.87 143.057 405.886 143.024 405.908 142.996C405.93 142.968 405.958 142.945 405.989 142.927C406.02 142.91 406.055 142.899 406.09 142.895C406.125 142.89 406.161 142.893 406.195 142.903C406.228 142.912 406.26 142.929 406.287 142.951C406.315 142.973 406.337 143.001 406.353 143.032C406.37 143.063 406.379 143.097 406.382 143.132C406.382 143.327 408.682 161.957 421.761 167.972C421.82 167.997 421.868 168.042 421.896 168.098C421.925 168.155 421.934 168.219 421.919 168.281C421.905 168.343 421.87 168.398 421.819 168.436C421.768 168.475 421.706 168.494 421.642 168.491V168.48Z" fill="white"/>
<path opacity="0.2" d="M428.76 135.886C428.822 142.551 430.822 149.054 434.516 154.602C434.613 153.36 434.732 152.097 434.862 150.833C435.348 146.081 435.996 141.167 436.881 136.188L428.76 135.886Z" fill="black"/>
<path d="M424.181 100.44C422.723 106.326 421.016 117.17 424.98 121.349C423.052 123.183 420.752 124.58 418.236 125.445C415.72 126.31 413.047 126.622 410.4 126.36C405.291 126.004 405.205 122.408 406.447 120.485C413.165 119.232 413.229 114.297 412.311 109.62L424.181 100.44Z" fill="#FFC3BD"/>
<path opacity="0.2" d="M419.353 104.209L412.354 109.609C412.591 110.696 412.728 111.802 412.765 112.914C415.314 112.676 418.932 110.063 419.331 107.427C419.535 106.365 419.543 105.274 419.353 104.209Z" fill="black"/>
<path d="M423.954 89.8774C424.505 97.9342 425.228 102.632 421.729 107.255C416.448 114.221 406.101 111.834 403.164 104.101C400.507 97.135 400.064 85.1254 407.484 80.9242C409.114 79.9913 410.956 79.4908 412.835 79.4704C414.713 79.4499 416.566 79.9101 418.216 80.8073C419.866 81.7045 421.26 83.0088 422.264 84.5963C423.269 86.1838 423.85 88.0018 423.954 89.8774Z" fill="#FFC3BD"/>
<path d="M410.691 102.999C411.636 102.896 412.542 102.567 413.333 102.041C414.124 101.515 414.777 100.806 415.238 99.9755C415.258 99.9264 415.259 99.8717 415.241 99.822C415.223 99.7722 415.187 99.7308 415.141 99.7055C415.116 99.6927 415.089 99.6851 415.061 99.6831C415.034 99.6812 415.006 99.6848 414.98 99.6939C414.953 99.703 414.929 99.7173 414.909 99.736C414.888 99.7547 414.872 99.7774 414.86 99.8027C414.423 100.564 413.813 101.211 413.079 101.693C412.346 102.175 411.509 102.479 410.637 102.578C410.583 102.589 410.534 102.619 410.5 102.662C410.467 102.706 410.45 102.761 410.454 102.816C410.462 102.871 410.491 102.921 410.535 102.956C410.58 102.99 410.636 103.006 410.691 102.999Z" fill="#263238"/>
<path d="M416.664 84.3697C416.998 87.9121 419.85 91.4977 419.493 93.7873C419.35 94.7947 419.009 95.7638 418.489 96.6385L423.716 97.8481C423.716 97.8481 438.652 81.8857 426.837 78.8185C421.372 68.2669 398.703 65.1457 394.016 74.4985C389.037 84.3589 402.71 86.6917 402.71 86.6917C402.71 86.6917 408.056 82.8685 416.664 84.3697Z" fill="#263238"/>
<path d="M428.76 98.2798C427.903 100.124 426.349 101.554 424.44 102.254C421.913 103.172 420.444 100.947 420.995 98.4526C421.481 96.2062 423.381 93.0526 426.006 93.193C426.578 93.2406 427.129 93.43 427.61 93.744C428.09 94.0581 428.485 94.4869 428.758 94.9917C429.032 95.4965 429.175 96.0615 429.175 96.6356C429.175 97.2096 429.033 97.7747 428.76 98.2798Z" fill="#FFC3BD"/>
<path d="M372.2 364.78L385.851 366.735C385.851 366.735 393.768 317.055 397.861 288.23C398.941 280.594 400.734 269.816 403.067 258.314C405.993 243.82 409.73 228.15 412.787 215.87C416.027 202.91 418.5 193.773 418.5 193.773L389.88 192.358C389.88 192.358 375.84 259.588 374.231 284.374C372.6 310.154 372.2 364.78 372.2 364.78Z" fill="#263238"/>
<path opacity="0.2" d="M403.067 258.315C405.993 243.821 409.73 228.151 412.787 215.871L409.698 209.521C402.84 218.161 401.403 244.188 403.067 258.315Z" fill="black"/>
<path d="M405.334 193.126C405.334 193.126 409.838 262.97 413.272 286.568C417.042 312.412 426.6 368.907 426.6 368.907H441.504C441.504 368.907 440.175 315.663 436.352 290.326C432.032 261.641 433.393 194.519 433.393 194.519L405.334 193.126Z" fill="#263238"/>
<path d="M424.807 369.23H442.368V363.981L422.744 363.646L424.807 369.23Z" fill="#92E3A9"/>
<path d="M371.304 364.975L386.705 367.189L388.195 361.789L370.634 359.24L371.304 364.975Z" fill="#92E3A9"/>
<path d="M412.117 93.6896C412.203 94.3376 411.922 94.91 411.501 94.964C411.08 95.018 410.659 94.532 410.572 93.884C410.486 93.236 410.767 92.6636 411.199 92.6096C411.631 92.5556 412.03 93.0308 412.117 93.6896Z" fill="#263238"/>
<path d="M404.762 94.64C404.838 95.288 404.568 95.8604 404.136 95.9144C403.704 95.9684 403.304 95.4932 403.218 94.8344C403.131 94.1756 403.412 93.614 403.833 93.56C404.255 93.506 404.676 93.9596 404.762 94.64Z" fill="#263238"/>
<path d="M407.16 94.6621C406.64 96.7523 405.837 98.7617 404.773 100.635C406.058 101.563 408.013 100.635 408.013 100.635L407.16 94.6621Z" fill="#ED847E"/>
<path d="M414.093 91.012C414.026 91.0339 413.954 91.0364 413.885 91.0192C413.816 91.002 413.754 90.9658 413.705 90.9148C413.376 90.5597 412.967 90.2876 412.513 90.1205C412.059 89.9534 411.572 89.8962 411.091 89.9536C411.041 89.9646 410.99 89.9654 410.94 89.956C410.89 89.9466 410.842 89.9272 410.8 89.899C410.757 89.8708 410.721 89.8343 410.693 89.7917C410.665 89.7491 410.646 89.7013 410.637 89.6512C410.626 89.6015 410.626 89.5501 410.635 89.5C410.644 89.45 410.664 89.4023 410.692 89.36C410.72 89.3176 410.757 89.2814 410.799 89.2535C410.842 89.2256 410.89 89.2066 410.94 89.1976C411.546 89.1158 412.163 89.1799 412.74 89.3847C413.317 89.5894 413.836 89.9289 414.255 90.3748C414.291 90.41 414.32 90.452 414.339 90.4984C414.359 90.5447 414.369 90.5945 414.369 90.6448C414.369 90.6951 414.359 90.7449 414.339 90.7912C414.32 90.8376 414.291 90.8796 414.255 90.9148C414.209 90.9582 414.154 90.9913 414.093 91.012Z" fill="#263238"/>
<path d="M401.274 92.5126C401.196 92.5343 401.114 92.5343 401.036 92.5126C400.939 92.4805 400.859 92.4115 400.812 92.3205C400.766 92.2296 400.757 92.124 400.788 92.0266C400.968 91.4398 401.287 90.9049 401.717 90.467C402.148 90.0291 402.677 89.701 403.261 89.5102C403.312 89.4889 403.367 89.4788 403.423 89.4807C403.479 89.4826 403.533 89.4963 403.583 89.521C403.633 89.5458 403.677 89.5809 403.712 89.624C403.747 89.6672 403.772 89.7173 403.786 89.7711C403.8 89.8249 403.802 89.8811 403.793 89.9359C403.783 89.9907 403.762 90.0427 403.731 90.0886C403.7 90.1345 403.659 90.1732 403.611 90.202C403.564 90.2307 403.51 90.249 403.455 90.2554C402.998 90.416 402.586 90.6814 402.25 91.0302C401.914 91.3791 401.665 91.8017 401.522 92.2642C401.506 92.3236 401.474 92.3776 401.43 92.4212C401.387 92.4647 401.333 92.4962 401.274 92.5126Z" fill="#263238"/>
<path d="M427.971 380.398C427.418 380.438 426.868 380.294 426.405 379.988C426.261 379.862 426.149 379.702 426.08 379.524C426.01 379.345 425.985 379.152 426.006 378.962C426.006 378.849 426.037 378.74 426.097 378.644C426.156 378.549 426.24 378.472 426.341 378.422C427.248 377.957 429.861 379.566 430.164 379.75C430.195 379.771 430.221 379.8 430.236 379.834C430.251 379.869 430.256 379.907 430.25 379.944C430.247 379.983 430.231 380.019 430.206 380.048C430.181 380.077 430.147 380.098 430.11 380.106C429.41 380.285 428.693 380.383 427.971 380.398ZM426.762 378.713C426.68 378.695 426.595 378.695 426.513 378.713C426.475 378.737 426.443 378.77 426.422 378.81C426.402 378.85 426.392 378.895 426.395 378.94C426.375 379.069 426.389 379.202 426.434 379.324C426.479 379.447 426.555 379.556 426.654 379.642C427.563 380.063 428.6 380.117 429.548 379.793C428.697 379.258 427.751 378.891 426.762 378.713Z" fill="#92E3A9"/>
<path d="M430.056 380.16C430.028 380.169 429.997 380.169 429.969 380.16C429.127 379.707 427.496 377.925 427.669 377.018C427.697 376.875 427.773 376.746 427.886 376.653C427.998 376.56 428.139 376.51 428.285 376.51C428.431 376.493 428.58 376.507 428.721 376.549C428.862 376.592 428.993 376.663 429.105 376.758C430.045 377.525 430.25 379.88 430.25 379.998C430.255 380.034 430.25 380.071 430.235 380.103C430.219 380.136 430.195 380.163 430.164 380.182L430.056 380.16ZM428.414 376.866H428.328C428.079 376.866 428.058 377.018 428.047 377.061C427.95 377.601 428.987 378.951 429.818 379.588C429.766 378.66 429.43 377.771 428.857 377.039C428.745 376.909 428.586 376.827 428.414 376.812V376.866Z" fill="#92E3A9"/>
<path d="M373.95 376.337C372.611 376.401 370.256 376.337 369.479 375.483C369.366 375.349 369.287 375.19 369.249 375.019C369.212 374.848 369.216 374.67 369.263 374.501C369.282 374.396 369.328 374.299 369.396 374.217C369.464 374.136 369.552 374.074 369.652 374.036C370.732 373.647 373.702 375.743 374.047 375.98C374.08 376.005 374.104 376.038 374.118 376.077C374.131 376.115 374.133 376.157 374.123 376.196C374.112 376.235 374.089 376.269 374.058 376.294C374.028 376.319 373.99 376.334 373.95 376.337ZM369.803 374.393H369.749C369.71 374.407 369.675 374.432 369.649 374.464C369.622 374.496 369.604 374.535 369.598 374.576C369.566 374.688 369.564 374.806 369.59 374.92C369.616 375.033 369.671 375.138 369.749 375.224C370.181 375.732 371.488 376.002 373.313 375.959C372.114 375.181 370.44 374.241 369.803 374.393Z" fill="#92E3A9"/>
<path d="M373.95 376.337C373.901 376.353 373.847 376.353 373.798 376.337C372.891 375.754 371.206 373.745 371.487 372.848C371.552 372.643 371.746 372.395 372.276 372.416C372.469 372.425 372.658 372.473 372.832 372.557C373.007 372.64 373.163 372.758 373.291 372.902C374.187 373.885 374.101 376.088 374.09 376.142C374.088 376.175 374.078 376.207 374.061 376.235C374.044 376.263 374.021 376.287 373.993 376.304L373.95 376.337ZM372.038 372.794C371.887 372.794 371.865 372.913 371.854 372.946C371.692 373.475 372.805 375.03 373.712 375.775C373.752 374.844 373.503 373.924 372.999 373.14C372.909 373.032 372.796 372.945 372.67 372.884C372.543 372.822 372.405 372.788 372.265 372.784L372.038 372.794Z" fill="#92E3A9"/>
<path d="M440.64 128.391C441.655 129.643 442.519 130.777 443.394 131.998C444.269 133.218 445.111 134.406 445.954 135.627C447.602 138.075 449.168 140.595 450.652 143.187C453.706 148.451 456.173 154.036 458.006 159.84L458.093 160.143L458.212 160.564L458.417 161.417C458.503 161.925 458.6 162.497 458.654 162.951C458.745 163.862 458.785 164.778 458.773 165.694C458.735 167.321 458.598 168.944 458.363 170.554C457.917 173.54 457.297 176.497 456.505 179.41C454.971 185.058 453.029 190.588 450.695 195.955L444.852 194.141C445.792 188.644 446.699 183.06 447.368 177.617C447.725 174.906 447.952 172.217 448.049 169.625C448.099 168.408 448.077 167.189 447.984 165.975C447.93 165.424 447.854 164.895 447.768 164.463C447.768 164.247 447.671 164.085 447.628 163.901L447.552 163.728V163.642L447.466 163.437C446.526 161.082 445.37 158.728 444.15 156.384C442.93 154.041 441.536 151.729 440.111 149.429C438.685 147.129 437.173 144.861 435.64 142.614C434.873 141.534 434.084 140.368 433.296 139.266L430.92 136.08L440.64 128.391Z" fill="#FFC3BD"/>
<path d="M439.451 123.951C447.109 125.334 454.172 143.866 454.172 143.866L438.479 157.15C438.479 157.15 433.08 147.776 428.706 138.704C424.008 128.833 430.174 122.277 439.451 123.951Z" fill="#92E3A9"/>
<path d="M445.683 192.542L440.283 198.828L450.284 201.657C450.284 201.657 453.664 195.296 450.489 193.125L445.683 192.542Z" fill="#FFC3BD"/>
<path d="M439.981 205.611L448.362 207.576L450.317 201.658L440.316 198.828L439.981 205.611Z" fill="#FFC3BD"/>
<path d="M270.27 265.864C270.333 267.04 270.087 268.213 269.557 269.266C269.048 270.293 268.389 271.24 267.602 272.074C266.047 273.653 264.298 275.028 262.396 276.167C258.662 278.347 254.723 280.156 250.635 281.567C242.544 284.358 234.236 286.474 225.795 287.896C209.031 290.783 192.046 292.192 175.035 292.108C158.043 292.189 141.076 290.78 124.329 287.896C115.889 286.473 107.581 284.356 99.4893 281.567C95.4053 280.155 91.4696 278.347 87.7389 276.167C85.834 275.028 84.0812 273.653 82.5225 272.074C81.7388 271.237 81.0804 270.291 80.5677 269.266C80.0428 268.211 79.7974 267.04 79.8549 265.864C79.8477 265.72 79.8978 265.58 79.994 265.474C80.0902 265.367 80.2247 265.304 80.3679 265.297C80.5111 265.289 80.6513 265.339 80.7576 265.436C80.864 265.532 80.9277 265.666 80.9349 265.81V265.864C81.3104 267.747 82.4122 269.408 84.0021 270.486C85.5963 271.684 87.3342 272.678 89.1753 273.445C92.9384 275.044 96.8388 276.299 100.828 277.193C104.889 278.158 108.979 278.964 113.097 279.612C117.18 280.26 121.284 280.865 125.398 281.308C141.918 283.059 158.521 283.91 175.132 283.856C191.744 283.91 208.347 283.06 224.866 281.308C228.992 280.865 233.085 280.228 237.168 279.612C241.25 278.996 245.311 278.176 249.296 277.193C253.286 276.299 257.186 275.044 260.949 273.445C262.794 272.678 264.535 271.684 266.133 270.486C267.717 269.403 268.814 267.744 269.19 265.864V265.81C269.208 265.668 269.283 265.539 269.396 265.452C269.509 265.365 269.653 265.327 269.794 265.345C269.922 265.363 270.039 265.424 270.126 265.519C270.212 265.613 270.263 265.735 270.27 265.864Z" fill="#92E3A9"/>
<path opacity="0.5" d="M270.27 265.864C270.333 267.04 270.087 268.213 269.557 269.266C269.048 270.293 268.389 271.24 267.602 272.074C266.047 273.653 264.298 275.028 262.396 276.167C258.662 278.347 254.723 280.156 250.635 281.567C242.544 284.358 234.236 286.474 225.795 287.896C209.031 290.783 192.046 292.192 175.035 292.108C158.043 292.189 141.076 290.78 124.329 287.896C115.889 286.473 107.581 284.356 99.4893 281.567C95.4053 280.155 91.4696 278.347 87.7389 276.167C85.834 275.028 84.0812 273.653 82.5225 272.074C81.7388 271.237 81.0804 270.291 80.5677 269.266C80.0428 268.211 79.7974 267.04 79.8549 265.864C79.8477 265.72 79.8978 265.58 79.994 265.474C80.0902 265.367 80.2247 265.304 80.3679 265.297C80.5111 265.289 80.6513 265.339 80.7576 265.436C80.864 265.532 80.9277 265.666 80.9349 265.81V265.864C81.3104 267.747 82.4122 269.408 84.0021 270.486C85.5963 271.684 87.3342 272.678 89.1753 273.445C92.9384 275.044 96.8388 276.299 100.828 277.193C104.889 278.158 108.979 278.964 113.097 279.612C117.18 280.26 121.284 280.865 125.398 281.308C141.918 283.059 158.521 283.91 175.132 283.856C191.744 283.91 208.347 283.06 224.866 281.308C228.992 280.865 233.085 280.228 237.168 279.612C241.25 278.996 245.311 278.176 249.296 277.193C253.286 276.299 257.186 275.044 260.949 273.445C262.794 272.678 264.535 271.684 266.133 270.486C267.717 269.403 268.814 267.744 269.19 265.864V265.81C269.208 265.668 269.283 265.539 269.396 265.452C269.509 265.365 269.653 265.327 269.794 265.345C269.922 265.363 270.039 265.424 270.126 265.519C270.212 265.613 270.263 265.735 270.27 265.864Z" fill="white"/>
<path d="M460.004 265.864C460.062 267.04 459.816 268.211 459.291 269.266C458.782 270.293 458.124 271.24 457.337 272.074C455.778 273.653 454.025 275.028 452.12 276.167C448.389 278.347 444.454 280.155 440.37 281.567C432.278 284.356 423.97 286.473 415.53 287.896C381.959 293.512 347.689 293.512 314.118 287.896C305.678 286.474 297.369 284.358 289.278 281.567C285.194 280.155 281.258 278.347 277.527 276.167C275.621 275.031 273.867 273.656 272.311 272.074C271.524 271.24 270.865 270.293 270.356 269.266C269.826 268.213 269.58 267.04 269.643 265.864C269.636 265.72 269.686 265.58 269.783 265.474C269.879 265.367 270.013 265.304 270.156 265.297C270.3 265.289 270.44 265.339 270.546 265.436C270.653 265.532 270.716 265.666 270.723 265.81V265.864C271.1 267.744 272.197 269.403 273.78 270.486C275.378 271.684 277.119 272.678 278.964 273.445C282.727 275.044 286.627 276.299 290.617 277.193C294.602 278.176 298.663 278.975 302.745 279.612C306.828 280.249 310.921 280.865 315.047 281.308C331.548 283.058 348.133 283.908 364.727 283.856C381.339 283.91 397.941 283.059 414.461 281.308C418.575 280.865 422.679 280.228 426.762 279.612C430.844 278.996 434.894 278.176 438.89 277.193C442.88 276.299 446.78 275.044 450.543 273.445C452.386 272.681 454.124 271.686 455.717 270.486C457.307 269.408 458.408 267.747 458.784 265.864V265.81C458.803 265.668 458.877 265.539 458.99 265.452C459.104 265.365 459.247 265.327 459.389 265.345C459.463 265.338 459.539 265.345 459.61 265.368C459.682 265.39 459.748 265.426 459.806 265.474C459.863 265.523 459.91 265.582 459.944 265.649C459.978 265.716 459.999 265.789 460.004 265.864Z" fill="#92E3A9"/>
<path opacity="0.5" d="M460.004 265.864C460.062 267.04 459.816 268.211 459.291 269.266C458.782 270.293 458.124 271.24 457.337 272.074C455.778 273.653 454.025 275.028 452.12 276.167C448.389 278.347 444.454 280.155 440.37 281.567C432.278 284.356 423.97 286.473 415.53 287.896C381.959 293.512 347.689 293.512 314.118 287.896C305.678 286.474 297.369 284.358 289.278 281.567C285.194 280.155 281.258 278.347 277.527 276.167C275.621 275.031 273.867 273.656 272.311 272.074C271.524 271.24 270.865 270.293 270.356 269.266C269.826 268.213 269.58 267.04 269.643 265.864C269.636 265.72 269.686 265.58 269.783 265.474C269.879 265.367 270.013 265.304 270.156 265.297C270.3 265.289 270.44 265.339 270.546 265.436C270.653 265.532 270.716 265.666 270.723 265.81V265.864C271.1 267.744 272.197 269.403 273.78 270.486C275.378 271.684 277.119 272.678 278.964 273.445C282.727 275.044 286.627 276.299 290.617 277.193C294.602 278.176 298.663 278.975 302.745 279.612C306.828 280.249 310.921 280.865 315.047 281.308C331.548 283.058 348.133 283.908 364.727 283.856C381.339 283.91 397.941 283.059 414.461 281.308C418.575 280.865 422.679 280.228 426.762 279.612C430.844 278.996 434.894 278.176 438.89 277.193C442.88 276.299 446.78 275.044 450.543 273.445C452.386 272.681 454.124 271.686 455.717 270.486C457.307 269.408 458.408 267.747 458.784 265.864V265.81C458.803 265.668 458.877 265.539 458.99 265.452C459.104 265.365 459.247 265.327 459.389 265.345C459.463 265.338 459.539 265.345 459.61 265.368C459.682 265.39 459.748 265.426 459.806 265.474C459.863 265.523 459.91 265.582 459.944 265.649C459.978 265.716 459.999 265.789 460.004 265.864Z" fill="white"/>
<path d="M83.7754 230.396H77.8354V389.34H83.7754V230.396Z" fill="#92E3A9"/>
<path d="M77.7597 387.115H83.8077C84.2288 387.115 84.6326 387.282 84.9303 387.58C85.2281 387.878 85.3953 388.282 85.3953 388.703V389.329H76.2153V388.703C76.2152 388.289 76.3765 387.892 76.665 387.595C76.9534 387.299 77.3462 387.126 77.7597 387.115Z" fill="#92E3A9"/>
<path d="M84.229 264.092H77.3926V267.645H84.229V264.092Z" fill="#92E3A9"/>
<path opacity="0.3" d="M83.7754 267.646H77.8354V268.466H83.7754V267.646Z" fill="black"/>
<path d="M80.8054 233.269C83.5491 233.269 85.7734 231.045 85.7734 228.301C85.7734 225.557 83.5491 223.333 80.8054 223.333C78.0616 223.333 75.8374 225.557 75.8374 228.301C75.8374 231.045 78.0616 233.269 80.8054 233.269Z" fill="#92E3A9"/>
<path d="M462.164 230.396H456.224V389.34H462.164V230.396Z" fill="#92E3A9"/>
<path d="M456.192 387.115H462.24C462.661 387.115 463.065 387.282 463.362 387.58C463.66 387.878 463.827 388.282 463.827 388.703V389.329H454.647V388.703C454.647 388.289 454.809 387.892 455.097 387.595C455.386 387.299 455.778 387.126 456.192 387.115Z" fill="#92E3A9"/>
<path d="M462.607 264.092H455.771V267.645H462.607V264.092Z" fill="#92E3A9"/>
<path opacity="0.3" d="M462.164 267.646H456.224V268.466H462.164V267.646Z" fill="black"/>
<path d="M459.194 233.269C461.938 233.269 464.162 231.045 464.162 228.301C464.162 225.557 461.938 223.333 459.194 223.333C456.45 223.333 454.226 225.557 454.226 228.301C454.226 231.045 456.45 233.269 459.194 233.269Z" fill="#92E3A9"/>
<path d="M272.97 230.396H267.03V389.34H272.97V230.396Z" fill="#92E3A9"/>
<path d="M266.997 387.115H273.002C273.423 387.115 273.827 387.282 274.125 387.58C274.422 387.878 274.59 388.282 274.59 388.703V389.329H265.41V388.703C265.41 388.282 265.577 387.878 265.875 387.58C266.172 387.282 266.576 387.115 266.997 387.115Z" fill="#92E3A9"/>
<path d="M273.413 264.092H266.576V267.645H273.413V264.092Z" fill="#92E3A9"/>
<path opacity="0.3" d="M272.97 267.646H267.03V268.466H272.97V267.646Z" fill="black"/>
<path d="M270 233.269C272.743 233.269 274.968 231.045 274.968 228.301C274.968 225.557 272.743 223.333 270 223.333C267.256 223.333 265.032 225.557 265.032 228.301C265.032 231.045 267.256 233.269 270 233.269Z" fill="#92E3A9"/>
</svg>
